<svg width="1280" height="1696" viewBox="0 0 1280 1696" fill="none" xmlns="http://www.w3.org/2000/svg">
<path d="M840.74 783.52C840.74 783.52 926.61 925.71 887.45 993.72C848.29 1061.73 779.39 1087 697.88 1078.2C491.36 1056 237.1 897 243.51 845.74C252.17 776.53 632.39 855.85 632.39 855.85L666.23 784.21L840.74 783.52Z" fill="#C5DCDD" stroke="black" stroke-width="6" stroke-linecap="round" stroke-linejoin="round"/>
<path d="M246 837.58C234.52 849.41 150.69 1013.75 656.68 1133.32L675.68 1098.4C675.68 1098.4 336.64 744.21 246 837.58Z" fill="#C5DCDD" stroke="black" stroke-width="6" stroke-linecap="round" stroke-linejoin="round"/>
<path d="M676.35 1098.4C676.35 1098.4 506.61 921.06 375.22 850.4" stroke="#4B556A" stroke-width="6" stroke-miterlimit="10"/>
<path d="M656.66 1133.32C680.02 1137.5 779.34 1171.83 801.32 1167.25C823.3 1162.67 788.44 1097.44 774.7 1094.7C760.96 1091.96 693.29 1099.59 675.7 1098.4C658.11 1097.21 656.66 1133.32 656.66 1133.32Z" fill="#C48270" stroke="#0F0F0F" stroke-width="6" stroke-linecap="round" stroke-linejoin="round"/>
<path d="M776.86 987.15C688.74 1172.93 437.76 1384.83 437.76 1384.83C437.76 1384.83 418.76 1368.4 394.98 1367.39C394.98 1367.39 619.57 867.93 746.37 843.7C848.94 824.1 791.66 955.93 776.86 987.15Z" fill="#C5DCDD" stroke="black" stroke-width="6" stroke-linecap="round" stroke-linejoin="round"/>
<path d="M394.91 1366.23C372.52 1401.93 337.91 1476.99 316.18 1503.01C309.12 1511.47 371.46 1514.01 380.92 1506.45C393.92 1496.12 394.92 1457.45 420.73 1452.45C438.79 1448.99 456.89 1436.93 448.46 1419.52C436.6 1395.01 438.33 1383.42 438.33 1383.42C417.9 1360.64 394.91 1366.23 394.91 1366.23Z" fill="#C48270" stroke="#0F0F0F" stroke-width="6" stroke-linecap="round" stroke-linejoin="round"/>
<path d="M673 515.93C714.21 583.25 660 739.17 635 762.49C588.78 805.68 387.31 799.56 387.31 799.56L379.13 781.05C379.13 781.05 490.13 720.51 578.76 715.7C578.76 715.7 602.41 594.19 610.25 559.31C620.14 515.39 644.54 469.46 673 515.93Z" fill="#C48270" stroke="#0F0F0F" stroke-width="6" stroke-linecap="round" stroke-linejoin="round"/>
<path d="M401.86 782.64C397.41 771.52 359.38 778.48 344.27 785.5C331.41 791.5 315.86 807.5 313.33 810.9C310.8 814.3 305.13 831.43 305.13 831.43C305.13 831.43 310.6 837.22 317.98 827.12C325.36 817.02 344.49 805.47 349.23 808.01C359.9 813.71 334.04 815.95 331.23 820.01C328.42 824.07 329.74 826.54 329.74 826.54C329.74 826.54 354.05 825.43 357.93 824.89C361.81 824.35 377.33 817.37 384.93 811.02C392.53 804.67 404.63 789.58 401.86 782.64Z" fill="#E38E32"/>
<path d="M836.9 475.2C849.37 478.9 888.52 493.46 888.52 493.46C888.52 493.46 885.21 587.97 874.12 610.34C827.66 704.01 842.12 790.34 842.12 790.34C842.12 790.34 732.12 808.65 664.84 791C664.84 791 673.64 719.73 659.25 711.23C644.86 702.73 621.33 683.53 627.87 645C634.41 606.47 632.87 505.26 640.73 498.72C648.59 492.18 683.47 475.18 692.44 475.21C701.41 475.24 836.9 475.2 836.9 475.2Z" fill="#F4F1ED" stroke="#070707" stroke-width="6" stroke-linecap="round" stroke-linejoin="round"/>
<path d="M493.44 666H247.09C244.375 666.001 241.7 666.657 239.293 667.913C236.886 669.169 234.818 670.988 233.265 673.214C231.712 675.441 230.719 678.01 230.372 680.703C230.025 683.395 230.333 686.132 231.27 688.68L293.36 857.5H581.85L517.62 682.91C515.806 677.955 512.514 673.676 508.189 670.652C503.865 667.628 498.717 666.004 493.44 666Z" fill="#F9A09B" stroke="black" stroke-width="6" stroke-linecap="round" stroke-linejoin="round"/>
<path d="M488.6 674.61H248.38C245.736 674.616 243.133 675.26 240.791 676.487C238.45 677.714 236.439 679.487 234.929 681.658C233.419 683.828 232.456 686.33 232.12 688.953C231.784 691.575 232.086 694.239 233 696.72L293.5 861.29H574.81L512.18 691.06C510.405 686.234 507.193 682.07 502.976 679.128C498.759 676.186 493.741 674.609 488.6 674.61Z" fill="#F9A09B" stroke="black" stroke-width="6" stroke-linecap="round" stroke-linejoin="round"/>
<path d="M293.49 858H701.42C706.037 858 710.465 859.834 713.73 863.099C716.995 866.364 718.83 870.793 718.83 875.41V879.24H310.9C306.282 879.24 301.854 877.406 298.589 874.141C295.324 870.876 293.49 866.447 293.49 861.83V858Z" fill="#F46F40" stroke="black" stroke-width="6" stroke-linecap="round" stroke-linejoin="round"/>
<path d="M493.44 666H247.09C244.375 666.001 241.7 666.657 239.293 667.913C236.886 669.169 234.818 670.988 233.265 673.214C231.712 675.441 230.719 678.01 230.372 680.703C230.025 683.395 230.333 686.132 231.27 688.68L293.36 857.5H581.85L517.62 682.91C515.806 677.955 512.514 673.676 508.189 670.652C503.865 667.628 498.717 666.004 493.44 666Z" fill="#F46F40" stroke="black" stroke-width="6" stroke-linecap="round" stroke-linejoin="round"/>
<path d="M408.427 782.686C414.262 776.205 412.511 765.116 404.516 757.917C396.521 750.718 385.309 750.136 379.474 756.616C373.639 763.097 375.39 774.186 383.385 781.385C391.38 788.584 402.591 789.166 408.427 782.686Z" fill="#F46F40" stroke="black" stroke-width="6" stroke-linecap="round" stroke-linejoin="round"/>
<path d="M620.83 865.64H603.59V871.83H620.83V865.64Z" fill="#F9A09B" stroke="black" stroke-width="6" stroke-linecap="round" stroke-linejoin="round"/>
<path d="M653.77 865.64H636.53V871.83H653.77V865.64Z" fill="#F9A09B" stroke="black" stroke-width="6" stroke-linecap="round" stroke-linejoin="round"/>
<path d="M714.07 290.72C714.07 290.72 654.65 262.84 617.83 321.27C581.01 379.7 631.54 405.89 605.1 435.8C576.5 468.17 540.28 487.13 569.62 551.28C599.54 616.68 523.24 592.57 539.74 665.38H669.11C669.11 665.38 724.76 645.9 708.11 597.9C691.46 549.9 655.62 543.26 689.11 500.9C714.3 469.1 830.51 475.58 840.94 478.32C851.37 481.06 895.87 496.32 895.87 496.32C895.87 496.32 913.56 443.4 888.26 414.26C856.26 377.39 802.88 404.57 793.14 361.31C786.57 332.13 773.84 298.24 752.59 291.84C729.8 285 714.07 290.72 714.07 290.72Z" fill="#1C0E0C"/>
<path d="M708.78 298.06C708.78 298.06 696.28 278.65 632.85 322.88C593.64 350.22 621.05 405.88 594.62 435.8C566 468.17 529.8 487.13 559.14 551.28C589.05 616.68 512.76 592.57 529.26 665.38" stroke="#070707" stroke-width="6" stroke-linecap="round" stroke-linejoin="round"/>
<path d="M759.38 392.38C759.38 392.38 757.38 436.44 773.48 459.05C784.41 474.41 774.59 473.11 812.73 477.49C812.73 477.49 816.73 534.07 728.41 534.07C662.87 534.07 689.11 500.91 689.11 500.91C689.11 500.91 716.47 461.28 704.68 392.38H759.38Z" fill="#C48270" stroke="#0F0F0F" stroke-width="6" stroke-linecap="round" stroke-linejoin="round"/>
<path d="M760.24 389C760.24 389 761.94 477.54 691.13 477.54C689.696 477.537 688.281 477.213 686.99 476.59C690.72 473.99 713.99 454.87 702.5 387.85H760.24C760.24 387.85 760.24 388.24 760.24 388.97V389Z" fill="#1C0E0C"/>
<path d="M762.18 387.53C762.18 387.53 752 463.22 704 463.59C672.38 463.82 654.11 419.48 646.71 396.24C638.25 369.7 647.21 316.64 692.32 317.31C731.49 317.9 751.96 371.31 751.96 371.31L762.18 387.53Z" fill="#C48270" stroke="#0F0F0F" stroke-width="6" stroke-linecap="round" stroke-linejoin="round"/>
<path d="M752.94 383.66C752.94 383.66 751.01 377.11 752.79 371.19C753.39 369.035 754.574 367.087 756.212 365.562C757.85 364.038 759.877 362.995 762.07 362.55" stroke="#070707" stroke-width="6" stroke-linecap="round" stroke-linejoin="round"/>
<path d="M762.07 375.5L752.79 371.19" stroke="#070707" stroke-width="6" stroke-linecap="round" stroke-linejoin="round"/>
<path d="M833.88 500.32C833.88 500.32 806.17 572.15 850.5 610.75C864.79 623.19 885.88 611.82 885.88 611.82" fill="#C48270"/>
<path d="M833.88 500.32C833.88 500.32 806.17 572.15 850.5 610.75C864.79 623.19 885.88 611.82 885.88 611.82" stroke="#0F0F0F" stroke-width="6" stroke-linecap="round" stroke-linejoin="round"/>
<path d="M854.68 573.2C870.47 623.2 891.42 693.94 891.42 693.94C808.33 698.45 683 748.85 667.77 755.1C642.46 760.75 606.6 781.25 599.7 785.36C593.28 789.03 583.11 799.19 580.05 803.28C576.87 807.53 569.33 822.85 569.33 822.85C570.924 823.642 572.738 823.876 574.481 823.513C576.223 823.15 577.794 822.212 578.94 820.85C581.94 817.63 586.87 809.85 590.85 806.07C587.24 815.14 583.85 824.51 583.85 824.51C583.85 824.51 592.85 826.7 604.29 822.99C609.79 821.22 615.86 810.68 622.29 803.73C628.72 796.78 642.76 800.08 656.8 797.73C670.84 795.38 680.61 774.73 680.61 774.73L680.41 774.39C716.88 774.99 908.71 776.24 950.48 737.2C975.48 713.88 943.09 562.02 901.87 494.71C883.75 465.11 856.77 469.09 844.08 487.93C839.84 494.21 834.79 497.88 834.58 506.77" fill="#C48270"/>
<path d="M854.68 573.2C870.47 623.2 891.42 693.94 891.42 693.94C808.33 698.45 683 748.85 667.77 755.1C642.46 760.75 606.6 781.25 599.7 785.36C593.28 789.03 583.11 799.19 580.05 803.28C576.87 807.53 569.33 822.85 569.33 822.85C570.924 823.642 572.738 823.876 574.481 823.513C576.223 823.15 577.794 822.212 578.94 820.85C581.94 817.63 586.87 809.85 590.85 806.07C587.24 815.14 583.85 824.51 583.85 824.51C583.85 824.51 592.85 826.7 604.29 822.99C609.79 821.22 615.86 810.68 622.29 803.73C628.72 796.78 642.76 800.08 656.8 797.73C670.84 795.38 680.61 774.73 680.61 774.73L680.41 774.39C716.88 774.99 908.71 776.24 950.48 737.2C975.48 713.88 943.09 562.02 901.87 494.71C883.75 465.11 856.77 469.09 844.08 487.93C839.84 494.21 834.79 497.88 834.58 506.77" stroke="#0F0F0F" stroke-width="6" stroke-linecap="round" stroke-linejoin="round"/>
<path d="M591 825.1C590.85 825.127 590.696 825.113 590.554 825.059C590.412 825.005 590.287 824.914 590.193 824.795C590.098 824.676 590.038 824.534 590.018 824.383C589.998 824.233 590.019 824.079 590.08 823.94C591.16 821.38 600.75 798.83 604.98 795.78C612.3 790.48 621.84 783.52 621.84 783.52L622.84 784.89C622.84 784.89 613.29 791.89 605.97 797.15C602.72 799.5 594.52 817.76 591.64 824.6C591.583 824.73 591.495 824.844 591.383 824.931C591.272 825.019 591.14 825.077 591 825.1Z" stroke="#070707" stroke-width="6" stroke-linecap="round" stroke-linejoin="round"/>
<path d="M600.15 823.55C599.984 823.58 599.813 823.559 599.66 823.49C599.455 823.394 599.297 823.222 599.218 823.011C599.14 822.8 599.147 822.566 599.24 822.36C599.63 821.52 608.8 801.62 613.09 798.52C620.41 793.22 629.96 786.27 629.96 786.27L630.96 787.64C630.96 787.64 621.41 794.64 614.09 799.89C610.82 802.25 603.38 817.42 600.78 823.07C600.722 823.196 600.635 823.305 600.525 823.389C600.415 823.473 600.286 823.528 600.15 823.55Z" stroke="#070707" stroke-width="6" stroke-linecap="round" stroke-linejoin="round"/>
<path d="M748.91 405.27C748.91 405.27 748.74 502.69 801.51 509.72C854.28 516.75 896.06 481.72 896.06 481.72" fill="#1C0E0C"/>
<path d="M683.65 388.8L680.8 412.35L690.75 418.16" stroke="#070707" stroke-width="6" stroke-linecap="round" stroke-linejoin="round"/>
<path d="M704.443 389.308C706.548 388.569 707.463 385.714 706.486 382.931C705.51 380.149 703.011 378.492 700.906 379.231C698.8 379.97 697.886 382.824 698.862 385.607C699.839 388.39 702.337 390.047 704.443 389.308Z" fill="#1C0E0C"/>
<path d="M668.766 398.426C670.871 397.687 671.786 394.832 670.81 392.05C669.833 389.267 667.334 387.61 665.229 388.349C663.124 389.088 662.209 391.943 663.185 394.725C664.162 397.508 666.661 399.165 668.766 398.426Z" fill="#1C0E0C"/>
<path d="M690 368.08C690 368.08 697 359.78 712 367.01" stroke="#070707" stroke-width="6" stroke-linecap="round" stroke-linejoin="round"/>
<path d="M653.14 379.7C653.14 379.7 657.06 369.58 671.54 373.89" stroke="#070707" stroke-width="6" stroke-linecap="round" stroke-linejoin="round"/>
<path d="M674.94 313.5C674.94 313.5 698.25 303.85 706.03 326.9C713.81 349.95 726.48 369.25 752.03 355.9C777.58 342.55 767.13 325 767.13 325" fill="#1C0E0C"/>
<path d="M755.38 387.84C764.575 387.84 772.03 380.386 772.03 371.19C772.03 361.994 764.575 354.54 755.38 354.54C746.184 354.54 738.729 361.994 738.729 371.19C738.729 380.386 746.184 387.84 755.38 387.84Z" fill="#C48270"/>
<path d="M749.05 381.35C749.05 381.35 747.13 374.79 748.91 368.88C749.509 366.726 750.692 364.779 752.328 363.255C753.964 361.73 755.989 360.687 758.18 360.24" stroke="#070707" stroke-width="6" stroke-linecap="round" stroke-linejoin="round"/>
<path d="M758.18 373.19L748.91 368.88" stroke="#070707" stroke-width="6" stroke-linecap="round" stroke-linejoin="round"/>
<path d="M748.05 353.5C743.3 310.12 700.13 285.28 699.66 285.12L720.45 286.54C722.96 287.39 746.92 290.72 769.25 348.25L748.05 353.5Z" fill="#EFAF00" stroke="black" stroke-width="6" stroke-linecap="round" stroke-linejoin="round"/>
<path d="M764.617 412.305C775.566 410.844 782.506 395.157 780.119 377.267C777.732 359.377 766.921 346.058 755.973 347.519C745.024 348.98 738.084 364.667 740.471 382.557C742.858 400.447 753.668 413.766 764.617 412.305Z" fill="#EFAF00" stroke="black" stroke-width="6" stroke-linecap="round" stroke-linejoin="round"/>
<path d="M771.535 411.378C782.483 409.917 789.424 394.23 787.037 376.339C784.65 358.449 773.839 345.131 762.89 346.592C751.942 348.053 745.001 363.74 747.388 381.63C749.775 399.52 760.586 412.838 771.535 411.378Z" fill="#EFAF00" stroke="black" stroke-width="6" stroke-linecap="round" stroke-linejoin="round"/>
<path d="M690.75 430.09C690.75 430.09 706.3 432.77 713.26 417.41" stroke="#070707" stroke-width="6" stroke-linecap="round" stroke-linejoin="round"/>
</svg>
