<svg width="1280" height="1696" viewBox="0 0 1280 1696" fill="none" xmlns="http://www.w3.org/2000/svg">
<path d="M728.75 1382.24C735.91 1396.24 762.52 1434.66 762.75 1453.17C762.89 1468.17 750.21 1479.83 756.75 1490.23C765.29 1503.85 870.86 1494.58 873.69 1493.95C876.52 1493.32 825.15 1468.54 811.28 1443.15C800.537 1423.4 792.786 1402.17 788.28 1380.15L728.75 1382.24Z" fill="#FCBE9F" stroke="#070707" stroke-width="6" stroke-linecap="round" stroke-linejoin="round"/>
<path d="M877.84 1495.4H754.85C752.216 1495.4 750.08 1497.54 750.08 1500.17V1500.46C750.08 1503.09 752.216 1505.23 754.85 1505.23H877.84C880.474 1505.23 882.61 1503.09 882.61 1500.46V1500.17C882.61 1497.54 880.474 1495.4 877.84 1495.4Z" fill="#F46F40" stroke="black" stroke-width="6" stroke-linecap="round" stroke-linejoin="round"/>
<path d="M807.29 1495.4L834.15 1462.51C834.15 1462.51 877.8 1478.25 877.8 1495.34L807.29 1495.4Z" fill="#F46F40" stroke="black" stroke-width="6" stroke-linecap="round" stroke-linejoin="round"/>
<path d="M802.1 1495.4C802.1 1495.4 792.46 1458.47 762.7 1455.3C762.7 1455.3 744.5 1476.12 756.54 1495.4H802.1Z" fill="#F46F40" stroke="black" stroke-width="6" stroke-linecap="round" stroke-linejoin="round"/>
<path d="M790 1388.12C779.32 1393.01 759.21 1401.36 741.34 1403.87C736.08 1394.95 731.23 1387.12 728.74 1382.25L788.25 1380.11C788.25 1380.11 788.78 1383.07 790 1388.12Z" fill="#1C0E0C"/>
<path d="M457.67 1382.24C460.82 1394.05 472.23 1434.42 468.14 1448.9C464.05 1463.38 452.56 1474.03 455.73 1488.8C459.09 1504.53 551.34 1494.58 554.18 1493.95C557.02 1493.32 505.18 1464.55 504.57 1443.15C503.96 1421.75 510.79 1382.24 510.79 1382.24H457.67Z" fill="#FCBE9F" stroke="#070707" stroke-width="6" stroke-linecap="round" stroke-linejoin="round"/>
<path d="M569.05 1495.4H454.76C452.126 1495.4 449.99 1497.54 449.99 1500.17V1500.46C449.99 1503.09 452.126 1505.23 454.76 1505.23H569.05C571.685 1505.23 573.82 1503.09 573.82 1500.46V1500.17C573.82 1497.54 571.685 1495.4 569.05 1495.4Z" fill="#F46F40" stroke="black" stroke-width="6" stroke-linecap="round" stroke-linejoin="round"/>
<path d="M487.26 1496C487.26 1496 499.26 1481.4 516.12 1477.1C534.62 1472.39 543.6 1474.9 553.58 1479.95C563.24 1484.83 568.65 1495.37 568.65 1495.37L487.26 1496Z" fill="#F46F40" stroke="black" stroke-width="6" stroke-linecap="round" stroke-linejoin="round"/>
<path d="M486.851 1495.8C486.851 1495.8 487.851 1461.57 465.241 1457.13C465.241 1457.13 443.491 1476.53 455.531 1495.8H486.851Z" fill="#F46F40" stroke="black" stroke-width="6" stroke-linecap="round" stroke-linejoin="round"/>
<path d="M457.67 1382.25H510.78C510.78 1382.25 509.47 1389.84 508.05 1400.16C488.71 1401.98 468.84 1395.57 460.37 1392.37C459.27 1388.14 458.31 1384.62 457.67 1382.25Z" fill="#1C0E0C"/>
<path d="M756.4 1113.13C724.66 846.91 705.12 760.9 695.63 740.85L562.93 756.64C562.75 756.69 562.58 756.76 562.4 756.82C500.46 758.2 455 755.37 455 755.37C455.88 786.62 444 1038.37 441.19 1070.37C439.06 1094.67 436.45 1185.25 437.8 1250.76C438.53 1286.1 430.04 1290.86 429.8 1305.76C429.33 1329.69 444.16 1337.62 439.36 1354.76C431.31 1383.43 457.68 1381.92 457.68 1381.92C457.68 1381.92 492.24 1388.78 518.44 1381.92C518.44 1381.92 520.96 1363.58 525.91 1336.07C535.4 1283.26 544.16 1196.63 554.48 1141.07C558.11 1121.53 573.31 1042.07 587.3 959.57C609.59 1037.23 631.89 1123.97 651.87 1198.85C667.29 1256.6 685.93 1291.01 684 1317.44C682.34 1340.12 705.19 1348.38 703 1362.72C700.23 1380.81 719.79 1384.47 719.79 1384.47C745.33 1393.74 797.63 1376.95 797.63 1376.95C797.63 1376.95 771.18 1237.16 756.4 1113.13Z" fill="#1C0E0C"/>
<path d="M587.65 959.44L608.09 841.94L627.29 835.56" stroke="#F4F1ED" stroke-width="6" stroke-linecap="round" stroke-linejoin="round"/>
<path d="M652.13 408.37C675.13 414.02 719.87 443.18 724.13 492.74C727.99 537.52 730.81 594.06 768.13 623.07C805.45 652.08 756.54 729.84 693.51 713.55C630.48 697.26 652.13 408.37 652.13 408.37Z" fill="#1C0E0C"/>
<path d="M724 654.94C733.74 663.31 765.49 638.73 776 624.94C784.91 613.22 791.22 590.74 791.86 586.34C792.5 581.94 789.08 563.11 789.08 563.11C789.08 563.11 781.08 560.25 779.34 573.26C777.6 586.27 765.7 606.26 760.02 606.09C747.25 605.78 770.1 591.41 770.65 586.21C771.2 581.01 768.73 579.36 768.73 579.36C768.73 579.36 746.73 591.92 743.42 594.28C740.11 596.64 729.23 610.56 725.42 620.14C721.61 629.72 718 649.72 724 654.94Z" fill="#FCBE9F" stroke="#070707" stroke-width="6" stroke-linecap="round" stroke-linejoin="round"/>
<path d="M455.7 763.91C560.84 768.14 671.87 764.42 697.75 749.27C719.29 736.68 676.51 669.08 680.08 598.27C682.19 556.52 687.84 448.1 680.08 433.94C672.32 419.78 660.52 414.47 635.7 402.54C625.13 397.46 518.1 400.18 518.1 400.18C470.45 412.69 451.9 437.81 466.63 609.6L455.7 763.91Z" fill="#F4F1ED" stroke="#070707" stroke-width="6" stroke-linecap="round" stroke-linejoin="round"/>
<path d="M554.3 538.3L561.39 886C486.86 922.7 428.86 887.51 428.86 887.51C429.78 765.76 455.42 749.66 443.73 613.45C438 546.06 400.3 499 408.78 467.8C421.94 419.46 489.88 407.8 518.84 400.2C518.84 400.2 546.12 419 554.3 538.3Z" fill="#F46F40"/>
<mask id="mask0_4_363" style="mask-type:luminance" maskUnits="userSpaceOnUse" x="407" y="400" width="155" height="503">
<path d="M554.3 538.3L561.39 886C486.86 922.7 428.86 887.51 428.86 887.51C429.78 765.76 455.42 749.66 443.73 613.45C438 546.06 400.3 499 408.78 467.8C421.94 419.46 489.88 407.8 518.84 400.2C518.84 400.2 546.12 419 554.3 538.3Z" fill="white"/>
</mask>
<g mask="url(#mask0_4_363)">
<path d="M228.45 469.61H654.91" stroke="#070707" stroke-width="6" stroke-linecap="round" stroke-linejoin="round"/>
<path d="M228.45 550.21H701.23" stroke="#070707" stroke-width="6" stroke-linecap="round" stroke-linejoin="round"/>
<path d="M189.29 630.8H701.23" stroke="#070707" stroke-width="6" stroke-linecap="round" stroke-linejoin="round"/>
<path d="M168.41 711.4H800.52" stroke="#070707" stroke-width="6" stroke-linecap="round" stroke-linejoin="round"/>
<path d="M168.41 792H800.52" stroke="#070707" stroke-width="6" stroke-linecap="round" stroke-linejoin="round"/>
<path d="M168.41 872.6H800.52" stroke="#070707" stroke-width="6" stroke-linecap="round" stroke-linejoin="round"/>
<path d="M470.98 -114.64V1417.55" stroke="#070707" stroke-width="6" stroke-linecap="round" stroke-linejoin="round"/>
<path d="M543.771 -114.64V1417.55" stroke="#070707" stroke-width="6" stroke-linecap="round" stroke-linejoin="round"/>
</g>
<path d="M554.3 538.3L561.39 886C486.86 922.7 428.86 887.51 428.86 887.51C429.78 765.76 455.42 749.66 443.73 613.45C438 546.06 400.3 499 408.78 467.8C421.94 419.46 489.88 407.8 518.84 400.2C518.84 400.2 546.12 419 554.3 538.3Z" stroke="black" stroke-width="6" stroke-linecap="round" stroke-linejoin="round"/>
<path d="M672.179 571.17L689.549 880.64C724.689 892.71 737.989 874.52 737.989 874.52C737.989 790.57 705.179 727.84 707.829 615.74C711.899 443.37 681.139 414.24 633.489 401.74C633.489 401.73 682.819 427.79 672.179 571.17Z" fill="#F46F40"/>
<mask id="mask1_4_363" style="mask-type:luminance" maskUnits="userSpaceOnUse" x="633" y="401" width="105" height="484">
<path d="M672.179 571.17L689.549 880.64C724.689 892.71 737.989 874.52 737.989 874.52C737.989 790.57 705.179 727.84 707.829 615.74C711.899 443.37 681.139 414.24 633.489 401.74C633.489 401.73 682.819 427.79 672.179 571.17Z" fill="white"/>
</mask>
<g mask="url(#mask1_4_363)">
<path d="M429.72 461.41H856.18" stroke="#070707" stroke-width="6" stroke-linecap="round" stroke-linejoin="round"/>
<path d="M429.72 542.01H902.5" stroke="#070707" stroke-width="6" stroke-linecap="round" stroke-linejoin="round"/>
<path d="M390.56 622.6H902.5" stroke="#070707" stroke-width="6" stroke-linecap="round" stroke-linejoin="round"/>
<path d="M369.68 703.2H1001.79" stroke="#070707" stroke-width="6" stroke-linecap="round" stroke-linejoin="round"/>
<path d="M369.68 783.8H1001.79" stroke="#070707" stroke-width="6" stroke-linecap="round" stroke-linejoin="round"/>
<path d="M369.68 864.39H1001.79" stroke="#070707" stroke-width="6" stroke-linecap="round" stroke-linejoin="round"/>
<path d="M672.25 -122.84V1409.35" stroke="#070707" stroke-width="6" stroke-linecap="round" stroke-linejoin="round"/>
</g>
<path d="M672.179 571.17L689.549 880.64C724.689 892.71 737.989 874.52 737.989 874.52C737.989 790.57 705.179 727.84 707.829 615.74C711.899 443.37 681.139 414.24 633.489 401.74C633.489 401.73 682.819 427.79 672.179 571.17Z" stroke="black" stroke-width="6" stroke-linecap="round" stroke-linejoin="round"/>
<path d="M653.2 655.71C650.942 659.475 648.037 662.813 644.62 665.57C608.11 695.43 497.84 737.94 444.09 725.37C444.77 717.86 445.3 710.48 445.71 703.18C508.36 705.99 616.92 680.18 648.89 659.18C650.435 658.165 651.879 657.003 653.2 655.71Z" fill="#1C0E0C"/>
<path d="M471.26 490.89C483.46 541.17 482.26 613.89 482.26 613.89C482.26 613.89 541.41 600.65 632.63 600.4C657.63 600.33 674.16 642.61 648.92 659.19C605.43 687.75 420.17 725.26 401.64 687.41C387.42 658.41 387.64 526.41 401.12 474.23C410.63 437.33 451.29 408.61 471.26 490.89Z" fill="#F46F40"/>
<mask id="mask2_4_363" style="mask-type:luminance" maskUnits="userSpaceOnUse" x="390" y="437" width="272" height="267">
<path d="M471.26 490.89C483.46 541.17 482.26 613.89 482.26 613.89C482.26 613.89 541.41 600.65 632.63 600.4C657.63 600.33 674.16 642.61 648.92 659.19C605.43 687.75 420.17 725.26 401.64 687.41C387.42 658.41 387.64 526.41 401.12 474.23C410.63 437.33 451.29 408.61 471.26 490.89Z" fill="white"/>
</mask>
<g mask="url(#mask2_4_363)">
<path d="M270.2 469.32H742.97" stroke="#070707" stroke-width="6" stroke-linecap="round" stroke-linejoin="round"/>
<path d="M231.04 549.92H742.97" stroke="#070707" stroke-width="6" stroke-linecap="round" stroke-linejoin="round"/>
<path d="M210.16 630.521H842.27" stroke="#070707" stroke-width="6" stroke-linecap="round" stroke-linejoin="round"/>
<path d="M439.93 -195.53V1336.67" stroke="#070707" stroke-width="6" stroke-linecap="round" stroke-linejoin="round"/>
<path d="M512.72 -195.53V1336.67" stroke="#070707" stroke-width="6" stroke-linecap="round" stroke-linejoin="round"/>
<path d="M585.521 -195.53V1336.67" stroke="#070707" stroke-width="6" stroke-linecap="round" stroke-linejoin="round"/>
<path d="M658.32 -195.53V1336.67" stroke="#070707" stroke-width="6" stroke-linecap="round" stroke-linejoin="round"/>
</g>
<path d="M471.26 490.89C483.46 541.17 482.26 613.89 482.26 613.89C482.26 613.89 541.41 600.65 632.63 600.4C657.63 600.33 674.16 642.61 648.92 659.19C605.43 687.75 420.17 725.26 401.64 687.41C387.42 658.41 387.64 526.41 401.12 474.23C410.63 437.33 451.29 408.61 471.26 490.89Z" stroke="black" stroke-width="6" stroke-linecap="round" stroke-linejoin="round"/>
<path d="M641.92 601.84C638.68 601.55 634.31 613.6 634.31 631.98C634.31 666.98 651.44 657.16 654.15 653.72C668.24 635.8 657.28 603.19 641.92 601.84Z" fill="#1C0E0C"/>
<path d="M772.86 611.45H730.21C729.687 611.451 729.172 611.326 728.708 611.087C728.244 610.847 727.843 610.5 727.541 610.074C727.238 609.648 727.042 609.156 726.969 608.638C726.896 608.121 726.947 607.593 727.12 607.1L755.24 526.27C755.701 524.957 756.558 523.819 757.694 523.014C758.83 522.21 760.188 521.779 761.58 521.78H800C800.728 521.78 801.446 521.953 802.093 522.287C802.74 522.62 803.298 523.104 803.72 523.697C804.142 524.291 804.416 524.976 804.518 525.697C804.621 526.418 804.549 527.153 804.31 527.84L776 609.25C775.775 609.901 775.35 610.464 774.786 610.859C774.222 611.254 773.548 611.461 772.86 611.45Z" fill="#F46F40" stroke="black" stroke-width="6" stroke-linecap="round" stroke-linejoin="round"/>
<path d="M774.38 611.45H734.78C734.258 611.451 733.743 611.326 733.278 611.087C732.814 610.847 732.414 610.5 732.111 610.074C731.808 609.648 731.612 609.156 731.539 608.638C731.466 608.121 731.518 607.593 731.69 607.1L759.81 526.27C760.271 524.957 761.128 523.819 762.264 523.014C763.4 522.21 764.758 521.779 766.15 521.78H801.49C802.218 521.779 802.936 521.952 803.583 522.286C804.23 522.62 804.788 523.104 805.209 523.697C805.63 524.291 805.903 524.977 806.004 525.698C806.105 526.419 806.032 527.154 805.79 527.84L777.47 609.25C777.248 609.893 776.831 610.45 776.277 610.844C775.723 611.238 775.06 611.45 774.38 611.45Z" fill="#EFAF00" stroke="black" stroke-width="6" stroke-linecap="round" stroke-linejoin="round"/>
<path d="M805.79 527.84L777.47 609.25C777.248 609.893 776.831 610.45 776.277 610.844C775.723 611.238 775.06 611.45 774.38 611.45H734.76C734.239 611.45 733.725 611.325 733.262 611.086C732.798 610.847 732.398 610.501 732.095 610.077C731.792 609.652 731.595 609.162 731.519 608.646C731.443 608.13 731.492 607.604 731.66 607.11L739.5 584.31C763.83 584.2 784.71 571.06 792.74 548.07L802.12 521.82C802.788 521.914 803.427 522.155 803.99 522.525C804.554 522.896 805.028 523.386 805.379 523.962C805.73 524.538 805.949 525.185 806.02 525.855C806.091 526.526 806.013 527.204 805.79 527.84Z" fill="#1C0E0C"/>
<path d="M789.07 598.74C786.88 602.04 782.19 617.17 760.23 623.07C738.27 628.97 709.65 624.23 705.12 626.07C701.88 627.42 672.73 639.07 656.42 645.58C655.009 646.138 653.494 646.381 651.98 646.29C650.465 646.2 648.989 645.78 647.655 645.058C646.321 644.337 645.161 643.332 644.256 642.114C643.352 640.897 642.725 639.496 642.42 638.01C640.55 628.79 638.18 615.35 640.49 601.79C640.49 601.79 694.49 598.67 698.27 595.79C702.05 592.91 715.03 578.09 723.53 575.97C730.53 574.21 736.64 572.97 739.09 572.56C738.75 573.63 736.98 581.42 735.29 586.25C733.48 591.44 772.35 586.55 775.89 584.66C779.43 582.77 785.67 571.66 790.89 566.51C796.11 561.36 799.68 562.99 799.68 562.99L789.07 598.74Z" fill="#FCBE9F" stroke="#070707" stroke-width="6" stroke-linecap="round" stroke-linejoin="round"/>
<path d="M561.91 333.43C553.39 327.6 524.7 289.22 535.33 251.79C545.96 214.36 561.57 198.79 584.12 201.97C584.12 201.97 601.3 190.35 634.95 210.49C667.33 229.86 660.21 237.63 660.21 264.24C660.21 293.87 651.76 287.24 646.4 298.79C641.64 309.06 644.77 363.17 619.76 356.22C592.26 348.58 561.91 333.43 561.91 333.43Z" fill="#1C0E0C"/>
<path d="M561.7 314.18C562.15 326.31 562.56 377.56 519.42 400.48C519.42 400.48 622.62 457.48 631.36 402.73C631.36 402.73 619.23 375.31 619.23 314.18H561.7Z" fill="#FCBE9F" stroke="#070707" stroke-width="6" stroke-linecap="round" stroke-linejoin="round"/>
<path d="M625.19 382.16C567.19 370.38 561.7 314.16 561.7 314.16H619.23C619.23 341.84 622.48 369.44 625.19 382.16Z" fill="#1C0E0C"/>
<path d="M624.24 356.52C583.68 363.08 559.24 310.63 559.24 310.63C550.56 305.71 564.58 292.3 567.47 292.25C572.76 295.3 581.93 293.42 590.39 276.71C595.96 265.71 592.52 256.14 598.01 250.92C599.487 249.609 601.081 248.434 602.77 247.41C606.886 244.895 611.616 243.566 616.44 243.57C652.01 243.57 653.21 274.19 653.38 286.17C653.62 303.49 647.07 352.83 624.24 356.52Z" fill="#FCBE9F" stroke="#070707" stroke-width="6" stroke-linecap="round" stroke-linejoin="round"/>
<path d="M621.386 291.171C621.572 287.99 620.011 285.311 617.899 285.188C615.788 285.065 613.925 287.544 613.739 290.725C613.554 293.906 615.115 296.585 617.227 296.708C619.338 296.831 621.201 294.352 621.386 291.171Z" fill="#1C0E0C"/>
<path d="M649.091 291.168C649.276 287.987 647.715 285.308 645.603 285.185C643.492 285.062 641.629 287.541 641.444 290.722C641.258 293.903 642.819 296.582 644.931 296.705C647.043 296.829 648.905 294.35 649.091 291.168Z" fill="#1C0E0C"/>
<path d="M635.31 289.17L642.4 307.22L636.86 314.18" fill="#FCBE9F"/>
<path d="M635.31 289.17L642.4 307.22L636.86 314.18" stroke="#070707" stroke-width="6" stroke-linecap="round" stroke-linejoin="round"/>
<path d="M571.05 315.55C580.301 315.55 587.8 308.051 587.8 298.8C587.8 289.549 580.301 282.05 571.05 282.05C561.799 282.05 554.3 289.549 554.3 298.8C554.3 308.051 561.799 315.55 571.05 315.55Z" fill="#FCBE9F"/>
<path d="M564.25 291.6C564.25 291.6 574.04 288.3 577.85 299.6Z" fill="#FCBE9F"/>
<path d="M564.25 291.6C564.25 291.6 574.04 288.3 577.85 299.6" stroke="#070707" stroke-width="6" stroke-linecap="round" stroke-linejoin="round"/>
<path d="M572.17 293.42L566.65 298.8" stroke="#070707" stroke-width="6" stroke-linecap="round" stroke-linejoin="round"/>
<path d="M608.65 276.43C608.65 276.43 613.47 269.78 622.65 274.91" stroke="#070707" stroke-width="6" stroke-linecap="round" stroke-linejoin="round"/>
<path d="M640.33 276.43C640.33 276.43 645.15 269.78 654.33 274.91" stroke="#070707" stroke-width="6" stroke-linecap="round" stroke-linejoin="round"/>
<path d="M615.64 318.19C615.64 318.19 621.32 326.67 631.36 327.83" stroke="#070707" stroke-width="6" stroke-linecap="round" stroke-linejoin="round"/>
<path d="M961.4 427.69C1030.35 427.69 1086.24 371.797 1086.24 302.85C1086.24 233.903 1030.35 178.01 961.4 178.01C892.452 178.01 836.56 233.903 836.56 302.85C836.56 371.797 892.452 427.69 961.4 427.69Z" fill="#1C0E0C"/>
<path d="M961.4 415.16C1030.35 415.16 1086.24 359.267 1086.24 290.32C1086.24 221.373 1030.35 165.48 961.4 165.48C892.452 165.48 836.56 221.373 836.56 290.32C836.56 359.267 892.452 415.16 961.4 415.16Z" fill="#F4F1ED" stroke="#070707" stroke-width="6" stroke-linecap="round" stroke-linejoin="round"/>
<path d="M988.01 356.12H916.52L928.849 255.42H1000.34L988.01 356.12Z" fill="#F4F1ED"/>
<path d="M1019.48 356.12H988.06L1000.39 255.42H1007.15L1019.48 356.12Z" fill="#FFBF00"/>
<path d="M1014.34 354.89H983.39L996.29 249.54H1001.44L1014.34 354.89Z" stroke="#070707" stroke-width="6" stroke-linecap="round" stroke-linejoin="round"/>
<path d="M996.29 249.54L983.39 354.89H909.89L922.78 249.54H996.29Z" stroke="#070707" stroke-width="6" stroke-linecap="round" stroke-linejoin="round"/>
<path d="M966.149 217.94H971.229C974.353 217.945 977.346 219.19 979.553 221.4C981.76 223.611 982.999 226.606 982.999 229.73V249.59H954.359V229.73C954.359 226.603 955.602 223.604 957.813 221.393C960.024 219.182 963.023 217.94 966.149 217.94Z" stroke="#070707" stroke-width="6" stroke-linecap="round" stroke-linejoin="round"/>
<path d="M957.77 217.94H962.85C965.977 217.94 968.976 219.182 971.187 221.393C973.398 223.604 974.64 226.603 974.64 229.73V249.59H946V229.73C946 226.603 947.242 223.604 949.453 221.393C951.664 219.182 954.663 217.94 957.79 217.94H957.77Z" stroke="#070707" stroke-width="6" stroke-linecap="round" stroke-linejoin="round"/>
<path d="M693.5 264.24C694.922 264.238 696.319 263.863 697.549 263.15C698.78 262.438 699.801 261.414 700.511 260.181C701.22 258.949 701.593 257.551 701.591 256.129C701.589 254.707 701.213 253.311 700.5 252.08C698.386 248.489 695.37 245.511 691.752 243.444C688.133 241.376 684.037 240.289 679.87 240.29H658.63C655.656 227.946 648.613 216.962 638.635 209.109C628.658 201.256 616.327 196.991 603.63 197H596.38C579.671 197 563.647 203.637 551.832 215.452C540.017 227.267 533.38 243.291 533.38 260C533.383 261.237 533.876 262.422 534.751 263.296C535.627 264.169 536.813 264.66 538.05 264.66H660.21L693.5 264.24Z" fill="#F4F1ED" stroke="#070707" stroke-width="6" stroke-linecap="round" stroke-linejoin="round"/>
<path d="M832.06 599C834.06 599.31 836.06 599.58 838 599.8" stroke="#070707" stroke-width="6" stroke-linecap="round" stroke-linejoin="round"/>
<path d="M857.37 600.52C872.924 599.954 888.254 596.636 902.65 590.72C912.49 586.66 922 581.25 929.04 573.27C936.08 565.29 940.39 554.44 938.71 543.94C937.62 537.06 933.45 530.19 926.83 528.02C918.56 525.32 909.05 531.47 906.66 539.83C904.27 548.19 908.11 557.52 914.66 563.2C921.21 568.88 930.13 571.32 938.81 571.73C961.9 572.8 985 559.49 995.66 539C1003.88 523.18 1004.32 503.72 997.59 487.27" stroke="#070707" stroke-width="6" stroke-linecap="round" stroke-linejoin="round" stroke-dasharray="11.64 19.39"/>
<path d="M993.19 478.64C992.14 476.939 991.002 475.293 989.78 473.71" stroke="#070707" stroke-width="6" stroke-linecap="round" stroke-linejoin="round"/>
<path d="M916.1 107.19L933.07 134.69" stroke="#070707" stroke-width="6" stroke-linecap="round" stroke-linejoin="round"/>
<path d="M1017.31 107.19L1000.34 134.69" stroke="#070707" stroke-width="6" stroke-linecap="round" stroke-linejoin="round"/>
<path d="M966.7 125.48V92.1699" stroke="#070707" stroke-width="6" stroke-linecap="round" stroke-linejoin="round"/>
</svg>
