<svg width="1280" height="1696" viewBox="0 0 1280 1696" fill="none" xmlns="http://www.w3.org/2000/svg">
<path d="M701.82 1474.75C701.82 1474.75 685.27 1509.18 696.63 1521.63H842.7C842.7 1521.63 841.88 1497.52 806.7 1493.72C775.12 1490.31 755.9 1474.72 755.9 1474.72L701.82 1474.75Z" fill="#1C0E0C"/>
<path d="M844.359 1521.63H694.389C693.29 1521.63 692.399 1522.52 692.399 1523.62V1528.3C692.399 1529.4 693.29 1530.29 694.389 1530.29H844.359C845.458 1530.29 846.349 1529.4 846.349 1528.3V1523.62C846.349 1522.52 845.458 1521.63 844.359 1521.63Z" fill="#1C0E0C"/>
<path d="M765.359 1492.58L770.269 1481.5C770.556 1480.85 770.971 1480.27 771.489 1479.79C772.008 1479.3 772.62 1478.93 773.287 1478.69C773.954 1478.45 774.662 1478.35 775.369 1478.4C776.076 1478.44 776.767 1478.63 777.399 1478.95C778.53 1479.52 779.414 1480.48 779.887 1481.66C780.36 1482.83 780.389 1484.14 779.969 1485.33L779.289 1487.2" stroke="#070707" stroke-width="6" stroke-linecap="round" stroke-linejoin="round"/>
<path d="M779.84 1497.72L784.59 1486.37C784.841 1485.8 785.204 1485.3 785.657 1484.87C786.111 1484.45 786.645 1484.13 787.227 1483.92C787.81 1483.71 788.428 1483.62 789.046 1483.66C789.664 1483.7 790.267 1483.86 790.82 1484.14C791.807 1484.64 792.579 1485.48 792.993 1486.51C793.406 1487.53 793.434 1488.68 793.07 1489.72L792.66 1491.29" stroke="#070707" stroke-width="6" stroke-linecap="round" stroke-linejoin="round"/>
<path d="M794.459 1502.34L797.589 1490.87C797.764 1490.28 798.058 1489.73 798.453 1489.25C798.847 1488.78 799.334 1488.39 799.884 1488.11C800.435 1487.83 801.036 1487.66 801.652 1487.62C802.269 1487.58 802.887 1487.66 803.469 1487.87C805.629 1488.62 807.049 1490.71 806.719 1493.74" stroke="#070707" stroke-width="6" stroke-linecap="round" stroke-linejoin="round"/>
<path d="M441.73 1474.75C441.73 1474.75 425.18 1509.18 436.54 1521.63H574.46C574.46 1521.63 573.64 1497.52 538.46 1493.72C506.89 1490.31 487.66 1474.72 487.66 1474.72L441.73 1474.75Z" fill="#1C0E0C"/>
<path d="M576.11 1521.63H434.3C433.201 1521.63 432.31 1522.52 432.31 1523.62V1528.3C432.31 1529.4 433.201 1530.29 434.3 1530.29H576.11C577.209 1530.29 578.1 1529.4 578.1 1528.3V1523.62C578.1 1522.52 577.209 1521.63 576.11 1521.63Z" fill="#1C0E0C"/>
<path d="M497.119 1492.58L501.999 1481.5C502.284 1480.85 502.698 1480.27 503.216 1479.79C503.734 1479.31 504.345 1478.93 505.011 1478.69C505.677 1478.46 506.385 1478.36 507.091 1478.4C507.798 1478.44 508.488 1478.63 509.119 1478.95C510.251 1479.52 511.138 1480.48 511.612 1481.65C512.087 1482.83 512.118 1484.14 511.699 1485.33L511.019 1487.2" stroke="#070707" stroke-width="6" stroke-linecap="round" stroke-linejoin="round"/>
<path d="M511.59 1497.72L516.35 1486.37C516.6 1485.81 516.962 1485.3 517.414 1484.88C517.867 1484.45 518.4 1484.13 518.982 1483.92C519.563 1483.71 520.181 1483.62 520.798 1483.66C521.415 1483.7 522.018 1483.86 522.57 1484.14C523.56 1484.64 524.335 1485.48 524.749 1486.51C525.163 1487.53 525.188 1488.68 524.82 1489.72L524.41 1491.29" stroke="#070707" stroke-width="6" stroke-linecap="round" stroke-linejoin="round"/>
<path d="M526.22 1502.34L529.34 1490.87C529.516 1490.28 529.811 1489.73 530.206 1489.26C530.6 1488.78 531.088 1488.39 531.637 1488.11C532.187 1487.83 532.788 1487.66 533.404 1487.62C534.02 1487.58 534.637 1487.67 535.22 1487.87C537.38 1488.62 538.8 1490.71 538.47 1493.74" stroke="#070707" stroke-width="6" stroke-linecap="round" stroke-linejoin="round"/>
<path d="M742.549 730.93C753.549 771.93 757.339 909.74 760.899 1112.82C763.479 1260.18 776.289 1469.94 776.289 1469.94C776.289 1469.94 742.629 1484.56 683.119 1473.2C683.119 1473.2 626.119 1285.41 646.429 1148.59C649.679 1126.67 618.869 996.84 618.869 996.84C618.869 996.84 496.209 1439.65 496.209 1475.9C496.209 1475.9 448.399 1485.1 419.989 1475.9C419.989 1475.9 377.089 1274.17 445.149 1156.68C481.799 1093.41 473.399 862 474.359 843.36C477.729 777.58 509.919 728 509.919 728L742.549 730.93Z" fill="#C5DCDD" stroke="black" stroke-width="6" stroke-linecap="round" stroke-linejoin="round"/>
<path d="M618.87 998.47C614.81 980.61 593.66 851.47 587.98 846.56C582.3 841.65 572.56 835.2 566.06 828.7" stroke="#070707" stroke-width="6" stroke-linecap="round" stroke-linejoin="round"/>
<path d="M746.37 751C661.25 796.36 532.02 774.17 501.22 743.83C503.853 738.44 506.756 733.187 509.92 728.09L742.55 730.99C744.214 737.579 745.489 744.261 746.37 751Z" fill="#1C0E0C"/>
<path d="M515.07 653.16C514.395 657.55 513.439 661.892 512.21 666.16C478.64 665.62 448.97 660.71 434.71 647.03C393.25 607.23 424.42 509.93 426.37 504.03C440.88 513.68 461.75 524.46 491.49 534.44C504.9 588.51 517.15 638.77 515.07 653.16Z" fill="#FCBE9F" stroke="#070707" stroke-width="6" stroke-linecap="round" stroke-linejoin="round"/>
<path d="M426.37 504C440.88 513.65 461.75 524.43 491.49 534.41C494.58 546.88 497.61 559.14 500.41 570.8C460.41 552.93 440.14 531.62 422.64 517.05L426.37 504Z" fill="#1C0E0C"/>
<path d="M1042.36 325.38C1040.36 322.77 1036.97 322.24 1036.29 321.16C1035.61 320.08 1035.85 317.36 1033.84 315.61C1031.83 313.86 1028.91 314.13 1027.66 313.11C1026.41 312.09 1027.26 309.11 1024.89 306.56C1022.52 304.01 1019.11 304.33 1018.35 303.56C1017.59 302.79 1030.86 279.68 1025.8 276.69C1020.74 273.7 994.899 306.47 989.799 314.15C979.299 329.98 979.189 349.85 977.799 356.97C977.693 357.046 977.596 357.133 977.509 357.23C973.449 362.1 877.669 457.07 860.629 488.72L845.449 465.72L758.369 527.36C758.369 527.36 821.669 619.36 877.669 599.89C930.669 581.46 990.929 402.38 1002.06 377.73C1020.34 374.12 1035.62 353.81 1040.61 344.55C1047.12 332.61 1044.36 328 1042.36 325.38Z" fill="#FCBE9F" stroke="#070707" stroke-width="6" stroke-linecap="round" stroke-linejoin="round"/>
<path d="M849.74 472.19C835.161 505.823 810.219 533.919 778.55 552.38C771.35 544.453 764.628 536.105 758.42 527.38L845.5 465.74L849.74 472.19Z" fill="#1C0E0C"/>
<path d="M491.49 534.42C504.9 588.51 517.15 638.77 515.07 653.16C510.69 683.35 486.42 720.54 497.8 729.22C529.67 753.52 632.54 778.77 750.8 737.22C750.8 737.22 735.65 708.66 752.03 594.59C754.46 577.73 757.64 554.26 760.89 528.45H760.95C814.1 509.76 855.3 454.26 855.3 454.26C855.3 454.26 829.5 385.66 801 362.53C783 347.93 689.74 321.77 682.13 317.33L571.47 315.86C564.09 316.49 485.06 341.53 452.57 365.46C423 387.24 395.27 474.16 395.27 474.16C395.27 474.16 410.53 507.22 491.49 534.42Z" fill="#F4F1ED" stroke="#070707" stroke-width="6" stroke-linecap="round" stroke-linejoin="round"/>
<path d="M568.149 316.49C576.969 312.37 607.809 280.66 602.939 242.37L671.519 250.17C671.519 250.17 678.369 297.76 689.719 321.77C665.657 327.851 640.907 330.785 616.089 330.5C575.169 330 568.149 316.49 568.149 316.49Z" fill="#FCBE9F" stroke="#070707" stroke-width="6" stroke-linecap="round" stroke-linejoin="round"/>
<path d="M681.1 297.88C674.2 297.08 659.51 294.07 651.72 286.88C639.04 275.18 621.23 249.32 621.06 244.59L671.52 250.17C671.52 250.17 675.76 274 681.1 297.88Z" fill="#1C0E0C"/>
<path d="M637.62 245C637.62 245 648.41 264.23 659.47 267C670.53 269.77 695.88 267.61 703.59 263C708.35 260.16 706.91 236.57 705.99 228C705.82 226.35 718.84 220.84 717.99 215.82C717.1 210.47 702.34 197.82 700.99 190.72C697.17 169.91 691.99 150.26 690.3 149.54C687.53 148.32 644.13 151.08 638.99 162.93C633.85 174.78 640.33 211.47 640.33 211.47C640.33 211.47 626.33 203.29 622.13 214.22C616 230.2 637.62 245 637.62 245Z" fill="#FCBE9F" stroke="#070707" stroke-width="6" stroke-linecap="round" stroke-linejoin="round"/>
<path d="M718.759 136.23C733.849 148.41 711.169 198.75 665.199 163.01" stroke="black" stroke-width="6" stroke-linecap="round" stroke-linejoin="round"/>
<path d="M554.39 175.1C563.25 159.29 580.67 172.51 580.67 172.51" stroke="black" stroke-width="6" stroke-linecap="round" stroke-linejoin="round"/>
<path d="M704.8 225.19C704.8 225.19 687.8 239.02 678.21 240.19C668.62 241.36 660.66 212.54 657.69 199.81C651.06 170.23 651.84 158.4 679.33 168.49C715.58 181.8 722.84 136.95 708.85 129.41C699.94 124.6 695.63 126.09 683.07 132.46C669.07 139.53 639.41 116.09 604.16 126.46C571.05 136.18 576.1 169.6 576.1 169.6C576.1 169.6 563.04 167.23 560.67 186.32C558.8 201.42 579.75 228.17 595.9 258.09C600.42 266.48 622.39 261.47 627.8 253.01C627.8 253.01 635.04 240.66 625.97 225.67C618.54 213.39 631.34 203.48 644.08 214.19C642.21 222.78 638.15 245.98 645.82 257.95C657.29 275.85 716.42 278.52 717.89 268.57C719.36 258.62 704.8 225.19 704.8 225.19Z" fill="#1C0E0C"/>
<path d="M652.139 243.65C645.509 245.488 638.42 244.617 632.432 241.228C626.444 237.839 622.047 232.211 620.209 225.58C618.371 218.95 619.243 211.861 622.631 205.873C626.02 199.885 631.649 195.488 638.279 193.65" fill="#FCBE9F"/>
<path d="M652.139 243.65C645.509 245.488 638.42 244.617 632.432 241.228C626.444 237.839 622.047 232.211 620.209 225.58C618.371 218.95 619.243 211.861 622.631 205.873C626.02 199.885 631.649 195.488 638.279 193.65" stroke="#070707" stroke-width="6" stroke-linecap="round" stroke-linejoin="round"/>
<path d="M629.39 215.62C629.39 215.62 639.74 208.89 647.5 220.79Z" fill="#FCBE9F"/>
<path d="M629.39 215.62C629.39 215.62 639.74 208.89 647.5 220.79" stroke="#070707" stroke-width="6" stroke-linecap="round" stroke-linejoin="round"/>
<path d="M641.029 214.79L635.699 225.19" stroke="#070707" stroke-width="6" stroke-linecap="round" stroke-linejoin="round"/>
<path d="M689.331 203.944C691.565 203.508 692.842 200.426 692.185 197.06C691.527 193.694 689.184 191.318 686.951 191.755C684.718 192.191 683.44 195.273 684.097 198.639C684.755 202.005 687.098 204.38 689.331 203.944Z" fill="#1C0E0C"/>
<path d="M683.429 178.122L673.918 183.26C672.159 184.211 671.504 186.407 672.454 188.166C673.404 189.925 675.601 190.58 677.36 189.63L686.87 184.492C688.629 183.542 689.285 181.345 688.335 179.586C687.384 177.827 685.188 177.172 683.429 178.122Z" fill="#1C0E0C"/>
<path d="M464.3 431.55L491.49 534.42" stroke="#070707" stroke-width="6" stroke-linecap="round" stroke-linejoin="round"/>
<path d="M799 371.25C799 371.25 740.91 374.79 732 437.76" stroke="#070707" stroke-width="6" stroke-linecap="round" stroke-linejoin="round"/>
</svg>
