<svg width="1280" height="1696" viewBox="0 0 1280 1696" fill="none" xmlns="http://www.w3.org/2000/svg">
<path d="M727.329 1481.83C732.959 1496.52 737.639 1518.37 717.919 1518.37H611.299C611.299 1518.37 610.989 1502.12 635.879 1499.95C678.029 1496.29 691.289 1462.87 691.879 1447.06C693.089 1361.88 659.879 1101.98 654.349 1051.7C690.278 1050.59 726.041 1046.34 761.229 1039C743.169 1100.18 782.059 1150.38 785.089 1211.9C788.089 1273.26 739.199 1409.24 725.039 1455.76C723.899 1464 724.799 1475.2 727.329 1481.83Z" fill="#FCBE9F" stroke="#070707" stroke-width="6" stroke-linecap="round" stroke-linejoin="round"/>
<path d="M727.329 1481.83C727.329 1481.83 743.639 1518.37 719.929 1518.37H609.659C609.659 1518.37 605.229 1504.55 633.869 1499.96C637.869 1499.32 649.239 1497.13 649.239 1497.13C649.239 1497.13 645.699 1507.35 670.909 1506.24C696.119 1505.13 707.469 1483.63 727.329 1481.83Z" fill="#F46F40" stroke="black" stroke-width="6" stroke-linecap="round" stroke-linejoin="round"/>
<path d="M758.179 1052C724.936 1061.3 690.871 1067.37 656.459 1070.11L654.329 1051.7C690.265 1050.59 726.035 1046.34 761.229 1039L758.179 1052Z" fill="#1C0E0C"/>
<path d="M440.66 1016.68C476.128 1030.44 513.024 1040.2 550.66 1045.77L518 1099.06C518 1109.61 564.43 1158.46 577.19 1202.06C592.61 1254.82 578 1401.72 582.87 1425.26C585.92 1439.97 570.63 1470.59 555.69 1484.76C546.69 1493.26 535.26 1490.1 535.26 1490.1C535.26 1490.1 559.43 1441.76 547.97 1404.16C505.73 1265.44 422.97 1107.16 422.97 1085.16C422.97 1073.28 429.06 1050.78 438.12 1023.91L440.66 1016.68Z" fill="#FCBE9F" stroke="#070707" stroke-width="6" stroke-linecap="round" stroke-linejoin="round"/>
<path d="M581.26 1427.76C587.5 1424.38 608.85 1443.25 607.76 1453.76L556.14 1517.61H503.21C503.21 1517.61 497.77 1495.61 535.28 1490.2C572.79 1484.79 557.09 1440.83 581.26 1427.76Z" fill="#F46F40" stroke="black" stroke-width="6" stroke-linecap="round" stroke-linejoin="round"/>
<path d="M440.66 1016.68C476.128 1030.44 513.024 1040.2 550.66 1045.77L538.59 1065.65C504.86 1058.51 470.76 1043.72 438.2 1024.01L440.66 1016.68Z" fill="#1C0E0C"/>
<path d="M802 1028.45C802 1028.45 620.24 1090.13 433.58 1013.85C433.58 1013.85 569.93 710.32 581.29 687.59C592.65 664.86 591.85 628.35 591.85 628.35C591.85 628.35 586.15 569.95 569.11 550.47C552.07 530.99 542.34 509.08 551.27 481.47C560.2 453.86 570.71 399.47 570.71 399.47L608.07 387.29L739.81 384.85C739.81 384.85 756.11 403.85 752.6 439.56C749.55 470.56 710.7 557.88 744.42 628.32C759.84 653.47 814.1 698.8 820.67 778.08C829.12 880.38 802 1028.45 802 1028.45Z" fill="#F46F40" stroke="black" stroke-width="6" stroke-linecap="round" stroke-linejoin="round"/>
<path d="M597.74 429.69C597.02 401.91 575.31 385.41 553.36 412.87C537.82 432.29 497.74 500.81 474.82 544.66C452.26 510.45 402.22 451.17 374.37 425.08C375.31 413.56 369.75 381.7 366.37 379.32C362.63 376.69 345 351 345 351C345 351 338.52 354.48 344.52 365.13C351.52 377.49 349.98 381.41 349.98 381.41C349.98 381.41 342.11 382.7 341.16 387.89C340.21 393.08 334.08 389.43 331.27 397.31C329.63 401.92 325.88 403.71 326.93 408.31C327.93 412.62 349.31 430.59 360.31 433.7C375.54 479.36 422.89 583.86 467.42 611.52C477.04 615.94 493.1 610.99 513.69 586.52C599.58 484.52 598.34 453.12 597.74 429.69Z" fill="#FCBE9F" stroke="#070707" stroke-width="6" stroke-linecap="round" stroke-linejoin="round"/>
<path d="M698 282.53C697.19 303.64 694.09 336.3 744.29 392.91C771.21 423.26 689.29 432.03 645.42 409.09C615.26 393.33 608.01 387.32 608.01 387.32C608.01 387.32 636.37 384.79 647.41 356.32C655.03 336.67 647.41 314.37 643.64 282.51L698 282.53Z" fill="#FCBE9F" stroke="#070707" stroke-width="6" stroke-linecap="round" stroke-linejoin="round"/>
<path d="M685.12 286.64C685.42 289.34 679.86 338.28 650.27 347.25C653.13 331.65 646.09 305.25 644.5 286.61L685.12 286.64Z" fill="#1C0E0C"/>
<path d="M726.54 289.34C733.3 321.82 829.34 312.93 835.77 392.69" stroke="#070707" stroke-width="4" stroke-linecap="round" stroke-linejoin="round"/>
<path d="M733.51 451.06C698 434.78 648.38 386.32 697.35 312C691.74 309.91 685.83 306 684.01 298.87C680.24 284.06 629.49 266.64 627.17 235.59C626.4 225.17 634.25 200.05 687.57 202.95C740.65 205.83 745.47 269.64 728.57 288.86L728.49 288.95C735.96 325.18 837.74 325.38 823.17 414.72C819.08 439.6 781 472.78 733.51 451.06Z" fill="#1C0E0C"/>
<path d="M681.75 298.6C681.62 301.29 676.56 318.83 640.85 327.22C634.36 328.74 617.27 329.22 616.85 325.22C616.37 320.52 613.49 301.95 613.23 292.02C613.14 288.97 603.07 282.1 604.91 279.88C610.56 273.06 620.55 265.24 620.78 262.42C622.44 241.3 630.36 229.53 638.13 229.95C642.58 230.19 636.93 269.37 681.76 282.18C681.76 282.18 694.5 275.57 696.4 282.55C698.3 289.53 681.75 298.6 681.75 298.6Z" fill="#FCBE9F" stroke="#070707" stroke-width="6" stroke-linecap="round" stroke-linejoin="round"/>
<path d="M682.75 296.53C690.841 296.53 697.4 289.971 697.4 281.88C697.4 273.789 690.841 267.23 682.75 267.23C674.659 267.23 668.1 273.789 668.1 281.88C668.1 289.971 674.659 296.53 682.75 296.53Z" fill="#FCBE9F"/>
<path d="M677.18 290.82C677.18 290.82 675.49 285.05 677.06 279.82C677.586 277.923 678.627 276.208 680.067 274.865C681.507 273.522 683.29 272.603 685.22 272.21" stroke="#070707" stroke-width="4" stroke-linecap="round" stroke-linejoin="round"/>
<path d="M685.22 283.63L677.06 279.85" stroke="#070707" stroke-width="4" stroke-linecap="round" stroke-linejoin="round"/>
<path d="M693.64 305.11C697.401 305.11 700.45 302.061 700.45 298.3C700.45 294.539 697.401 291.49 693.64 291.49C689.879 291.49 686.83 294.539 686.83 298.3C686.83 302.061 689.879 305.11 693.64 305.11Z" fill="#F7F3EF" stroke="#070707" stroke-width="4" stroke-linecap="round" stroke-linejoin="round"/>
<path d="M628.649 268.61C630.488 268.61 631.979 266.425 631.979 263.73C631.979 261.035 630.488 258.85 628.649 258.85C626.81 258.85 625.319 261.035 625.319 263.73C625.319 266.425 626.81 268.61 628.649 268.61Z" fill="#1C0E0C"/>
<path d="M616.899 298.3C616.899 298.3 624.439 298.97 628.649 293.88" stroke="#070707" stroke-width="4" stroke-linecap="round" stroke-linejoin="round"/>
</svg>
