<svg width="466" height="464" viewBox="0 0 466 464" fill="none" xmlns="http://www.w3.org/2000/svg">
<path d="M319.561 146.27H167.251C157.525 146.27 149.641 154.154 149.641 163.88V316.19C149.641 325.916 157.525 333.8 167.251 333.8H319.561C329.286 333.8 337.171 325.916 337.171 316.19V163.88C337.171 154.154 329.286 146.27 319.561 146.27Z" fill="#EFAF00" stroke="black" stroke-width="6" stroke-linecap="round" stroke-linejoin="round"/>
<path d="M298.58 129.59H146.27C136.544 129.59 128.66 137.474 128.66 147.2V299.51C128.66 309.236 136.544 317.12 146.27 317.12H298.58C308.306 317.12 316.19 309.236 316.19 299.51V147.2C316.19 137.474 308.306 129.59 298.58 129.59Z" fill="#F4F1ED" stroke="#070707" stroke-width="6" stroke-linecap="round" stroke-linejoin="round"/>
<path d="M201.21 252.05H264.58L277.28 211H188.57L201.21 252.05Z" fill="#C5DCDD"/>
<path d="M156.75 192.27H170.15C172.148 192.269 174.093 192.909 175.7 194.095C177.307 195.281 178.492 196.951 179.08 198.86L195.08 250.5H259.61L262.79 263.42C263.03 264.388 263.046 265.398 262.838 266.374C262.629 267.349 262.201 268.264 261.586 269.05C260.971 269.835 260.186 270.47 259.289 270.907C258.392 271.344 257.407 271.57 256.41 271.57H197.74" stroke="#070707" stroke-width="6" stroke-linecap="round" stroke-linejoin="round"/>
<path d="M195 250.5H259.38L272.71 207.38H181.72L195 250.5Z" stroke="#070707" stroke-width="6" stroke-linecap="round" stroke-linejoin="round"/>
<path d="M235.71 250.5L249.04 207.38" stroke="#070707" stroke-width="6" stroke-linecap="round" stroke-linejoin="round"/>
<path d="M221.33 250.5L208 207.38" stroke="#070707" stroke-width="6" stroke-linecap="round" stroke-linejoin="round"/>
<path d="M187.95 227.53H266.48" stroke="#070707" stroke-width="6" stroke-linecap="round" stroke-linejoin="round"/>
<path d="M205.33 289.57C208.926 289.57 211.84 286.655 211.84 283.06C211.84 279.464 208.926 276.55 205.33 276.55C201.735 276.55 198.82 279.464 198.82 283.06C198.82 286.655 201.735 289.57 205.33 289.57Z" stroke="#070707" stroke-width="6" stroke-linecap="round" stroke-linejoin="round"/>
<path d="M252.67 289.57C256.266 289.57 259.18 286.655 259.18 283.06C259.18 279.464 256.266 276.55 252.67 276.55C249.075 276.55 246.16 279.464 246.16 283.06C246.16 286.655 249.075 289.57 252.67 289.57Z" stroke="#070707" stroke-width="6" stroke-linecap="round" stroke-linejoin="round"/>
<path d="M227.09 158.07V191.4" stroke="#070707" stroke-width="6" stroke-linecap="round" stroke-linejoin="round"/>
<path d="M210.82 177.02L226.93 193.13L242.2 177.87" stroke="#070707" stroke-width="6" stroke-linecap="round" stroke-linejoin="round"/>
</svg>
