<svg width="2624" height="1696" viewBox="0 0 2624 1696" fill="none" xmlns="http://www.w3.org/2000/svg">
<path d="M2040.59 181.98H518.99C502.969 181.98 489.98 194.968 489.98 210.99V1368.28C489.98 1384.3 502.969 1397.29 518.99 1397.29H2040.59C2056.61 1397.29 2069.6 1384.3 2069.6 1368.28V210.99C2069.6 194.968 2056.61 181.98 2040.59 181.98Z" fill="#F4F1ED" stroke="#070707" stroke-width="6" stroke-linecap="round" stroke-linejoin="round"/>
<path d="M489.98 273.04H2069.6" stroke="#070707" stroke-width="6" stroke-linecap="round" stroke-linejoin="round"/>
<path d="M687.01 219.48H673.38C668.851 219.48 665.18 223.151 665.18 227.68V241.31C665.18 245.839 668.851 249.51 673.38 249.51H687.01C691.538 249.51 695.21 245.839 695.21 241.31V227.68C695.21 223.151 691.538 219.48 687.01 219.48Z" fill="#1C0E0C"/>
<path d="M635.791 219.48H622.161C617.632 219.48 613.961 223.151 613.961 227.68V241.31C613.961 245.839 617.632 249.51 622.161 249.51H635.791C640.32 249.51 643.991 245.839 643.991 241.31V227.68C643.991 223.151 640.32 219.48 635.791 219.48Z" fill="#1C0E0C"/>
<path d="M584.56 219.48H570.93C566.402 219.48 562.73 223.151 562.73 227.68V241.31C562.73 245.839 566.402 249.51 570.93 249.51H584.56C589.089 249.51 592.76 245.839 592.76 241.31V227.68C592.76 223.151 589.089 219.48 584.56 219.48Z" fill="#1C0E0C"/>
<path d="M680.82 213.98H667.19C662.662 213.98 658.99 217.651 658.99 222.18V235.81C658.99 240.339 662.662 244.01 667.19 244.01H680.82C685.349 244.01 689.02 240.339 689.02 235.81V222.18C689.02 217.651 685.349 213.98 680.82 213.98Z" fill="#C5DCDD" stroke="black" stroke-width="6" stroke-linecap="round" stroke-linejoin="round"/>
<path d="M629.59 213.98H615.96C611.431 213.98 607.76 217.651 607.76 222.18V235.81C607.76 240.339 611.431 244.01 615.96 244.01H629.59C634.119 244.01 637.79 240.339 637.79 235.81V222.18C637.79 217.651 634.119 213.98 629.59 213.98Z" fill="#FFBF00" stroke="black" stroke-width="6" stroke-linecap="round" stroke-linejoin="round"/>
<path d="M578.371 213.98H564.741C560.212 213.98 556.541 217.651 556.541 222.18V235.81C556.541 240.339 560.212 244.01 564.741 244.01H578.371C582.9 244.01 586.571 240.339 586.571 235.81V222.18C586.571 217.651 582.9 213.98 578.371 213.98Z" fill="#F46F40" stroke="black" stroke-width="6" stroke-linecap="round" stroke-linejoin="round"/>
<path d="M334.49 1286.23C340.349 1280.39 348.281 1277.12 356.55 1277.12C364.819 1277.12 372.751 1280.39 378.61 1286.23C384.469 1292.07 392.401 1295.34 400.67 1295.34C408.939 1295.34 416.871 1292.07 422.73 1286.23L426 1283C431.859 1277.16 439.791 1273.89 448.06 1273.89C456.329 1273.89 464.261 1277.16 470.12 1283L474.93 1287.79C480.789 1293.63 488.721 1296.9 496.99 1296.9C505.259 1296.9 513.191 1293.63 519.05 1287.79L523.05 1283.79C528.912 1277.96 536.843 1274.69 545.11 1274.69C553.378 1274.69 561.309 1277.96 567.17 1283.79" stroke="#070707" stroke-width="6" stroke-linecap="round" stroke-linejoin="round"/>
<path d="M523 1284C528.859 1278.16 536.791 1274.89 545.06 1274.89C553.329 1274.89 561.261 1278.16 567.12 1284L571.61 1288.47C577.469 1294.31 585.401 1297.58 593.67 1297.58C601.939 1297.58 609.871 1294.31 615.73 1288.47L618.46 1285.75C624.319 1279.91 632.251 1276.64 640.52 1276.64C648.789 1276.64 656.721 1279.91 662.58 1285.75C668.439 1291.59 676.371 1294.86 684.64 1294.86C692.909 1294.86 700.841 1291.59 706.7 1285.75L709.93 1282.53C715.789 1276.69 723.721 1273.42 731.99 1273.42C740.259 1273.42 748.191 1276.69 754.05 1282.53L758.86 1287.32C764.719 1293.16 772.651 1296.43 780.92 1296.43C789.189 1296.43 797.121 1293.16 802.98 1287.32L806.98 1283.32C812.841 1277.49 820.773 1274.22 829.04 1274.22C837.307 1274.22 845.239 1277.49 851.1 1283.32" stroke="#070707" stroke-width="6" stroke-linecap="round" stroke-linejoin="round"/>
<path d="M334.49 1310.4C340.349 1304.56 348.281 1301.29 356.55 1301.29C364.819 1301.29 372.751 1304.56 378.61 1310.4C384.472 1316.23 392.403 1319.5 400.67 1319.5C408.938 1319.5 416.869 1316.23 422.73 1310.4L425.96 1307.17C431.822 1301.34 439.753 1298.07 448.02 1298.07C456.288 1298.07 464.219 1301.34 470.08 1307.17L474.89 1311.97C480.749 1317.81 488.681 1321.08 496.95 1321.08C505.219 1321.08 513.151 1317.81 519.01 1311.97L523.01 1307.97C528.872 1302.14 536.803 1298.87 545.07 1298.87C553.338 1298.87 561.269 1302.14 567.13 1307.97" stroke="#070707" stroke-width="6" stroke-linecap="round" stroke-linejoin="round"/>
<path d="M523 1308.13C528.859 1302.29 536.791 1299.02 545.06 1299.02C553.329 1299.02 561.261 1302.29 567.12 1308.13L571.61 1312.6C577.469 1318.44 585.401 1321.71 593.67 1321.71C601.939 1321.71 609.871 1318.44 615.73 1312.6L618.46 1309.88C624.319 1304.04 632.251 1300.77 640.52 1300.77C648.789 1300.77 656.721 1304.04 662.58 1309.88C668.441 1315.71 676.373 1318.98 684.64 1318.98C692.907 1318.98 700.839 1315.71 706.7 1309.88L709.93 1306.65C715.791 1300.82 723.723 1297.55 731.99 1297.55C740.257 1297.55 748.189 1300.82 754.05 1306.65L758.86 1311.45C764.719 1317.29 772.651 1320.56 780.92 1320.56C789.189 1320.56 797.121 1317.29 802.98 1311.45L806.98 1307.45C812.841 1301.62 820.773 1298.35 829.04 1298.35C837.307 1298.35 845.239 1301.62 851.1 1307.45" stroke="#070707" stroke-width="6" stroke-linecap="round" stroke-linejoin="round"/>
<path d="M1659.31 422.78C1665.96 422.78 1671.36 417.385 1671.36 410.73C1671.36 404.075 1665.96 398.68 1659.31 398.68C1652.65 398.68 1647.26 404.075 1647.26 410.73C1647.26 417.385 1652.65 422.78 1659.31 422.78Z" stroke="#070707" stroke-width="6" stroke-linecap="round" stroke-linejoin="round"/>
<path d="M1610.91 386.19C1620.41 386.19 1628.12 378.485 1628.12 368.98C1628.12 359.475 1620.41 351.77 1610.91 351.77C1601.4 351.77 1593.7 359.475 1593.7 368.98C1593.7 378.485 1601.4 386.19 1610.91 386.19Z" fill="#EFAF00" stroke="black" stroke-width="6" stroke-linecap="round" stroke-linejoin="round"/>
<path d="M1825.52 794.59C1890.25 794.59 1942.73 742.113 1942.73 677.38C1942.73 612.647 1890.25 560.17 1825.52 560.17C1760.79 560.17 1708.31 612.647 1708.31 677.38C1708.31 742.113 1760.79 794.59 1825.52 794.59Z" fill="#1C0E0C"/>
<path d="M1825.52 782.81C1890.25 782.81 1942.73 730.333 1942.73 665.6C1942.73 600.867 1890.25 548.39 1825.52 548.39C1760.79 548.39 1708.31 600.867 1708.31 665.6C1708.31 730.333 1760.79 782.81 1825.52 782.81Z" fill="#F4F1ED" stroke="#070707" stroke-width="6" stroke-linecap="round" stroke-linejoin="round"/>
<path d="M1847.42 730.47H1780.3L1791.87 635.93H1858.99L1847.42 730.47Z" fill="#F4F1ED"/>
<path d="M1876.96 730.47H1847.46L1859.04 635.93H1865.39L1876.96 730.47Z" fill="#FFBF00"/>
<path d="M1872.13 729.32H1843.08L1855.19 630.41H1860.03L1872.13 729.32Z" stroke="#070707" stroke-width="6" stroke-linecap="round" stroke-linejoin="round"/>
<path d="M1855.19 630.41L1843.08 729.32H1774.07L1786.17 630.41H1855.19Z" stroke="#070707" stroke-width="6" stroke-linecap="round" stroke-linejoin="round"/>
<path d="M1826.89 600.74H1831.66C1833.11 600.74 1834.55 601.027 1835.9 601.583C1837.24 602.139 1838.46 602.955 1839.49 603.983C1840.52 605.01 1841.33 606.231 1841.89 607.574C1842.44 608.917 1842.73 610.357 1842.73 611.81V630.46H1815.82V611.81C1815.82 608.874 1816.99 606.059 1819.06 603.983C1821.14 601.907 1823.95 600.74 1826.89 600.74Z" stroke="#070707" stroke-width="6" stroke-linecap="round" stroke-linejoin="round"/>
<path d="M1819 600.74H1823.77C1825.22 600.74 1826.66 601.027 1828.01 601.583C1829.35 602.139 1830.57 602.955 1831.6 603.983C1832.63 605.01 1833.44 606.231 1834 607.574C1834.55 608.917 1834.84 610.357 1834.84 611.81V630.46H1808V611.81C1808 608.886 1809.16 606.081 1811.22 604.007C1813.28 601.933 1816.08 600.759 1819 600.74Z" stroke="#070707" stroke-width="6" stroke-linecap="round" stroke-linejoin="round"/>
<path d="M1262 1273.38C1259.9 1273.34 1257.8 1273.72 1255.84 1274.49C1253.89 1275.26 1252.1 1276.41 1250.58 1277.88C1249.07 1279.34 1247.86 1281.09 1247.03 1283.02C1246.19 1284.96 1245.74 1287.03 1245.71 1289.14V1421C1245.71 1447.48 1267.9 1468.94 1295.27 1468.94H1378.83C1395.1 1468.94 1408.29 1481.7 1408.29 1497.44" stroke="#070707" stroke-width="6" stroke-linecap="round" stroke-linejoin="round"/>
<path d="M1211 1273.38C1213.11 1273.34 1215.2 1273.72 1217.16 1274.49C1219.12 1275.26 1220.9 1276.41 1222.42 1277.88C1223.93 1279.34 1225.14 1281.09 1225.98 1283.02C1226.81 1284.96 1227.26 1287.03 1227.29 1289.14V1421C1227.29 1447.48 1205.1 1468.94 1177.73 1468.94H1094.17C1077.9 1468.94 1064.71 1481.7 1064.71 1497.44" stroke="#070707" stroke-width="6" stroke-linecap="round" stroke-linejoin="round"/>
<path d="M1236.52 1260.28C1454.07 1260.28 1630.42 1093.44 1630.42 887.64C1630.42 681.837 1454.07 515 1236.52 515C1018.98 515 842.621 681.837 842.621 887.64C842.621 1093.44 1018.98 1260.28 1236.52 1260.28Z" fill="#F4F1ED" stroke="#070707" stroke-width="6" stroke-linecap="round" stroke-linejoin="round"/>
<path d="M1236.52 1193.73C1429.3 1193.73 1585.58 1045.88 1585.58 863.5C1585.58 681.119 1429.3 533.27 1236.52 533.27C1043.74 533.27 887.461 681.119 887.461 863.5C887.461 1045.88 1043.74 1193.73 1236.52 1193.73Z" fill="#EAE5DF"/>
<path d="M1475.44 1064.91C1478.73 1065.4 1481.81 1066.8 1484.34 1068.96C1486.88 1071.12 1488.75 1073.94 1489.76 1077.11C1490.76 1080.28 1490.86 1083.66 1490.04 1086.89C1489.21 1090.11 1487.5 1093.03 1485.1 1095.33C1421.8 1156.07 1333.81 1193.72 1236.52 1193.72C1139.41 1193.72 1051.52 1156.2 988.271 1095.65C985.869 1093.35 984.159 1090.43 983.335 1087.21C982.511 1083.99 982.605 1080.6 983.608 1077.44C984.611 1074.27 986.481 1071.44 989.008 1069.28C991.534 1067.12 994.615 1065.72 997.901 1065.22C1071.28 1054.15 1152.39 1048.01 1237.68 1048.01C1322.19 1048 1402.59 1054 1475.44 1064.91Z" fill="#FFFBF8" stroke="#070707" stroke-width="6" stroke-linecap="round" stroke-linejoin="round"/>
<path d="M1065.23 1557.71C1081.88 1557.71 1095.38 1544.21 1095.38 1527.56C1095.38 1510.91 1081.88 1497.41 1065.23 1497.41C1048.58 1497.41 1035.08 1510.91 1035.08 1527.56C1035.08 1544.21 1048.58 1557.71 1065.23 1557.71Z" stroke="#070707" stroke-width="6" stroke-linecap="round" stroke-linejoin="round"/>
<path d="M1238 1557.71C1254.65 1557.71 1268.15 1544.21 1268.15 1527.56C1268.15 1510.91 1254.65 1497.41 1238 1497.41C1221.35 1497.41 1207.85 1510.91 1207.85 1527.56C1207.85 1544.21 1221.35 1557.71 1238 1557.71Z" stroke="#070707" stroke-width="6" stroke-linecap="round" stroke-linejoin="round"/>
<path d="M1408.71 1557.71C1425.36 1557.71 1438.86 1544.21 1438.86 1527.56C1438.86 1510.91 1425.36 1497.41 1408.71 1497.41C1392.06 1497.41 1378.56 1510.91 1378.56 1527.56C1378.56 1544.21 1392.06 1557.71 1408.71 1557.71Z" stroke="#070707" stroke-width="6" stroke-linecap="round" stroke-linejoin="round"/>
<path d="M1940.29 1016.62C1898.44 1079.97 1819.59 1114.62 1784.76 1094.99C1751.08 1075.99 1748.14 982.72 1789.99 919.37C1831.84 856.02 1901.78 826.43 1942.44 853.28C1983.1 880.13 1982.13 953.26 1940.29 1016.62Z" fill="#EFAF00" stroke="black" stroke-width="6" stroke-linecap="round" stroke-linejoin="round"/>
<path d="M1789.41 1308.42C1789.41 1308.42 1747.26 966.53 1942.13 854.83" stroke="#070707" stroke-width="6" stroke-linecap="round" stroke-linejoin="round"/>
<path d="M1969.73 931.13L1853.04 943.04" stroke="#070707" stroke-width="6" stroke-linecap="round" stroke-linejoin="round"/>
<path d="M1968.14 943.45L1845.66 955.94" stroke="#070707" stroke-width="6" stroke-linecap="round" stroke-linejoin="round"/>
<path d="M1791.36 920.06L1821.02 1007.69" stroke="#070707" stroke-width="6" stroke-linecap="round" stroke-linejoin="round"/>
<path d="M2095 1191.25C2082.06 1224.63 2025.37 1233.78 1968.37 1211.69C1911.37 1189.6 1889.37 1145.69 1891.88 1131.12C1895.02 1112.74 1962.29 1081.34 2015.22 1090.81C2075.37 1101.57 2107.91 1157.87 2095 1191.25Z" fill="#EFAF00" stroke="black" stroke-width="6" stroke-linecap="round" stroke-linejoin="round"/>
<path d="M1754.55 1308.42C1754.55 1308.42 1749.44 1158.24 1908.04 1127.42C1994.87 1110.54 2062.04 1154.19 2092.84 1191.19" stroke="#070707" stroke-width="6" stroke-linecap="round" stroke-linejoin="round"/>
<path d="M1994.72 1129.77L2048.88 1104.95" stroke="#070707" stroke-width="6" stroke-linecap="round" stroke-linejoin="round"/>
<path d="M2008.24 1134.07L2058.67 1110.47" stroke="#070707" stroke-width="6" stroke-linecap="round" stroke-linejoin="round"/>
<path d="M1972.31 1125.41L1993.42 1217.38" stroke="#070707" stroke-width="6" stroke-linecap="round" stroke-linejoin="round"/>
<path d="M1722.77 1085.29C1748.51 1124.14 1744.47 1179.15 1723.55 1191.95C1710.86 1199.71 1657.49 1185.67 1631.76 1146.83C1606.03 1107.99 1606.11 1061.37 1631.04 1044.83C1655.97 1028.29 1697 1046.44 1722.77 1085.29Z" fill="#EFAF00" stroke="black" stroke-width="6" stroke-linecap="round" stroke-linejoin="round"/>
<path d="M1735.59 1308.42C1735.59 1308.42 1750.02 1114.2 1631.79 1046.89" stroke="#070707" stroke-width="6" stroke-linecap="round" stroke-linejoin="round"/>
<path d="M1615.33 1103.58H1689.94" stroke="#070707" stroke-width="6" stroke-linecap="round" stroke-linejoin="round"/>
<path d="M1619.09 1116.48H1697.31" stroke="#070707" stroke-width="6" stroke-linecap="round" stroke-linejoin="round"/>
<path d="M1724.54 1090.65L1711.14 1144.15" stroke="#070707" stroke-width="6" stroke-linecap="round" stroke-linejoin="round"/>
<path d="M1870.13 1341.58V1476.65C1870.13 1481.01 1869.28 1485.32 1867.61 1489.35C1865.95 1493.37 1863.5 1497.03 1860.42 1500.11C1857.34 1503.19 1853.68 1505.63 1849.66 1507.3C1845.63 1508.96 1841.32 1509.82 1836.96 1509.81H1701.9C1697.54 1509.81 1693.23 1508.96 1689.21 1507.29C1685.18 1505.63 1681.52 1503.18 1678.44 1500.1C1675.36 1497.02 1672.92 1493.37 1671.25 1489.34C1669.59 1485.32 1668.73 1481.01 1668.73 1476.65V1341.58C1668.73 1332.78 1672.23 1324.35 1678.45 1318.13C1684.67 1311.91 1693.11 1308.42 1701.9 1308.42H1837C1841.36 1308.42 1845.67 1309.28 1849.69 1310.94C1853.72 1312.61 1857.37 1315.05 1860.45 1318.13C1863.53 1321.21 1865.98 1324.86 1867.65 1328.89C1869.31 1332.91 1870.17 1337.22 1870.17 1341.58H1870.13Z" fill="#F4F1ED" stroke="#070707" stroke-width="6" stroke-linecap="round" stroke-linejoin="round"/>
<path d="M1838 1308.42H1700.85C1683.11 1308.42 1668.73 1322.8 1668.73 1340.54V1477.69C1668.73 1495.43 1683.11 1509.81 1700.85 1509.81H1838C1855.74 1509.81 1870.12 1495.43 1870.12 1477.69V1340.54C1870.12 1322.8 1855.74 1308.42 1838 1308.42Z" stroke="#FFC3D5" stroke-width="6" stroke-miterlimit="10"/>
<path d="M1870.13 1341.58V1476.65C1870.13 1481.01 1869.28 1485.32 1867.61 1489.35C1865.95 1493.37 1863.5 1497.03 1860.42 1500.11C1857.34 1503.19 1853.68 1505.63 1849.66 1507.3C1845.63 1508.96 1841.32 1509.82 1836.96 1509.81H1701.9C1697.54 1509.81 1693.23 1508.96 1689.21 1507.29C1685.18 1505.63 1681.52 1503.18 1678.44 1500.1C1675.36 1497.02 1672.92 1493.37 1671.25 1489.34C1669.59 1485.32 1668.73 1481.01 1668.73 1476.65V1341.58C1668.73 1332.78 1672.23 1324.35 1678.45 1318.13C1684.67 1311.91 1693.11 1308.42 1701.9 1308.42H1837C1841.36 1308.42 1845.67 1309.28 1849.69 1310.94C1853.72 1312.61 1857.37 1315.05 1860.45 1318.13C1863.53 1321.21 1865.98 1324.86 1867.65 1328.89C1869.31 1332.91 1870.17 1337.22 1870.17 1341.58H1870.13Z" stroke="#070707" stroke-width="6" stroke-linecap="round" stroke-linejoin="round"/>
<path d="M1391.13 967.294V967.96H1388.37V967.294H1391.13ZM1389.2 972.41V966.588C1389.2 966.295 1389.27 966.05 1389.4 965.855C1389.54 965.659 1389.72 965.513 1389.94 965.415C1390.16 965.317 1390.39 965.269 1390.64 965.269C1390.83 965.269 1390.99 965.284 1391.11 965.315C1391.23 965.346 1391.32 965.375 1391.38 965.402L1391.16 966.081C1391.12 966.068 1391.06 966.051 1390.99 966.031C1390.92 966.011 1390.83 966.001 1390.72 966.001C1390.46 966.001 1390.27 966.067 1390.15 966.198C1390.04 966.329 1389.98 966.521 1389.98 966.774V972.41H1389.2ZM1393.59 972.53C1393.27 972.53 1392.97 972.469 1392.71 972.347C1392.44 972.223 1392.23 972.044 1392.08 971.811C1391.92 971.575 1391.84 971.291 1391.84 970.958C1391.84 970.665 1391.9 970.427 1392.02 970.245C1392.13 970.061 1392.29 969.916 1392.48 969.812C1392.67 969.708 1392.89 969.63 1393.12 969.579C1393.36 969.526 1393.59 969.483 1393.83 969.452C1394.14 969.412 1394.39 969.382 1394.59 969.362C1394.78 969.34 1394.92 969.303 1395.01 969.252C1395.1 969.201 1395.15 969.112 1395.15 968.986V968.959C1395.15 968.631 1395.06 968.375 1394.88 968.193C1394.7 968.011 1394.43 967.92 1394.07 967.92C1393.69 967.92 1393.4 968.002 1393.19 968.167C1392.97 968.331 1392.82 968.506 1392.74 968.693L1391.99 968.426C1392.12 968.115 1392.3 967.873 1392.52 967.7C1392.75 967.525 1392.99 967.403 1393.26 967.334C1393.52 967.263 1393.78 967.227 1394.04 967.227C1394.21 967.227 1394.4 967.247 1394.61 967.287C1394.82 967.325 1395.03 967.404 1395.23 967.524C1395.43 967.644 1395.6 967.825 1395.73 968.067C1395.87 968.309 1395.93 968.633 1395.93 969.039V972.41H1395.15V971.717H1395.11C1395.06 971.828 1394.97 971.947 1394.84 972.074C1394.72 972.2 1394.55 972.308 1394.35 972.397C1394.14 972.486 1393.89 972.53 1393.59 972.53ZM1393.71 971.824C1394.02 971.824 1394.28 971.763 1394.5 971.641C1394.71 971.519 1394.87 971.361 1394.98 971.168C1395.09 970.975 1395.15 970.771 1395.15 970.558V969.839C1395.12 969.879 1395.04 969.915 1394.93 969.949C1394.82 969.98 1394.69 970.007 1394.54 970.032C1394.4 970.054 1394.26 970.074 1394.12 970.092C1393.98 970.107 1393.87 970.121 1393.79 970.132C1393.59 970.158 1393.39 970.202 1393.22 970.262C1393.04 970.319 1392.9 970.407 1392.79 970.525C1392.68 970.64 1392.63 970.798 1392.63 970.998C1392.63 971.271 1392.73 971.477 1392.93 971.617C1393.14 971.755 1393.4 971.824 1393.71 971.824ZM1399.65 967.294V967.96H1396.89V967.294H1399.65ZM1397.72 972.41V966.588C1397.72 966.295 1397.78 966.05 1397.92 965.855C1398.06 965.659 1398.24 965.513 1398.46 965.415C1398.68 965.317 1398.91 965.269 1399.15 965.269C1399.35 965.269 1399.51 965.284 1399.63 965.315C1399.75 965.346 1399.84 965.375 1399.9 965.402L1399.67 966.081C1399.63 966.068 1399.58 966.051 1399.51 966.031C1399.44 966.011 1399.35 966.001 1399.23 966.001C1398.97 966.001 1398.79 966.067 1398.67 966.198C1398.56 966.329 1398.5 966.521 1398.5 966.774V972.41H1397.72ZM1402.91 965.495C1403.19 965.497 1403.47 965.551 1403.75 965.655C1404.03 965.759 1404.28 965.933 1404.51 966.175C1404.74 966.414 1404.93 966.742 1405.07 967.157C1405.21 967.572 1405.28 968.093 1405.28 968.719C1405.28 969.326 1405.22 969.864 1405.11 970.335C1404.99 970.804 1404.83 971.199 1404.61 971.521C1404.4 971.843 1404.14 972.087 1403.83 972.254C1403.53 972.42 1403.19 972.503 1402.8 972.503C1402.42 972.503 1402.08 972.428 1401.78 972.277C1401.48 972.124 1401.24 971.912 1401.05 971.641C1400.86 971.368 1400.74 971.051 1400.68 970.691H1401.5C1401.57 971.004 1401.71 971.263 1401.93 971.467C1402.15 971.67 1402.44 971.771 1402.8 971.771C1403.33 971.771 1403.74 971.541 1404.05 971.081C1404.35 970.621 1404.51 969.972 1404.51 969.132H1404.45C1404.33 969.319 1404.18 969.48 1404.01 969.615C1403.84 969.751 1403.65 969.855 1403.44 969.929C1403.23 970.002 1403.01 970.039 1402.77 970.039C1402.38 970.039 1402.03 969.942 1401.7 969.749C1401.37 969.553 1401.11 969.286 1400.92 968.946C1400.73 968.604 1400.63 968.213 1400.63 967.773C1400.63 967.356 1400.72 966.974 1400.91 966.628C1401.1 966.279 1401.36 966.001 1401.7 965.795C1402.04 965.588 1402.45 965.488 1402.91 965.495ZM1402.91 966.228C1402.63 966.228 1402.38 966.298 1402.15 966.438C1401.93 966.575 1401.75 966.762 1401.62 966.997C1401.49 967.231 1401.43 967.489 1401.43 967.773C1401.43 968.058 1401.49 968.316 1401.62 968.55C1401.74 968.781 1401.91 968.965 1402.13 969.103C1402.35 969.238 1402.6 969.306 1402.88 969.306C1403.09 969.306 1403.29 969.265 1403.47 969.182C1403.65 969.098 1403.81 968.984 1403.95 968.839C1404.08 968.693 1404.19 968.527 1404.27 968.343C1404.35 968.157 1404.39 967.962 1404.39 967.76C1404.39 967.494 1404.32 967.244 1404.19 967.011C1404.07 966.777 1403.89 966.589 1403.67 966.444C1403.45 966.3 1403.19 966.228 1402.91 966.228ZM1408.88 967.294V967.96H1406.12V967.294H1408.88ZM1406.95 972.41V966.588C1406.95 966.295 1407.02 966.05 1407.16 965.855C1407.29 965.659 1407.47 965.513 1407.69 965.415C1407.91 965.317 1408.14 965.269 1408.39 965.269C1408.58 965.269 1408.74 965.284 1408.86 965.315C1408.98 965.346 1409.07 965.375 1409.13 965.402L1408.91 966.081C1408.87 966.068 1408.81 966.051 1408.74 966.031C1408.67 966.011 1408.58 966.001 1408.47 966.001C1408.21 966.001 1408.02 966.067 1407.91 966.198C1407.79 966.329 1407.74 966.521 1407.74 966.774V972.41H1406.95ZM1410.18 972.41L1413.23 966.374V966.321H1409.72V965.588H1414.09V966.361L1411.05 972.41H1410.18Z" fill="black"/>
<path d="M759.61 603.29C827.978 603.29 883.4 547.867 883.4 479.5C883.4 411.133 827.978 355.71 759.61 355.71C691.243 355.71 635.82 411.133 635.82 479.5C635.82 547.867 691.243 603.29 759.61 603.29Z" fill="#1C0E0C"/>
<path d="M759.61 587.66C827.978 587.66 883.4 532.237 883.4 463.87C883.4 395.503 827.978 340.08 759.61 340.08C691.243 340.08 635.82 395.503 635.82 463.87C635.82 532.237 691.243 587.66 759.61 587.66Z" fill="#F4F1ED" stroke="#070707" stroke-width="6" stroke-linecap="round" stroke-linejoin="round"/>
<path d="M726.35 500.6H810.43L827.26 446.15H709.58L726.35 500.6Z" fill="#FFBF00"/>
<path d="M667.371 421.29H685.141C687.789 421.287 690.367 422.131 692.501 423.698C694.635 425.265 696.212 427.473 697.001 430L718.181 498.51H803.781L808.001 515.68C808.318 516.965 808.339 518.305 808.061 519.599C807.784 520.893 807.215 522.106 806.399 523.148C805.583 524.19 804.54 525.032 803.351 525.611C802.161 526.19 800.854 526.491 799.531 526.49H721.751" stroke="#070707" stroke-width="6" stroke-linecap="round" stroke-linejoin="round"/>
<path d="M718.11 498.54H803.52L821.21 441.34H700.49L718.11 498.54Z" stroke="#070707" stroke-width="6" stroke-linecap="round" stroke-linejoin="round"/>
<path d="M772.121 498.54L789.811 441.34" stroke="#070707" stroke-width="6" stroke-linecap="round" stroke-linejoin="round"/>
<path d="M753.049 498.54L735.359 441.34" stroke="#070707" stroke-width="6" stroke-linecap="round" stroke-linejoin="round"/>
<path d="M708.76 468.08H812.94" stroke="#070707" stroke-width="6" stroke-linecap="round" stroke-linejoin="round"/>
<path d="M731.82 550.38C736.591 550.38 740.46 546.512 740.46 541.74C740.46 536.968 736.591 533.1 731.82 533.1C727.048 533.1 723.18 536.968 723.18 541.74C723.18 546.512 727.048 550.38 731.82 550.38Z" stroke="#070707" stroke-width="6" stroke-linecap="round" stroke-linejoin="round"/>
<path d="M794.62 550.38C799.392 550.38 803.26 546.512 803.26 541.74C803.26 536.968 799.392 533.1 794.62 533.1C789.849 533.1 785.98 536.968 785.98 541.74C785.98 546.512 789.849 550.38 794.62 550.38Z" stroke="#070707" stroke-width="6" stroke-linecap="round" stroke-linejoin="round"/>
<path d="M760.68 375.93V420.14" stroke="#070707" stroke-width="6" stroke-linecap="round" stroke-linejoin="round"/>
<path d="M739.1 401.06L760.48 422.44L780.73 402.19" stroke="#070707" stroke-width="6" stroke-linecap="round" stroke-linejoin="round"/>
</svg>
