<svg width="2624" height="1696" viewBox="0 0 2624 1696" fill="none" xmlns="http://www.w3.org/2000/svg">
<g filter="url(#filter0_d_8_21)">
<path d="M2157.34 180H503.043C485.622 180 471.499 193.512 471.499 210.179V1413.96C471.499 1430.63 485.622 1444.14 503.043 1444.14H2157.34C2174.76 1444.14 2188.88 1430.63 2188.88 1413.96V210.179C2188.88 193.512 2174.76 180 2157.34 180Z" fill="#F4F1ED" stroke="#070707" stroke-width="6" stroke-linecap="round" stroke-linejoin="round"/>
<path d="M471.499 274.716H2188.88" stroke="#070707" stroke-width="6" stroke-linecap="round" stroke-linejoin="round"/>
<path d="M685.72 219.008H670.9C665.976 219.008 661.985 222.827 661.985 227.537V241.716C661.985 246.426 665.976 250.244 670.9 250.244H685.72C690.643 250.244 694.634 246.426 694.634 241.716V227.537C694.634 222.827 690.643 219.008 685.72 219.008Z" fill="#1C0E0C"/>
<path d="M630.025 219.008H615.205C610.282 219.008 606.291 222.827 606.291 227.537V241.716C606.291 246.426 610.282 250.244 615.205 250.244H630.025C634.948 250.244 638.939 246.426 638.939 241.716V227.537C638.939 222.827 634.948 219.008 630.025 219.008Z" fill="#1C0E0C"/>
<path d="M574.339 219.008H559.519C554.595 219.008 550.604 222.827 550.604 227.537V241.716C550.604 246.426 554.595 250.244 559.519 250.244H574.339C579.262 250.244 583.253 246.426 583.253 241.716V227.537C583.253 222.827 579.262 219.008 574.339 219.008Z" fill="#1C0E0C"/>
<path d="M678.989 213.276H664.169C659.246 213.276 655.255 217.095 655.255 221.805V235.984C655.255 240.694 659.246 244.512 664.169 244.512H678.989C683.912 244.512 687.903 240.694 687.903 235.984V221.805C687.903 217.095 683.912 213.276 678.989 213.276Z" fill="#C5DCDD" stroke="black" stroke-width="6" stroke-linecap="round" stroke-linejoin="round"/>
<path d="M623.295 213.276H608.475C603.552 213.276 599.561 217.095 599.561 221.805V235.984C599.561 240.694 603.552 244.512 608.475 244.512H623.295C628.218 244.512 632.209 240.694 632.209 235.984V221.805C632.209 217.095 628.218 213.276 623.295 213.276Z" fill="#FFBF00" stroke="black" stroke-width="6" stroke-linecap="round" stroke-linejoin="round"/>
<path d="M567.6 213.276H552.78C547.857 213.276 543.866 217.095 543.866 221.805V235.984C543.866 240.694 547.857 244.512 552.78 244.512H567.6C572.524 244.512 576.515 240.694 576.515 235.984V221.805C576.515 217.095 572.524 213.276 567.6 213.276Z" fill="#F46F40" stroke="black" stroke-width="6" stroke-linecap="round" stroke-linejoin="round"/>
<path d="M302.453 1328.61C308.823 1322.55 317.446 1319.14 326.434 1319.14C335.422 1319.14 344.044 1322.55 350.415 1328.61C356.785 1334.68 365.409 1338.09 374.399 1338.09C383.39 1338.09 392.014 1334.68 398.384 1328.61L401.903 1325.26C408.273 1319.2 416.895 1315.79 425.883 1315.79C434.872 1315.79 443.494 1319.2 449.864 1325.26L455.099 1330.25C461.469 1336.32 470.091 1339.72 479.079 1339.72C488.068 1339.72 496.69 1336.32 503.06 1330.25L507.377 1326.13C513.747 1320.06 522.371 1316.66 531.362 1316.66C540.352 1316.66 548.976 1320.06 555.347 1326.13" stroke="#070707" stroke-width="6" stroke-linecap="round" stroke-linejoin="round"/>
<path d="M507.368 1326.26C513.739 1320.19 522.363 1316.78 531.353 1316.78C540.343 1316.78 548.968 1320.19 555.338 1326.26L560.216 1330.91C566.586 1336.98 575.21 1340.38 584.201 1340.38C593.191 1340.38 601.815 1336.98 608.186 1330.91L611.16 1328.08C617.53 1322.01 626.152 1318.6 635.141 1318.6C644.129 1318.6 652.751 1322.01 659.121 1328.08C665.492 1334.15 674.116 1337.55 683.106 1337.55C692.097 1337.55 700.721 1334.15 707.091 1328.08L710.601 1324.72C716.971 1318.65 725.595 1315.24 734.586 1315.24C743.576 1315.24 752.2 1318.65 758.571 1324.72L763.805 1329.71C770.175 1335.78 778.798 1339.18 787.786 1339.18C796.774 1339.18 805.397 1335.78 811.767 1329.71L816.084 1325.59C822.454 1319.52 831.078 1316.11 840.069 1316.11C849.059 1316.11 857.683 1319.52 864.054 1325.59" stroke="#070707" stroke-width="6" stroke-linecap="round" stroke-linejoin="round"/>
<path d="M302.453 1353.75C308.823 1347.69 317.446 1344.28 326.434 1344.28C335.422 1344.28 344.044 1347.69 350.415 1353.75C356.785 1359.82 365.409 1363.23 374.399 1363.23C383.39 1363.23 392.014 1359.82 398.384 1353.75L401.945 1350.37C408.315 1344.3 416.937 1340.9 425.926 1340.9C434.914 1340.9 443.536 1344.3 449.906 1350.37L455.141 1355.35C461.511 1361.42 470.134 1364.83 479.122 1364.83C488.11 1364.83 496.732 1361.42 503.102 1355.35L507.419 1351.24C513.79 1345.17 522.414 1341.76 531.404 1341.76C540.395 1341.76 549.019 1345.17 555.389 1351.24" stroke="#070707" stroke-width="6" stroke-linecap="round" stroke-linejoin="round"/>
<path d="M507.368 1351.39C513.739 1345.33 522.363 1341.92 531.353 1341.92C540.343 1341.92 548.968 1345.33 555.338 1351.39L560.216 1356.05C566.586 1362.11 575.21 1365.52 584.201 1365.52C593.191 1365.52 601.815 1362.11 608.186 1356.05L611.16 1353.22C617.53 1347.15 626.152 1343.74 635.141 1343.74C644.129 1343.74 652.751 1347.15 659.121 1353.22C665.492 1359.29 674.116 1362.69 683.106 1362.69C692.097 1362.69 700.721 1359.29 707.091 1353.22L710.601 1349.86C716.971 1343.79 725.595 1340.38 734.586 1340.38C743.576 1340.38 752.2 1343.79 758.571 1349.86L763.805 1354.85C770.175 1360.92 778.798 1364.32 787.786 1364.32C796.774 1364.32 805.397 1360.92 811.767 1354.85L816.084 1350.73C822.454 1344.66 831.078 1341.25 840.069 1341.25C849.059 1341.25 857.683 1344.66 864.054 1350.73" stroke="#070707" stroke-width="6" stroke-linecap="round" stroke-linejoin="round"/>
<path d="M1742.81 430.466C1750.04 430.466 1755.9 424.857 1755.9 417.938C1755.9 411.018 1750.04 405.409 1742.81 405.409C1735.58 405.409 1729.71 411.018 1729.71 417.938C1729.71 424.857 1735.58 430.466 1742.81 430.466Z" stroke="#070707" stroke-width="6" stroke-linecap="round" stroke-linejoin="round"/>
<path d="M1690.19 392.409C1700.53 392.409 1708.9 384.394 1708.9 374.506C1708.9 364.619 1700.53 356.604 1690.19 356.604C1679.86 356.604 1671.48 364.619 1671.48 374.506C1671.48 384.394 1679.86 392.409 1690.19 392.409Z" fill="#EFAF00" stroke="black" stroke-width="6" stroke-linecap="round" stroke-linejoin="round"/>
<path d="M1923.51 817.219C1993.89 817.219 2050.95 762.634 2050.95 695.299C2050.95 627.965 1993.89 573.379 1923.51 573.379C1853.13 573.379 1796.08 627.965 1796.08 695.299C1796.08 762.634 1853.13 817.219 1923.51 817.219Z" fill="#1C0E0C"/>
<path d="M1923.51 804.975C1993.89 804.975 2050.95 750.389 2050.95 683.055C2050.95 615.72 1993.89 561.135 1923.51 561.135C1853.13 561.135 1796.08 615.72 1796.08 683.055C1796.08 750.389 1853.13 804.975 1923.51 804.975Z" fill="#F4F1ED" stroke="#070707" stroke-width="6" stroke-linecap="round" stroke-linejoin="round"/>
<path d="M1947.33 750.527H1874.35L1886.94 652.185H1959.91L1947.33 750.527Z" fill="#F4F1ED"/>
<path d="M1979.45 750.527H1947.38L1959.96 652.185H1966.87L1979.45 750.527Z" fill="#FFBF00"/>
<path d="M1974.2 749.324H1942.61L1955.77 646.445H1961.04L1974.2 749.324Z" stroke="#070707" stroke-width="6" stroke-linecap="round" stroke-linejoin="round"/>
<path d="M1955.77 646.445L1942.61 749.324H1867.58L1880.74 646.445H1955.77Z" stroke="#070707" stroke-width="6" stroke-linecap="round" stroke-linejoin="round"/>
<path d="M1925.01 615.583H1930.19C1931.77 615.583 1933.34 615.88 1934.8 616.459C1936.26 617.037 1937.58 617.885 1938.7 618.954C1939.82 620.023 1940.71 621.293 1941.31 622.689C1941.91 624.086 1942.23 625.583 1942.23 627.095V646.493H1912.97V627.095C1912.97 625.582 1913.28 624.085 1913.88 622.687C1914.49 621.29 1915.38 620.021 1916.5 618.952C1917.61 617.882 1918.94 617.035 1920.4 616.457C1921.86 615.878 1923.43 615.581 1925.01 615.583Z" stroke="#070707" stroke-width="6" stroke-linecap="round" stroke-linejoin="round"/>
<path d="M1916.46 615.583H1921.64C1923.22 615.583 1924.79 615.88 1926.25 616.459C1927.71 617.037 1929.03 617.885 1930.15 618.954C1931.27 620.023 1932.16 621.293 1932.76 622.689C1933.37 624.086 1933.68 625.583 1933.68 627.095V646.493H1904.42V627.095C1904.42 624.042 1905.69 621.113 1907.94 618.954C1910.2 616.795 1913.26 615.583 1916.45 615.583H1916.46Z" stroke="#070707" stroke-width="6" stroke-linecap="round" stroke-linejoin="round"/>
<path d="M1368.35 1315.25C1358.56 1315.25 1350.63 1322.57 1350.63 1331.65V1468.77C1350.63 1496.32 1374.76 1518.64 1404.52 1518.64H1495.36C1513.05 1518.64 1527.39 1531.91 1527.39 1548.28" stroke="#070707" stroke-width="6" stroke-linecap="round" stroke-linejoin="round"/>
<path d="M1312.85 1315.25C1322.64 1315.25 1330.57 1322.57 1330.57 1331.65V1468.77C1330.57 1496.32 1306.45 1518.64 1276.68 1518.64H1185.84C1168.15 1518.64 1153.81 1531.91 1153.81 1548.28" stroke="#070707" stroke-width="6" stroke-linecap="round" stroke-linejoin="round"/>
<path d="M1340.6 1301.62C1577.12 1301.62 1768.85 1128.08 1768.85 914.009C1768.85 699.935 1577.12 526.395 1340.6 526.395C1104.08 526.395 912.347 699.935 912.347 914.009C912.347 1128.08 1104.08 1301.62 1340.6 1301.62Z" fill="#F4F1ED" stroke="#070707" stroke-width="6" stroke-linecap="round" stroke-linejoin="round"/>
<path d="M1340.6 1232.39C1550.19 1232.39 1720.1 1078.61 1720.1 888.902C1720.1 699.197 1550.19 545.411 1340.6 545.411C1131.01 545.411 961.099 699.197 961.099 888.902C961.099 1078.61 1131.01 1232.39 1340.6 1232.39Z" fill="#EAE5DF"/>
<path d="M1600.36 1098.4C1616.25 1100.67 1622.45 1119.4 1610.86 1130.04C1542.03 1193.22 1446.37 1232.39 1340.63 1232.39C1235.04 1232.39 1139.52 1193.37 1070.73 1130.38C1059.12 1119.75 1065.31 1101.01 1081.19 1098.73C1160.97 1087.21 1249.16 1080.84 1341.89 1080.84C1433.74 1080.83 1521.15 1087.09 1600.36 1098.4Z" fill="#FFFBF8" stroke="#070707" stroke-width="6" stroke-linecap="round" stroke-linejoin="round"/>
<path d="M1154.37 1611C1172.47 1611 1187.15 1596.96 1187.15 1579.64C1187.15 1562.32 1172.47 1548.28 1154.37 1548.28C1136.27 1548.28 1121.6 1562.32 1121.6 1579.64C1121.6 1596.96 1136.27 1611 1154.37 1611Z" stroke="#070707" stroke-width="6" stroke-linecap="round" stroke-linejoin="round"/>
<path d="M1342.22 1611C1360.32 1611 1374.99 1596.96 1374.99 1579.64C1374.99 1562.32 1360.32 1548.28 1342.22 1548.28C1324.11 1548.28 1309.44 1562.32 1309.44 1579.64C1309.44 1596.96 1324.11 1611 1342.22 1611Z" stroke="#070707" stroke-width="6" stroke-linecap="round" stroke-linejoin="round"/>
<path d="M1527.81 1611C1545.91 1611 1560.58 1596.96 1560.58 1579.64C1560.58 1562.32 1545.91 1548.28 1527.81 1548.28C1509.7 1548.28 1495.03 1562.32 1495.03 1579.64C1495.03 1596.96 1509.7 1611 1527.81 1611Z" stroke="#070707" stroke-width="6" stroke-linecap="round" stroke-linejoin="round"/>
<path d="M2048.29 1048.17C2002.81 1114.03 1917.07 1150.08 1879.19 1129.69C1842.57 1109.99 1839.38 1012.91 1884.87 947.016C1930.37 881.121 2006.39 850.341 2050.62 878.276C2094.85 906.211 2093.79 982.269 2048.29 1048.17Z" fill="#EFAF00" stroke="black" stroke-width="6" stroke-linecap="round" stroke-linejoin="round"/>
<path d="M1884.25 1351.7C1884.25 1351.7 1838.43 996.074 2050.3 879.886" stroke="#070707" stroke-width="6" stroke-linecap="round" stroke-linejoin="round"/>
<path d="M2080.31 959.244L1953.43 971.635" stroke="#070707" stroke-width="6" stroke-linecap="round" stroke-linejoin="round"/>
<path d="M2078.57 972.058L1945.42 985.058" stroke="#070707" stroke-width="6" stroke-linecap="round" stroke-linejoin="round"/>
<path d="M1886.39 947.732L1918.63 1038.89" stroke="#070707" stroke-width="6" stroke-linecap="round" stroke-linejoin="round"/>
<path d="M2216.47 1229.82C2202.4 1264.54 2140.76 1274.06 2078.8 1251.08C2016.84 1228.09 1992.93 1182.44 1995.64 1167.27C1999.04 1148.15 2072.19 1115.5 2129.75 1125.34C2195.15 1136.55 2230.54 1195.08 2216.47 1229.82Z" fill="#EFAF00" stroke="black" stroke-width="6" stroke-linecap="round" stroke-linejoin="round"/>
<path d="M1846.36 1351.7C1846.36 1351.7 1840.8 1195.48 2013.23 1163.42C2107.64 1145.86 2180.64 1191.25 2214.15 1229.74" stroke="#070707" stroke-width="6" stroke-linecap="round" stroke-linejoin="round"/>
<path d="M2107.48 1165.86L2166.35 1140.05" stroke="#070707" stroke-width="6" stroke-linecap="round" stroke-linejoin="round"/>
<path d="M2122.17 1170.34L2177 1145.8" stroke="#070707" stroke-width="6" stroke-linecap="round" stroke-linejoin="round"/>
<path d="M2083.12 1161.34L2106.06 1257" stroke="#070707" stroke-width="6" stroke-linecap="round" stroke-linejoin="round"/>
<path d="M1811.81 1119.6C1839.79 1160.01 1835.41 1217.24 1812.66 1230.54C1798.86 1238.61 1740.84 1224.04 1712.86 1183.61C1684.89 1143.19 1684.98 1094.72 1712.08 1077.54C1739.18 1060.36 1783.84 1079.2 1811.81 1119.6Z" fill="#EFAF00" stroke="black" stroke-width="6" stroke-linecap="round" stroke-linejoin="round"/>
<path d="M1825.75 1351.7C1825.75 1351.7 1841.47 1149.67 1712.9 1079.64" stroke="#070707" stroke-width="6" stroke-linecap="round" stroke-linejoin="round"/>
<path d="M1695 1138.62H1776.12" stroke="#070707" stroke-width="6" stroke-linecap="round" stroke-linejoin="round"/>
<path d="M1699.09 1152.04H1784.13" stroke="#070707" stroke-width="6" stroke-linecap="round" stroke-linejoin="round"/>
<path d="M1813.74 1125.17L1799.16 1180.82" stroke="#070707" stroke-width="6" stroke-linecap="round" stroke-linejoin="round"/>
<path d="M1972.02 1386.19V1526.68C1972.02 1531.21 1971.09 1535.7 1969.28 1539.89C1967.47 1544.08 1964.82 1547.88 1961.47 1551.09C1958.12 1554.29 1954.14 1556.83 1949.76 1558.56C1945.38 1560.29 1940.69 1561.18 1935.95 1561.18H1789.12C1784.38 1561.18 1779.69 1560.29 1775.32 1558.56C1770.94 1556.83 1766.96 1554.29 1763.61 1551.08C1760.26 1547.88 1757.61 1544.08 1755.8 1539.89C1753.98 1535.7 1753.05 1531.21 1753.06 1526.68V1386.19C1753.06 1377.04 1756.87 1368.27 1763.63 1361.8C1770.39 1355.34 1779.56 1351.7 1789.12 1351.7H1935.95C1945.52 1351.7 1954.69 1355.33 1961.45 1361.8C1968.21 1368.27 1972.01 1377.04 1972.02 1386.19Z" fill="#F4F1ED" stroke="#070707" stroke-width="6" stroke-linecap="round" stroke-linejoin="round"/>
<path d="M1937.08 1351.7H1787.98C1768.69 1351.7 1753.06 1366.66 1753.06 1385.11V1527.76C1753.06 1546.22 1768.69 1561.18 1787.98 1561.18H1937.08C1956.37 1561.18 1972.01 1546.22 1972.01 1527.76V1385.11C1972.01 1366.66 1956.37 1351.7 1937.08 1351.7Z" stroke="#FFC3D5" stroke-width="6" stroke-miterlimit="10"/>
<path d="M1972.02 1386.19V1526.68C1972.02 1531.21 1971.09 1535.7 1969.28 1539.89C1967.47 1544.08 1964.82 1547.88 1961.47 1551.09C1958.12 1554.29 1954.14 1556.83 1949.76 1558.56C1945.38 1560.29 1940.69 1561.18 1935.95 1561.18H1789.12C1784.38 1561.18 1779.69 1560.29 1775.32 1558.56C1770.94 1556.83 1766.96 1554.29 1763.61 1551.08C1760.26 1547.88 1757.61 1544.08 1755.8 1539.89C1753.98 1535.7 1753.05 1531.21 1753.06 1526.68V1386.19C1753.06 1377.04 1756.87 1368.27 1763.63 1361.8C1770.39 1355.34 1779.56 1351.7 1789.12 1351.7H1935.95C1945.52 1351.7 1954.69 1355.33 1961.45 1361.8C1968.21 1368.27 1972.01 1377.04 1972.02 1386.19Z" stroke="#070707" stroke-width="6" stroke-linecap="round" stroke-linejoin="round"/>
<path d="M1451.81 998.276V999.129H1448.29V998.276H1451.81ZM1449.34 1004.82V997.373C1449.34 996.998 1449.43 996.685 1449.61 996.435C1449.78 996.185 1450.01 995.998 1450.29 995.873C1450.57 995.748 1450.87 995.685 1451.18 995.685C1451.43 995.685 1451.63 995.705 1451.79 995.745C1451.94 995.785 1452.06 995.822 1452.14 995.856L1451.85 996.725C1451.8 996.708 1451.73 996.687 1451.63 996.661C1451.55 996.636 1451.43 996.623 1451.29 996.623C1450.95 996.623 1450.71 996.707 1450.57 996.874C1450.42 997.042 1450.35 997.288 1450.35 997.612V1004.82H1449.34ZM1454.96 1004.98C1454.55 1004.98 1454.17 1004.9 1453.83 1004.74C1453.49 1004.58 1453.23 1004.35 1453.03 1004.05C1452.83 1003.75 1452.73 1003.39 1452.73 1002.96C1452.73 1002.59 1452.8 1002.28 1452.95 1002.05C1453.1 1001.82 1453.3 1001.63 1453.54 1001.5C1453.79 1001.36 1454.06 1001.26 1454.36 1001.2C1454.66 1001.13 1454.96 1001.08 1455.27 1001.04C1455.67 1000.99 1455.99 1000.95 1456.24 1000.92C1456.49 1000.89 1456.67 1000.85 1456.78 1000.78C1456.9 1000.72 1456.96 1000.6 1456.96 1000.44V1000.41C1456.96 999.987 1456.84 999.66 1456.61 999.427C1456.38 999.194 1456.04 999.077 1455.58 999.077C1455.1 999.077 1454.72 999.183 1454.45 999.393C1454.17 999.603 1453.98 999.827 1453.87 1000.07L1452.92 999.725C1453.09 999.327 1453.31 999.018 1453.6 998.796C1453.89 998.572 1454.2 998.416 1454.54 998.327C1454.88 998.237 1455.21 998.191 1455.54 998.191C1455.75 998.191 1455.99 998.217 1456.27 998.268C1456.54 998.316 1456.81 998.417 1457.06 998.57C1457.32 998.724 1457.54 998.955 1457.71 999.265C1457.88 999.575 1457.96 999.989 1457.96 1000.51V1004.82H1456.96V1003.94H1456.91C1456.84 1004.08 1456.72 1004.23 1456.56 1004.39C1456.41 1004.55 1456.19 1004.69 1455.93 1004.8C1455.66 1004.92 1455.34 1004.98 1454.96 1004.98ZM1455.12 1004.07C1455.51 1004.07 1455.85 1003.99 1456.12 1003.84C1456.4 1003.68 1456.6 1003.48 1456.74 1003.23C1456.89 1002.99 1456.96 1002.73 1456.96 1002.45V1001.53C1456.91 1001.58 1456.82 1001.63 1456.67 1001.67C1456.53 1001.71 1456.37 1001.75 1456.18 1001.78C1456 1001.81 1455.82 1001.83 1455.64 1001.86C1455.47 1001.88 1455.33 1001.89 1455.22 1001.91C1454.96 1001.94 1454.71 1002 1454.48 1002.07C1454.26 1002.15 1454.08 1002.26 1453.94 1002.41C1453.8 1002.56 1453.73 1002.76 1453.73 1003.01C1453.73 1003.36 1453.86 1003.63 1454.12 1003.81C1454.38 1003.98 1454.71 1004.07 1455.12 1004.07ZM1462.71 998.276V999.129H1459.18V998.276H1462.71ZM1460.24 1004.82V997.373C1460.24 996.998 1460.33 996.685 1460.5 996.435C1460.68 996.185 1460.91 995.998 1461.19 995.873C1461.47 995.748 1461.77 995.685 1462.08 995.685C1462.33 995.685 1462.53 995.705 1462.69 995.745C1462.84 995.785 1462.96 995.822 1463.04 995.856L1462.75 996.725C1462.7 996.708 1462.62 996.687 1462.53 996.661C1462.45 996.636 1462.33 996.623 1462.18 996.623C1461.85 996.623 1461.61 996.707 1461.46 996.874C1461.32 997.042 1461.25 997.288 1461.25 997.612V1004.82H1460.24ZM1451.66 1010.98C1452.02 1010.98 1452.38 1011.05 1452.73 1011.18C1453.09 1011.31 1453.42 1011.53 1453.71 1011.84C1454.01 1012.15 1454.25 1012.57 1454.43 1013.1C1454.6 1013.63 1454.69 1014.3 1454.69 1015.1C1454.69 1015.88 1454.62 1016.56 1454.47 1017.17C1454.33 1017.77 1454.12 1018.27 1453.84 1018.68C1453.57 1019.1 1453.24 1019.41 1452.84 1019.62C1452.46 1019.83 1452.02 1019.94 1451.52 1019.94C1451.04 1019.94 1450.6 1019.84 1450.22 1019.65C1449.84 1019.46 1449.52 1019.18 1449.28 1018.84C1449.04 1018.49 1448.88 1018.08 1448.81 1017.62H1449.85C1449.95 1018.02 1450.13 1018.35 1450.41 1018.62C1450.69 1018.87 1451.06 1019 1451.52 1019C1452.2 1019 1452.73 1018.71 1453.12 1018.12C1453.51 1017.53 1453.71 1016.7 1453.71 1015.63H1453.64C1453.48 1015.87 1453.29 1016.07 1453.07 1016.25C1452.85 1016.42 1452.61 1016.55 1452.34 1016.65C1452.08 1016.74 1451.79 1016.79 1451.49 1016.79C1450.99 1016.79 1450.53 1016.66 1450.11 1016.42C1449.7 1016.17 1449.37 1015.82 1449.12 1015.39C1448.87 1014.95 1448.75 1014.45 1448.75 1013.89C1448.75 1013.36 1448.86 1012.87 1449.1 1012.42C1449.34 1011.98 1449.68 1011.62 1450.12 1011.36C1450.56 1011.09 1451.07 1010.97 1451.66 1010.98ZM1451.66 1011.91C1451.3 1011.91 1450.98 1012 1450.69 1012.18C1450.41 1012.36 1450.18 1012.6 1450.02 1012.9C1449.85 1013.2 1449.77 1013.53 1449.77 1013.89C1449.77 1014.25 1449.85 1014.58 1450.01 1014.88C1450.17 1015.18 1450.39 1015.41 1450.67 1015.59C1450.95 1015.76 1451.27 1015.85 1451.63 1015.85C1451.9 1015.85 1452.15 1015.8 1452.38 1015.69C1452.61 1015.58 1452.82 1015.44 1452.99 1015.25C1453.17 1015.07 1453.3 1014.85 1453.4 1014.62C1453.5 1014.38 1453.55 1014.13 1453.55 1013.87C1453.55 1013.53 1453.47 1013.21 1453.31 1012.91C1453.14 1012.62 1452.92 1012.37 1452.63 1012.19C1452.35 1012.01 1452.02 1011.91 1451.66 1011.91ZM1459.3 1013.28V1014.13H1455.77V1013.28H1459.3ZM1456.83 1019.82V1012.37C1456.83 1012 1456.92 1011.69 1457.09 1011.44C1457.27 1011.19 1457.5 1011 1457.78 1010.87C1458.06 1010.75 1458.36 1010.69 1458.67 1010.69C1458.92 1010.69 1459.12 1010.71 1459.28 1010.75C1459.43 1010.78 1459.55 1010.82 1459.63 1010.86L1459.34 1011.73C1459.28 1011.71 1459.21 1011.69 1459.12 1011.66C1459.03 1011.64 1458.92 1011.62 1458.77 1011.62C1458.44 1011.62 1458.2 1011.71 1458.05 1011.87C1457.91 1012.04 1457.84 1012.29 1457.84 1012.61V1019.82H1456.83ZM1460.97 1019.82L1464.87 1012.1V1012.03H1460.37V1011.09H1465.96V1012.08L1462.08 1019.82H1460.97Z" fill="black"/>
<path d="M764.647 618.241C838.978 618.241 899.235 560.59 899.235 489.475C899.235 418.36 838.978 360.709 764.647 360.709C690.317 360.709 630.06 418.36 630.06 489.475C630.06 560.59 690.317 618.241 764.647 618.241Z" fill="#1C0E0C"/>
<path d="M764.647 601.981C838.978 601.981 899.235 544.33 899.235 473.215C899.235 402.1 838.978 344.449 764.647 344.449C690.317 344.449 630.06 402.1 630.06 473.215C630.06 544.33 690.317 601.981 764.647 601.981Z" fill="#F4F1ED" stroke="#070707" stroke-width="6" stroke-linecap="round" stroke-linejoin="round"/>
<path d="M728.489 511.419H819.9L838.204 454.776H710.262L728.489 511.419Z" fill="#FFBF00"/>
<path d="M664.365 428.922H683.689C686.572 428.922 689.379 429.806 691.698 431.443C694.018 433.08 695.729 435.385 696.58 438.02L719.609 509.272H812.677L817.274 527.102C817.618 528.438 817.64 529.832 817.338 531.178C817.036 532.524 816.418 533.786 815.53 534.87C814.642 535.953 813.509 536.829 812.215 537.431C810.921 538.034 809.501 538.346 808.063 538.346H723.484" stroke="#070707" stroke-width="6" stroke-linecap="round" stroke-linejoin="round"/>
<path d="M719.533 509.272H812.388L831.619 449.775H700.379L719.533 509.272Z" stroke="#070707" stroke-width="6" stroke-linecap="round" stroke-linejoin="round"/>
<path d="M778.252 509.272L797.482 449.775" stroke="#070707" stroke-width="6" stroke-linecap="round" stroke-linejoin="round"/>
<path d="M757.518 509.272L738.287 449.775" stroke="#070707" stroke-width="6" stroke-linecap="round" stroke-linejoin="round"/>
<path d="M709.369 477.589H822.636" stroke="#070707" stroke-width="6" stroke-linecap="round" stroke-linejoin="round"/>
<path d="M734.438 563.192C739.624 563.192 743.828 559.17 743.828 554.208C743.828 549.246 739.624 545.224 734.438 545.224C729.252 545.224 725.048 549.246 725.048 554.208C725.048 559.17 729.252 563.192 734.438 563.192Z" stroke="#070707" stroke-width="6" stroke-linecap="round" stroke-linejoin="round"/>
<path d="M802.717 563.192C807.903 563.192 812.107 559.17 812.107 554.208C812.107 549.246 807.903 545.224 802.717 545.224C797.531 545.224 793.327 549.246 793.327 554.208C793.327 559.17 797.531 563.192 802.717 563.192Z" stroke="#070707" stroke-width="6" stroke-linecap="round" stroke-linejoin="round"/>
<path d="M765.812 381.734V427.727" stroke="#070707" stroke-width="6" stroke-linecap="round" stroke-linejoin="round"/>
<path d="M742.35 407.88L765.591 430.116L787.609 409.051" stroke="#070707" stroke-width="6" stroke-linecap="round" stroke-linejoin="round"/>
<path d="M1491.19 950.266C1491.19 950.266 1581.72 1086.08 1540.48 1151.02C1499.23 1215.96 1426.55 1240.08 1340.61 1231.71C1122.88 1210.5 854.825 1058.67 861.58 1009.69C870.698 943.592 1271.57 1019.35 1271.57 1019.35L1307.26 950.928L1491.19 950.266Z" fill="#C5DCDD" stroke="black" stroke-width="6" stroke-linecap="round" stroke-linejoin="round"/>
<path d="M864.138 1001.9C852.037 1013.19 763.661 1170.15 1297.13 1284.36L1317.15 1251.01C1317.15 1251.01 959.73 912.722 864.138 1001.9Z" fill="#C5DCDD" stroke="black" stroke-width="6" stroke-linecap="round" stroke-linejoin="round"/>
<path d="M1317.89 1251.01C1317.89 1251.01 1138.92 1081.65 1000.4 1014.18" stroke="#4B556A" stroke-width="6" stroke-miterlimit="10"/>
<path d="M1297.12 1284.36C1321.77 1288.34 1426.46 1321.13 1449.63 1316.76C1472.81 1312.38 1436.04 1250.09 1421.59 1247.47C1407.15 1244.86 1335.76 1252.15 1317.18 1251.01C1298.6 1249.87 1297.12 1284.36 1297.12 1284.36Z" fill="#C48270" stroke="#0F0F0F" stroke-width="6" stroke-linecap="round" stroke-linejoin="round"/>
<path d="M1423.84 1144.77C1330.95 1322.21 1066.33 1524.58 1066.33 1524.58C1066.33 1524.58 1046.34 1508.9 1021.24 1507.93C1021.24 1507.93 1258.02 1030.91 1391.74 1007.77C1499.86 989.026 1439.45 1114.94 1423.84 1144.77Z" fill="#C5DCDD" stroke="black" stroke-width="6" stroke-linecap="round" stroke-linejoin="round"/>
<path d="M1021.16 1506.8C997.562 1540.89 961.055 1612.58 938.154 1637.44C930.71 1645.51 996.431 1647.91 1006.41 1640.72C1020.11 1630.85 1021.16 1593.89 1048.38 1589.15C1067.42 1585.84 1086.51 1574.33 1077.63 1557.7C1065.12 1534.3 1066.94 1523.22 1066.94 1523.22C1045.4 1501.46 1021.16 1506.8 1021.16 1506.8Z" fill="#C48270" stroke="#0F0F0F" stroke-width="6" stroke-linecap="round" stroke-linejoin="round"/>
<path d="M1314.33 694.697C1357.78 758.992 1300.6 907.934 1274.29 930.182C1225.57 971.436 1013.16 965.593 1013.16 965.593L1004.54 947.887C1004.54 947.887 1121.59 890.067 1215.01 885.479C1215.01 885.479 1239.93 769.422 1248.2 736.136C1258.62 694.189 1284.34 650.318 1314.33 694.697Z" fill="#C48270" stroke="#0F0F0F" stroke-width="6" stroke-linecap="round" stroke-linejoin="round"/>
<path d="M1028.48 949.427C1023.8 938.804 983.702 945.455 967.768 952.16C954.214 957.864 937.822 973.176 935.145 976.417C932.469 979.658 926.512 996.024 926.512 996.024C926.512 996.024 932.282 1001.55 940.057 991.913C947.833 982.275 967.998 971.236 973.003 973.653C984.254 979.096 956.993 981.236 954.01 985.146C951.028 989.057 952.447 991.382 952.447 991.382C952.447 991.382 978.068 990.327 982.189 989.842C986.31 989.357 1002.64 982.66 1010.63 976.594C1018.62 970.528 1031.41 956.048 1028.48 949.427Z" fill="#E38E32"/>
<path d="M1487.11 655.799C1500.26 659.333 1541.5 673.235 1541.5 673.235C1541.5 673.235 1538 763.503 1526.31 784.858C1477.33 874.325 1492.57 956.756 1492.57 956.756C1492.57 956.756 1376.58 974.246 1305.62 957.38C1305.62 957.38 1314.9 889.313 1299.74 881.168C1284.58 873.024 1259.75 854.726 1266.6 817.882C1273.45 781.039 1271.89 684.421 1280.2 678.178C1288.51 671.934 1325.24 655.691 1334.72 655.722C1344.2 655.753 1487.11 655.799 1487.11 655.799Z" fill="#F4F1ED" stroke="#070707" stroke-width="6" stroke-linecap="round" stroke-linejoin="round"/>
<path d="M1125.05 838.066H865.311C862.448 838.066 859.628 838.693 857.09 839.893C854.552 841.092 852.372 842.83 850.735 844.957C849.098 847.084 848.052 849.538 847.687 852.11C847.322 854.682 847.648 857.296 848.638 859.729L914.071 1020.92H1218.22L1150.51 854.179C1148.59 849.458 1145.12 845.384 1140.57 842.504C1136.02 839.624 1130.6 838.075 1125.05 838.066Z" fill="#F9A09B" stroke="black" stroke-width="6" stroke-linecap="round" stroke-linejoin="round"/>
<path d="M1119.94 846.242H866.705C863.914 846.243 861.164 846.854 858.689 848.024C856.215 849.194 854.089 850.888 852.492 852.962C850.895 855.036 849.875 857.428 849.518 859.936C849.16 862.444 849.477 864.993 850.44 867.366L914.275 1024.55H1210.85L1144.82 861.954C1142.95 857.344 1139.55 853.365 1135.11 850.555C1130.66 847.746 1125.36 846.24 1119.94 846.242Z" fill="#F9A09B" stroke="black" stroke-width="6" stroke-linecap="round" stroke-linejoin="round"/>
<path d="M914.232 1021.44H1344.35C1349.22 1021.44 1353.88 1023.19 1357.33 1026.31C1360.77 1029.43 1362.7 1033.66 1362.7 1038.07V1041.74H932.588C927.719 1041.74 923.051 1039.98 919.609 1036.86C916.166 1033.75 914.232 1029.52 914.232 1025.11V1021.44Z" fill="#F46F40" stroke="black" stroke-width="6" stroke-linecap="round" stroke-linejoin="round"/>
<path d="M1125.05 838.066H865.311C862.448 838.066 859.628 838.693 857.09 839.893C854.552 841.092 852.372 842.83 850.735 844.957C849.098 847.084 848.052 849.538 847.687 852.11C847.322 854.682 847.648 857.296 848.638 859.729L914.071 1020.92H1218.22L1150.51 854.179C1148.59 849.458 1145.12 845.384 1140.57 842.504C1136.02 839.624 1130.6 838.075 1125.05 838.066Z" fill="#F46F40" stroke="black" stroke-width="6" stroke-linecap="round" stroke-linejoin="round"/>
<path d="M1035.42 949.476C1041.57 943.284 1039.73 932.69 1031.3 925.814C1022.87 918.938 1011.05 918.384 1004.89 924.576C998.738 930.769 1000.58 941.363 1009.01 948.239C1017.44 955.115 1029.26 955.669 1035.42 949.476Z" fill="#F46F40" stroke="black" stroke-width="6" stroke-linecap="round" stroke-linejoin="round"/>
<path d="M1259.35 1028.69H1241.18V1034.61H1259.35V1028.69Z" fill="#F9A09B" stroke="black" stroke-width="6" stroke-linecap="round" stroke-linejoin="round"/>
<path d="M1294.08 1028.69H1275.91V1034.61H1294.08V1028.69Z" fill="#F9A09B" stroke="black" stroke-width="6" stroke-linecap="round" stroke-linejoin="round"/>
<path d="M1357.65 479.597C1357.65 479.597 1295.01 452.977 1256.19 508.781C1217.28 564.715 1270.64 589.611 1242.76 618.171C1212.61 649.086 1174.43 667.192 1205.37 728.453C1236.92 790.923 1156.48 767.891 1173.87 837.435H1310.26C1310.26 837.435 1368.94 818.829 1351.33 772.987C1333.72 727.145 1295.99 720.802 1331.35 680.356C1357.91 649.987 1480.42 656.176 1491.43 658.801C1502.43 661.426 1549.32 675.96 1549.32 675.96C1549.32 675.96 1567.97 625.422 1541.3 597.586C1507.56 562.375 1451.28 588.348 1441.03 547.017C1434.09 519.15 1420.63 486.787 1398.27 480.667C1374.23 474.093 1357.65 479.597 1357.65 479.597Z" fill="#1C0E0C"/>
<path d="M1352.07 486.587C1352.07 486.587 1338.9 468.058 1272.02 510.297C1230.69 536.409 1259.58 589.587 1231.71 618.147C1201.55 649.063 1163.38 667.169 1194.32 728.43C1225.86 790.9 1145.42 767.867 1162.82 837.412" stroke="#070707" stroke-width="6" stroke-linecap="round" stroke-linejoin="round"/>
<path d="M1405.42 576.693C1405.42 576.693 1403.33 618.779 1420.28 640.372C1431.81 655.037 1421.46 653.805 1461.67 657.993C1461.67 657.993 1465.86 712.026 1372.76 712.026C1303.68 712.026 1331.34 680.356 1331.34 680.356C1331.34 680.356 1360.18 642.504 1347.75 576.693H1405.42Z" fill="#C48270" stroke="#0F0F0F" stroke-width="6" stroke-linecap="round" stroke-linejoin="round"/>
<path d="M1406.33 573.422C1406.33 573.422 1408.11 657.993 1333.46 657.993C1331.95 657.988 1330.46 657.675 1329.1 657.077C1333.03 654.598 1357.54 636.338 1345.44 572.329H1406.33C1406.33 572.329 1406.33 572.698 1406.33 573.391V573.422Z" fill="#1C0E0C"/>
<path d="M1408.37 572.036C1408.37 572.036 1397.68 644.336 1346.99 644.683C1313.65 644.906 1294.4 602.559 1286.59 580.357C1277.67 555.008 1287.12 504.339 1334.68 504.978C1375.98 505.54 1397.56 556.555 1397.56 556.555L1408.37 572.036Z" fill="#C48270" stroke="#0F0F0F" stroke-width="6" stroke-linecap="round" stroke-linejoin="round"/>
<path d="M1398.62 568.372C1398.62 568.372 1396.6 562.113 1398.47 556.463C1399.66 552.883 1402.42 549.535 1408.25 548.21" stroke="#070707" stroke-width="6" stroke-linecap="round" stroke-linejoin="round"/>
<path d="M1408.25 560.574L1398.47 556.463" stroke="#070707" stroke-width="6" stroke-linecap="round" stroke-linejoin="round"/>
<path d="M1483.97 679.809C1483.97 679.809 1454.75 748.414 1501.48 785.273C1516.55 797.151 1538.78 786.297 1538.78 786.297" fill="#C48270"/>
<path d="M1483.97 679.809C1483.97 679.809 1454.75 748.414 1501.48 785.273C1516.55 797.151 1538.78 786.297 1538.78 786.297" stroke="#0F0F0F" stroke-width="6" stroke-linecap="round" stroke-linejoin="round"/>
<path d="M1505.89 749.4C1522.55 797.174 1544.63 864.709 1544.63 864.709C1457.02 869.02 1324.93 917.157 1308.84 923.123C1282.14 928.511 1244.34 948.095 1237.07 952.029C1230.27 955.532 1219.58 965.239 1216.35 969.134C1212.95 973.199 1205.04 987.833 1205.04 987.833C1206.73 988.587 1208.64 988.807 1210.48 988.459C1212.32 988.11 1213.98 987.212 1215.19 985.908C1218.31 982.829 1223.54 975.408 1227.74 971.798C1223.93 980.458 1220.37 989.403 1220.37 989.403C1220.37 989.403 1229.81 991.497 1241.91 987.956C1247.71 986.262 1254.12 976.193 1260.9 969.565C1267.68 962.937 1282.47 966.07 1297.29 963.799C1312.1 961.528 1322.38 941.852 1322.38 941.852L1322.18 941.529C1360.63 942.106 1562.86 943.299 1606.91 906.01C1633.25 883.739 1599.11 738.699 1555.66 674.413C1536.55 646.145 1508.07 649.941 1494.72 667.939C1490.26 673.935 1484.93 677.438 1484.71 685.929" fill="#C48270"/>
<path d="M1505.89 749.4C1522.55 797.174 1544.63 864.709 1544.63 864.709C1457.02 869.02 1324.93 917.157 1308.84 923.123C1282.14 928.511 1244.34 948.095 1237.07 952.029C1230.27 955.532 1219.58 965.239 1216.35 969.134C1212.95 973.199 1205.04 987.833 1205.04 987.833C1206.73 988.587 1208.64 988.807 1210.48 988.459C1212.32 988.11 1213.98 987.212 1215.19 985.908C1218.31 982.829 1223.54 975.408 1227.74 971.798C1223.93 980.458 1220.37 989.403 1220.37 989.403C1220.37 989.403 1229.81 991.497 1241.91 987.956C1247.71 986.262 1254.12 976.193 1260.9 969.565C1267.68 962.937 1282.47 966.07 1297.29 963.799C1312.1 961.528 1322.38 941.852 1322.38 941.852L1322.18 941.529C1360.63 942.106 1562.86 943.299 1606.91 906.01C1633.25 883.739 1599.11 738.699 1555.66 674.413C1536.55 646.145 1508.07 649.941 1494.72 667.939C1490.26 673.935 1484.93 677.438 1484.71 685.929" stroke="#0F0F0F" stroke-width="6" stroke-linecap="round" stroke-linejoin="round"/>
<path d="M1227.93 989.981C1227.76 990.005 1227.59 989.986 1227.43 989.927C1227.32 989.89 1227.22 989.833 1227.14 989.758C1227.05 989.684 1226.98 989.594 1226.94 989.495C1226.89 989.396 1226.87 989.289 1226.88 989.182C1226.88 989.074 1226.91 988.969 1226.96 988.872C1228.1 986.424 1238.21 964.893 1242.66 961.975C1250.39 956.91 1260.45 950.266 1260.45 950.266L1261.5 951.575C1261.5 951.575 1251.43 958.226 1243.72 963.284C1240.32 965.531 1231.64 982.968 1228.61 989.457C1228.55 989.59 1228.46 989.708 1228.34 989.8C1228.22 989.891 1228.08 989.954 1227.93 989.981Z" stroke="#070707" stroke-width="6" stroke-linecap="round" stroke-linejoin="round"/>
<path d="M1237.55 988.503C1237.39 988.525 1237.22 988.508 1237.07 988.454C1236.92 988.399 1236.79 988.308 1236.69 988.192C1236.6 988.075 1236.53 987.937 1236.51 987.791C1236.5 987.645 1236.52 987.498 1236.59 987.364C1237 986.594 1246.67 967.556 1251.19 964.593C1258.91 959.535 1268.97 952.892 1268.97 952.892L1270.03 954.2C1270.03 954.2 1259.96 960.844 1252.24 965.909C1248.84 968.157 1240.95 982.645 1238.21 988.041C1238.15 988.161 1238.06 988.266 1237.94 988.346C1237.83 988.426 1237.69 988.48 1237.55 988.503Z" stroke="#070707" stroke-width="6" stroke-linecap="round" stroke-linejoin="round"/>
<path d="M1394.38 588.972C1394.38 588.972 1394.2 682.018 1449.84 688.739C1505.47 695.459 1549.53 662.011 1549.53 662.011" fill="#1C0E0C"/>
<path d="M1325.58 573.275L1322.57 595.769L1333.07 601.32" stroke="#070707" stroke-width="6" stroke-linecap="round" stroke-linejoin="round"/>
<path d="M1347.49 573.795C1349.71 573.088 1350.68 570.359 1349.65 567.7C1348.62 565.04 1345.98 563.457 1343.76 564.164C1341.54 564.87 1340.57 567.599 1341.6 570.259C1342.63 572.919 1345.27 574.502 1347.49 573.795Z" fill="#1C0E0C"/>
<path d="M1309.89 582.506C1312.12 581.799 1313.08 579.07 1312.05 576.41C1311.02 573.75 1308.38 572.167 1306.16 572.874C1303.94 573.581 1302.97 576.31 1304 578.97C1305.03 581.629 1307.67 583.212 1309.89 582.506Z" fill="#1C0E0C"/>
<path d="M1332.22 553.492C1332.22 553.492 1339.56 545.555 1355.39 552.468" stroke="#070707" stroke-width="6" stroke-linecap="round" stroke-linejoin="round"/>
<path d="M1293.41 564.592C1293.41 564.592 1297.55 554.923 1312.81 559.034" stroke="#070707" stroke-width="6" stroke-linecap="round" stroke-linejoin="round"/>
<path d="M1316.39 501.36C1316.39 501.36 1340.97 492.122 1349.17 514.162C1357.37 536.201 1370.73 554.608 1397.68 541.806C1424.63 529.004 1413.6 512.368 1413.6 512.368" fill="#1C0E0C"/>
<path d="M1401.2 572.359C1410.89 572.359 1418.75 565.242 1418.75 556.462C1418.75 547.683 1410.89 540.566 1401.2 540.566C1391.51 540.566 1383.65 547.683 1383.65 556.462C1383.65 565.242 1391.51 572.359 1401.2 572.359Z" fill="#C48270"/>
<path d="M1394.53 566.162C1394.53 566.162 1392.5 559.904 1394.38 554.253C1395.56 550.674 1398.32 547.325 1404.15 546.001" stroke="#070707" stroke-width="6" stroke-linecap="round" stroke-linejoin="round"/>
<path d="M1404.15 558.364L1394.38 554.253" stroke="#070707" stroke-width="6" stroke-linecap="round" stroke-linejoin="round"/>
<path d="M1393.47 539.566C1388.47 498.127 1342.95 474.409 1342.49 474.255L1364.41 475.61C1367.06 476.426 1392.31 479.597 1415.86 534.554L1393.47 539.566Z" fill="#EFAF00" stroke="black" stroke-width="6" stroke-linecap="round" stroke-linejoin="round"/>
<path d="M1410.95 595.682C1422.49 594.287 1429.81 579.303 1427.29 562.214C1424.78 545.126 1413.38 532.404 1401.84 533.799C1390.3 535.194 1382.98 550.178 1385.5 567.266C1388.01 584.355 1399.41 597.077 1410.95 595.682Z" fill="#EFAF00" stroke="black" stroke-width="6" stroke-linecap="round" stroke-linejoin="round"/>
<path d="M1418.24 594.808C1429.78 593.413 1437.09 578.429 1434.58 561.34C1432.06 544.252 1420.66 531.53 1409.12 532.925C1397.58 534.32 1390.27 549.304 1392.78 566.392C1395.3 583.481 1406.7 596.203 1418.24 594.808Z" fill="#EFAF00" stroke="black" stroke-width="6" stroke-linecap="round" stroke-linejoin="round"/>
<path d="M1333.07 612.72C1333.07 612.72 1349.45 615.276 1356.8 600.604" stroke="#070707" stroke-width="6" stroke-linecap="round" stroke-linejoin="round"/>
</g>
<defs>
<filter id="filter0_d_8_21" x="-4" y="0" width="2631.16" height="1703.32" filterUnits="userSpaceOnUse" color-interpolation-filters="sRGB">
<feFlood flood-opacity="0" result="BackgroundImageFix"/>
<feColorMatrix in="SourceAlpha" type="matrix" values="0 0 0 0 0 0 0 0 0 0 0 0 0 0 0 0 0 0 127 0" result="hardAlpha"/>
<feOffset dy="4"/>
<feGaussianBlur stdDeviation="2"/>
<feComposite in2="hardAlpha" operator="out"/>
<feColorMatrix type="matrix" values="0 0 0 0 0 0 0 0 0 0 0 0 0 0 0 0 0 0 0.25 0"/>
<feBlend mode="normal" in2="BackgroundImageFix" result="effect1_dropShadow_8_21"/>
<feBlend mode="normal" in="SourceGraphic" in2="effect1_dropShadow_8_21" result="shape"/>
</filter>
</defs>
</svg>
