<svg width="466" height="464" viewBox="0 0 466 464" fill="none" xmlns="http://www.w3.org/2000/svg">
<path d="M319.561 146.27H167.251C157.525 146.27 149.641 154.154 149.641 163.88V316.19C149.641 325.916 157.525 333.8 167.251 333.8H319.561C329.286 333.8 337.171 325.916 337.171 316.19V163.88C337.171 154.154 329.286 146.27 319.561 146.27Z" fill="#C5DCDD" stroke="black" stroke-width="6" stroke-linecap="round" stroke-linejoin="round"/>
<path d="M298.58 129.59H146.27C136.544 129.59 128.66 137.474 128.66 147.2V299.51C128.66 309.236 136.544 317.12 146.27 317.12H298.58C308.306 317.12 316.19 309.236 316.19 299.51V147.2C316.19 137.474 308.306 129.59 298.58 129.59Z" fill="#F4F1ED" stroke="#070707" stroke-width="6" stroke-linecap="round" stroke-linejoin="round"/>
<path d="M251.94 179.75H152.66V256.43H251.94V179.75Z" fill="#F4F1ED" stroke="#070707" stroke-width="6" stroke-linecap="round" stroke-linejoin="round"/>
<path d="M293.98 256.44H251.94V198.92H272.96L293.98 229.37V256.44Z" fill="#F4F1ED" stroke="#070707" stroke-width="6" stroke-linecap="round" stroke-linejoin="round"/>
<path d="M259.55 209.57H270.28L281.01 225.11H259.55V209.57Z" fill="#F4F1ED" stroke="#070707" stroke-width="6" stroke-linecap="round" stroke-linejoin="round"/>
<path d="M181.95 267.97C187.904 267.97 192.73 263.143 192.73 257.19C192.73 251.236 187.904 246.41 181.95 246.41C175.996 246.41 171.17 251.236 171.17 257.19C171.17 263.143 175.996 267.97 181.95 267.97Z" fill="#EFAF00" stroke="black" stroke-width="6" stroke-linecap="round" stroke-linejoin="round"/>
<path d="M272.82 267.97C278.774 267.97 283.6 263.143 283.6 257.19C283.6 251.236 278.774 246.41 272.82 246.41C266.866 246.41 262.04 251.236 262.04 257.19C262.04 263.143 266.866 267.97 272.82 267.97Z" fill="#EFAF00" stroke="black" stroke-width="6" stroke-linecap="round" stroke-linejoin="round"/>
<path d="M232.011 198.92H200.351" stroke="#070707" stroke-width="6" stroke-linecap="round" stroke-linejoin="round"/>
<path d="M220.59 212.02H188.93" stroke="#070707" stroke-width="6" stroke-linecap="round" stroke-linejoin="round"/>
<path d="M232.011 225.11H200.351" stroke="#070707" stroke-width="6" stroke-linecap="round" stroke-linejoin="round"/>
</svg>
