<svg width="2631" height="1696" viewBox="0 0 2631 1696" fill="none" xmlns="http://www.w3.org/2000/svg">
<path d="M712.62 432.87H331.12C311.088 432.87 294.85 449.109 294.85 469.14V959.72C294.85 979.751 311.088 995.99 331.12 995.99H712.62C732.651 995.99 748.89 979.751 748.89 959.72V469.14C748.89 449.109 732.651 432.87 712.62 432.87Z" fill="#EFAF00" stroke="black" stroke-width="6" stroke-linecap="round" stroke-linejoin="round"/>
<path d="M607.03 432.87H562.9V996.51H607.03V432.87Z" fill="#1C0E0C"/>
<path d="M1950.8 1259.11H2332.3C2352.33 1259.11 2368.57 1242.87 2368.57 1222.84V851.45C2368.57 831.419 2352.33 815.18 2332.3 815.18H1950.8C1930.77 815.18 1914.53 831.419 1914.53 851.45V1222.84C1914.53 1242.87 1930.77 1259.11 1950.8 1259.11Z" fill="#C5DCDD" stroke="black" stroke-width="6" stroke-linecap="round" stroke-linejoin="round"/>
<path d="M2056.39 1259.52H2100.52V815.18H2056.39V1259.52Z" fill="#1C0E0C"/>
<path d="M2017.52 321.86H642.729C622.229 321.86 605.609 338.479 605.609 358.98V1316.8C605.609 1337.3 622.229 1353.92 642.729 1353.92H2017.52C2038.02 1353.92 2054.64 1337.3 2054.64 1316.8V358.98C2054.64 338.479 2038.02 321.86 2017.52 321.86Z" fill="#F4F1ED" stroke="#070707" stroke-width="6" stroke-linecap="round" stroke-linejoin="round"/>
<path d="M605.609 407.74H2054.64" stroke="#070707" stroke-width="6" stroke-linecap="round" stroke-linejoin="round"/>
<path d="M821.299 357.23H813.959C808.165 357.23 803.469 361.927 803.469 367.72V375.06C803.469 380.853 808.165 385.55 813.959 385.55H821.299C827.092 385.55 831.789 380.853 831.789 375.06V367.72C831.789 361.927 827.092 357.23 821.299 357.23Z" fill="#FFEFF0"/>
<path d="M772.99 357.23H765.65C759.857 357.23 755.16 361.927 755.16 367.72V375.06C755.16 380.853 759.857 385.55 765.65 385.55H772.99C778.784 385.55 783.48 380.853 783.48 375.06V367.72C783.48 361.927 778.784 357.23 772.99 357.23Z" fill="#FFEFF0"/>
<path d="M724.68 357.23H717.34C711.546 357.23 706.85 361.927 706.85 367.72V375.06C706.85 380.853 711.546 385.55 717.34 385.55H724.68C730.473 385.55 735.17 380.853 735.17 375.06V367.72C735.17 361.927 730.473 357.23 724.68 357.23Z" fill="#FFEFF0"/>
<path d="M815.459 352.03H808.119C802.325 352.03 797.629 356.726 797.629 362.52V369.86C797.629 375.653 802.325 380.35 808.119 380.35H815.459C821.252 380.35 825.949 375.653 825.949 369.86V362.52C825.949 356.726 821.252 352.03 815.459 352.03Z" fill="#C5DCDD" stroke="black" stroke-width="6" stroke-linecap="round" stroke-linejoin="round"/>
<path d="M767.15 352.03H759.81C754.017 352.03 749.32 356.726 749.32 362.52V369.86C749.32 375.653 754.017 380.35 759.81 380.35H767.15C772.944 380.35 777.64 375.653 777.64 369.86V362.52C777.64 356.726 772.944 352.03 767.15 352.03Z" fill="#EFAF00" stroke="black" stroke-width="6" stroke-linecap="round" stroke-linejoin="round"/>
<path d="M718.83 352.03H711.49C705.697 352.03 701 356.726 701 362.52V369.86C701 375.653 705.697 380.35 711.49 380.35H718.83C724.623 380.35 729.32 375.653 729.32 369.86V362.52C729.32 356.726 724.623 352.03 718.83 352.03Z" fill="#F46F40" stroke="black" stroke-width="6" stroke-linecap="round" stroke-linejoin="round"/>
<path d="M1795.77 1051.08H881.62C871.894 1051.08 864.01 1058.96 864.01 1068.69V1222.53C864.01 1232.26 871.894 1240.14 881.62 1240.14H1795.77C1805.5 1240.14 1813.38 1232.26 1813.38 1222.53V1068.69C1813.38 1058.96 1805.5 1051.08 1795.77 1051.08Z" stroke="#070707" stroke-width="6" stroke-linecap="round" stroke-linejoin="round"/>
<path d="M1649.44 1103.61H1539.86V1188.25H1649.44V1103.61Z" fill="#EFAF00" stroke="black" stroke-width="6" stroke-linecap="round" stroke-linejoin="round"/>
<path d="M1695.84 1188.26H1649.44V1124.77H1672.64L1695.84 1158.38V1188.26Z" fill="#F4F1ED" stroke="#070707" stroke-width="6" stroke-linecap="round" stroke-linejoin="round"/>
<path d="M1657.84 1136.52H1669.68L1681.53 1153.68H1657.84V1136.52Z" fill="#F4F1ED" stroke="#070707" stroke-width="6" stroke-linecap="round" stroke-linejoin="round"/>
<path d="M1572.18 1200.98C1578.75 1200.98 1584.08 1195.65 1584.08 1189.08C1584.08 1182.51 1578.75 1177.18 1572.18 1177.18C1565.61 1177.18 1560.28 1182.51 1560.28 1189.08C1560.28 1195.65 1565.61 1200.98 1572.18 1200.98Z" fill="#F4F1ED" stroke="#070707" stroke-width="6" stroke-linecap="round" stroke-linejoin="round"/>
<path d="M1672.48 1200.98C1679.05 1200.98 1684.38 1195.65 1684.38 1189.08C1684.38 1182.51 1679.05 1177.18 1672.48 1177.18C1665.91 1177.18 1660.58 1182.51 1660.58 1189.08C1660.58 1195.65 1665.91 1200.98 1672.48 1200.98Z" fill="#F4F1ED" stroke="#070707" stroke-width="6" stroke-linecap="round" stroke-linejoin="round"/>
<path d="M1627.44 1124.77H1592.49" stroke="#070707" stroke-width="6" stroke-linecap="round" stroke-linejoin="round"/>
<path d="M1614.83 1139.22H1579.89" stroke="#070707" stroke-width="6" stroke-linecap="round" stroke-linejoin="round"/>
<path d="M1627.44 1153.68H1592.49" stroke="#070707" stroke-width="6" stroke-linecap="round" stroke-linejoin="round"/>
<path d="M1438.44 1200.83C1465.62 1200.83 1487.66 1178.79 1487.66 1151.61C1487.66 1124.43 1465.62 1102.39 1438.44 1102.39C1411.26 1102.39 1389.22 1124.43 1389.22 1151.61C1389.22 1178.79 1411.26 1200.83 1438.44 1200.83Z" fill="#F4F1ED" stroke="#070707" stroke-width="6" stroke-linecap="round" stroke-linejoin="round"/>
<path d="M1438.65 1102.54V1200.98" stroke="#070707" stroke-width="6" stroke-linecap="round" stroke-linejoin="round"/>
<path d="M1447.35 1102.84C1447.35 1102.84 1480.16 1140.91 1447.35 1200.68Z" fill="#F4F1ED"/>
<path d="M1447.35 1102.84C1447.35 1102.84 1480.16 1140.91 1447.35 1200.68" stroke="#070707" stroke-width="6" stroke-linecap="round" stroke-linejoin="round"/>
<path d="M1429.94 1102.84C1429.94 1102.84 1397.13 1140.91 1429.94 1200.68" stroke="#070707" stroke-width="6" stroke-linecap="round" stroke-linejoin="round"/>
<path d="M1389.43 1151.76H1487.87" stroke="#070707" stroke-width="6" stroke-linecap="round" stroke-linejoin="round"/>
<path d="M1408 1190.27C1408 1190.27 1437.79 1172.37 1468.65 1190.27" stroke="#070707" stroke-width="6" stroke-linecap="round" stroke-linejoin="round"/>
<path d="M1408 1113.47C1408 1113.47 1437.79 1131.37 1468.65 1113.47" stroke="#070707" stroke-width="6" stroke-linecap="round" stroke-linejoin="round"/>
<path d="M1295.88 1175.79C1315.81 1175.79 1331.96 1160.43 1331.96 1141.49C1331.96 1122.55 1315.81 1107.19 1295.88 1107.19C1275.95 1107.19 1259.8 1122.55 1259.8 1141.49C1259.8 1160.43 1275.95 1175.79 1295.88 1175.79Z" fill="#FFEFF0"/>
<path d="M1289.07 1173.07C1309.58 1173.07 1326.21 1157.27 1326.21 1137.77C1326.21 1118.27 1309.58 1102.47 1289.07 1102.47C1268.56 1102.47 1251.93 1118.27 1251.93 1137.77C1251.93 1157.27 1268.56 1173.07 1289.07 1173.07Z" fill="#EFAF00" stroke="black" stroke-width="6" stroke-linecap="round" stroke-linejoin="round"/>
<path d="M1307.64 1120.11C1310.07 1122.37 1312 1125.1 1313.33 1128.14C1314.65 1131.17 1315.34 1134.45 1315.34 1137.77C1315.34 1141.08 1314.65 1144.36 1313.33 1147.4C1312 1150.43 1310.07 1153.16 1307.64 1155.42" stroke="#070707" stroke-width="6" stroke-linecap="round" stroke-linejoin="round"/>
<path d="M1315.29 1175.09L1338.29 1199.29C1339.28 1200.3 1340.61 1200.9 1342.03 1200.97C1343.44 1201.04 1344.83 1200.57 1345.91 1199.66C1346.43 1199.22 1346.86 1198.68 1347.16 1198.07C1347.46 1197.46 1347.64 1196.8 1347.68 1196.12C1347.71 1195.44 1347.61 1194.76 1347.38 1194.12C1347.14 1193.48 1346.78 1192.89 1346.31 1192.4L1323.31 1168.21C1322.32 1167.2 1320.99 1166.6 1319.58 1166.53C1318.16 1166.46 1316.77 1166.92 1315.69 1167.83C1315.17 1168.27 1314.75 1168.81 1314.44 1169.42C1314.14 1170.03 1313.96 1170.69 1313.93 1171.37C1313.89 1172.05 1313.99 1172.73 1314.22 1173.37C1314.46 1174.01 1314.82 1174.6 1315.29 1175.09Z" fill="#EFAF00" stroke="black" stroke-width="6" stroke-linecap="round" stroke-linejoin="round"/>
<path d="M1194.88 1117.15H1125.18C1121.51 1117.15 1118.54 1120.12 1118.54 1123.79V1193.49C1118.54 1197.16 1121.51 1200.13 1125.18 1200.13H1194.88C1198.55 1200.13 1201.52 1197.16 1201.52 1193.49V1123.79C1201.52 1120.12 1198.55 1117.15 1194.88 1117.15Z" fill="#C5DCDD" stroke="black" stroke-width="6" stroke-linecap="round" stroke-linejoin="round"/>
<path d="M1175.59 1117.15H1112.11C1108.44 1117.15 1105.47 1120.12 1105.47 1123.79V1193.49C1105.47 1197.16 1108.44 1200.13 1112.11 1200.13H1175.59C1179.26 1200.13 1182.23 1197.16 1182.23 1193.49V1123.79C1182.23 1120.12 1179.26 1117.15 1175.59 1117.15Z" fill="#C5DCDD" stroke="black" stroke-width="6" stroke-linecap="round" stroke-linejoin="round"/>
<path d="M1145.1 1204.64V1111.93" stroke="#070707" stroke-width="6" stroke-linecap="round" stroke-linejoin="round"/>
<path d="M1101.39 1158.44H1205.2" stroke="#070707" stroke-width="6" stroke-linecap="round" stroke-linejoin="round"/>
<path d="M1157.53 1090.52H1163.63C1166.93 1090.52 1170.09 1091.83 1172.42 1094.16C1174.75 1096.49 1176.06 1099.65 1176.06 1102.95V1104.71C1176.06 1108.01 1174.75 1111.17 1172.42 1113.5C1170.09 1115.83 1166.93 1117.14 1163.63 1117.14H1145.1V1103C1145.1 1099.7 1146.41 1096.54 1148.74 1094.21C1151.07 1091.88 1154.23 1090.57 1157.53 1090.57V1090.52Z" stroke="#070707" stroke-width="6" stroke-linecap="round" stroke-linejoin="round"/>
<path d="M1144.96 1117.16H1128.03C1125.43 1117.16 1122.93 1116.13 1121.09 1114.28C1119.24 1112.44 1118.21 1109.94 1118.21 1107.34V1105.95C1118.21 1103.35 1119.24 1100.85 1121.09 1099.01C1122.93 1097.16 1125.43 1096.13 1128.03 1096.13H1135.17C1137.77 1096.13 1140.27 1097.16 1142.11 1099.01C1143.96 1100.85 1144.99 1103.35 1144.99 1105.95V1117.16H1144.96Z" stroke="#070707" stroke-width="6" stroke-linecap="round" stroke-linejoin="round"/>
<path d="M1160.58 1134.15L1144.96 1117.15L1135.4 1126.72" stroke="#070707" stroke-width="6" stroke-linecap="round" stroke-linejoin="round"/>
<path d="M1000.76 1089.75H1002.3C1005.18 1089.75 1007.95 1090.9 1009.99 1092.93C1012.03 1094.97 1013.17 1097.74 1013.17 1100.62V1115.46H989.891V1100.62C989.891 1097.74 991.036 1094.97 993.074 1092.93C995.113 1090.9 997.878 1089.75 1000.76 1089.75Z" stroke="#070707" stroke-width="6" stroke-linecap="round" stroke-linejoin="round"/>
<path d="M992.571 1089.75H994.111C996.994 1089.75 999.759 1090.9 1001.8 1092.93C1003.84 1094.97 1004.98 1097.74 1004.98 1100.62V1115.46H981.711V1100.62C981.711 1097.74 982.856 1094.97 984.895 1092.93C986.933 1090.9 989.698 1089.75 992.581 1089.75H992.571Z" stroke="#070707" stroke-width="6" stroke-linecap="round" stroke-linejoin="round"/>
<path d="M1037.23 1200.98H1012.09L1022.57 1115.41H1026.75L1037.23 1200.98Z" fill="#1C0E0C"/>
<path d="M1022.57 1115.41L1012.09 1200.98H952.391L962.861 1115.41H1022.57Z" fill="#EFAF00" stroke="black" stroke-width="6" stroke-linecap="round" stroke-linejoin="round"/>
<path d="M1506.14 702.7H1304.24C1294.51 702.7 1286.63 710.584 1286.63 720.31V922.21C1286.63 931.935 1294.51 939.82 1304.24 939.82H1506.14C1515.86 939.82 1523.75 931.935 1523.75 922.21V720.31C1523.75 710.584 1515.86 702.7 1506.14 702.7Z" fill="#1C0E0C"/>
<path d="M1496.29 692.72H1294.39C1284.66 692.72 1276.78 700.604 1276.78 710.33V912.23C1276.78 921.955 1284.66 929.84 1294.39 929.84H1496.29C1506.02 929.84 1513.9 921.955 1513.9 912.23V710.33C1513.9 700.604 1506.02 692.72 1496.29 692.72Z" fill="#F4F1ED" stroke="#070707" stroke-width="6" stroke-linecap="round" stroke-linejoin="round"/>
<path d="M1437.32 904H1369.84C1363.47 904 1357.17 902.561 1351.43 899.791C1345.69 897.02 1340.64 892.989 1336.68 887.999C1332.71 883.008 1329.92 877.186 1328.51 870.967C1327.11 864.748 1327.12 858.292 1328.56 852.08L1342.16 803.96C1342.63 801.924 1343.78 800.107 1345.41 798.805C1347.04 797.503 1349.07 796.793 1351.16 796.79H1456C1458.09 796.791 1460.12 797.501 1461.75 798.803C1463.39 800.105 1464.53 801.923 1465 803.96L1478.61 852.08C1480.05 858.292 1480.06 864.749 1478.65 870.968C1477.25 877.187 1474.46 883.008 1470.49 887.999C1466.52 892.989 1461.48 897.02 1455.73 899.79C1449.99 902.561 1443.7 904 1437.32 904Z" fill="#EFAF00"/>
<path d="M1429.17 896.68H1361.69C1355.31 896.68 1349.02 895.241 1343.28 892.47C1337.53 889.7 1332.49 885.669 1328.52 880.679C1324.55 875.688 1321.76 869.867 1320.36 863.648C1318.95 857.429 1318.96 850.972 1320.4 844.76L1334 796.64C1334.47 794.606 1335.62 792.791 1337.25 791.491C1338.89 790.191 1340.91 789.482 1343 789.48H1447.82C1449.91 789.482 1451.93 790.191 1453.57 791.491C1455.2 792.791 1456.35 794.606 1456.82 796.64L1470.43 844.76C1471.86 850.97 1471.88 857.424 1470.48 863.64C1469.07 869.857 1466.28 875.677 1462.32 880.667C1458.35 885.657 1453.31 889.688 1447.57 892.46C1441.83 895.233 1435.54 896.675 1429.17 896.68Z" stroke="#070707" stroke-width="6" stroke-linecap="round" stroke-linejoin="round"/>
<path d="M1436.28 781C1436.28 783.856 1436.07 786.707 1435.63 789.53H1355.23C1354.79 786.707 1354.58 783.856 1354.58 781C1354.58 754.66 1372.87 733.3 1395.43 733.3C1417.99 733.3 1436.28 754.61 1436.28 781Z" stroke="#070707" stroke-width="6" stroke-linecap="round" stroke-linejoin="round"/>
<path d="M1454.59 792.4C1453.21 823.79 1426.69 848.85 1395.43 848.85C1364.99 848.85 1337.65 823.8 1336.27 792.4C1337.14 791.478 1338.18 790.743 1339.34 790.241C1340.5 789.739 1341.75 789.48 1343.02 789.48H1447.84C1449.1 789.482 1450.36 789.741 1451.52 790.244C1452.68 790.746 1453.72 791.48 1454.59 792.4Z" stroke="#070707" stroke-width="6" stroke-linecap="round" stroke-linejoin="round"/>
<path d="M1399.5 839.63H1391.35V858.82H1399.5V839.63Z" stroke="#070707" stroke-width="6" stroke-linecap="round" stroke-linejoin="round"/>
<path d="M1466.9 721.85C1481.37 721.85 1493.11 710.115 1493.11 695.64C1493.11 681.164 1481.37 669.43 1466.9 669.43C1452.42 669.43 1440.69 681.164 1440.69 695.64C1440.69 710.115 1452.42 721.85 1466.9 721.85Z" fill="#C5DCDD" stroke="black" stroke-width="6" stroke-linecap="round" stroke-linejoin="round"/>
<path d="M1457.25 694.88L1465.85 707.03L1476.56 684.25" stroke="#070707" stroke-width="6" stroke-linecap="round" stroke-linejoin="round"/>
<path d="M1801.33 544.58H1291.28C1283.27 544.58 1276.78 551.071 1276.78 559.08V634.6C1276.78 642.608 1283.27 649.1 1291.28 649.1H1801.33C1809.34 649.1 1815.83 642.608 1815.83 634.6V559.08C1815.83 551.071 1809.34 544.58 1801.33 544.58Z" stroke="#070707" stroke-width="6" stroke-linecap="round" stroke-linejoin="round"/>
<path d="M1435.19 631.399H1361C1361 631.399 1340.71 598.799 1333.78 598.799C1329.78 598.799 1328.14 631.399 1328.14 631.399H1323.52C1323.52 631.399 1312.72 564.839 1324.69 561.029C1332.49 558.539 1353.61 565.139 1359.42 591.279C1364.31 613.279 1392.49 617.219 1395.62 602.699C1395.64 602.699 1433.87 613.999 1435.19 631.399Z" fill="#F4F1ED" stroke="#070707" stroke-width="6" stroke-linecap="round" stroke-linejoin="round"/>
<path d="M1625.46 615.42C1625.33 616.96 1622.54 624.34 1622.54 624.34L1480 619.51V611.51C1480.16 601.176 1482.53 590.995 1486.94 581.65C1490.64 573.93 1495.77 575.85 1495.77 575.85C1495.77 575.85 1509.71 589.48 1525.35 589.48C1526.71 589.469 1528.05 589.101 1529.23 588.413C1530.41 587.726 1531.39 586.742 1532.07 585.56C1532.99 584.12 1533.71 582.558 1534.2 580.92C1534.86 578.79 1535.32 576.604 1535.57 574.39C1535.69 573.454 1536.03 572.56 1536.57 571.785C1537.11 571.009 1537.82 570.375 1538.66 569.934C1539.49 569.494 1540.42 569.261 1541.37 569.255C1542.31 569.249 1543.24 569.47 1544.08 569.9C1550.22 573.05 1557.68 580.12 1577.63 590.9L1580.73 592.55C1605 605.35 1625.21 600.6 1625.46 615.42Z" fill="#F4F1ED" stroke="#070707" stroke-width="6" stroke-linecap="round" stroke-linejoin="round"/>
<path d="M1609.43 631.4C1613.56 631.4 1618.6 629.53 1621.3 626.5C1622.98 624.525 1624.19 622.192 1624.83 619.679C1625.47 617.165 1625.53 614.539 1625 612H1624.89C1624.32 615.024 1622.73 617.761 1620.38 619.752C1618.04 621.744 1615.08 622.869 1612 622.94L1488.39 619.32C1486.49 619.259 1484.66 618.612 1483.14 617.465C1481.63 616.319 1480.5 614.731 1479.93 612.919V621.229C1479.93 626.839 1484.01 631.4 1489.04 631.4H1609.43Z" fill="#EFAF00" stroke="black" stroke-width="6" stroke-linecap="round" stroke-linejoin="round"/>
<path d="M1583 593.77C1552.12 583.21 1536.67 578.43 1534.14 580.96C1534.8 578.83 1535.26 576.644 1535.51 574.43C1535.63 573.494 1535.97 572.6 1536.51 571.825C1537.05 571.049 1537.76 570.415 1538.6 569.974C1539.43 569.534 1540.36 569.301 1541.3 569.295C1542.25 569.289 1543.18 569.51 1544.02 569.94C1550.18 573.09 1560.45 582.48 1583 593.77Z" fill="#EFAF00" stroke="black" stroke-width="6" stroke-linecap="round" stroke-linejoin="round"/>
<path d="M1549.32 579.87L1554.92 571.35C1555.25 570.851 1555.67 570.425 1556.17 570.096C1556.66 569.767 1557.22 569.543 1557.81 569.437C1558.4 569.332 1559 569.346 1559.58 569.481C1560.16 569.615 1560.71 569.867 1561.19 570.22C1562.05 570.85 1562.65 571.772 1562.88 572.813C1563.11 573.854 1562.96 574.944 1562.45 575.88L1561.7 577.24" stroke="#070707" stroke-width="6" stroke-linecap="round" stroke-linejoin="round"/>
<path d="M1563.72 584.289L1567.82 578.159C1568.11 577.73 1568.49 577.366 1568.93 577.088C1569.37 576.81 1569.87 576.625 1570.38 576.544C1570.9 576.462 1571.42 576.487 1571.93 576.615C1572.43 576.743 1572.91 576.972 1573.32 577.289C1574.07 577.855 1574.59 578.677 1574.77 579.599C1574.96 580.521 1574.79 581.479 1574.32 582.289L1572.84 584.969" stroke="#070707" stroke-width="6" stroke-linecap="round" stroke-linejoin="round"/>
<path d="M1584.39 590.82C1586.03 588.6 1585.63 586.03 1583.99 584.82C1583.55 584.492 1583.04 584.258 1582.51 584.131C1581.97 584.004 1581.42 583.986 1580.88 584.08C1580.33 584.173 1579.82 584.376 1579.35 584.675C1578.89 584.974 1578.5 585.363 1578.19 585.82L1575.68 589.93" stroke="#070707" stroke-width="6" stroke-linecap="round" stroke-linejoin="round"/>
<path d="M1768.58 567C1780.96 567 1791 556.962 1791 544.58C1791 532.197 1780.96 522.16 1768.58 522.16C1756.2 522.16 1746.16 532.197 1746.16 544.58C1746.16 556.962 1756.2 567 1768.58 567Z" fill="#F46F40" stroke="black" stroke-width="6" stroke-linecap="round" stroke-linejoin="round"/>
<path d="M1761.21 552.23L1775.95 536.93" stroke="#070707" stroke-width="6" stroke-linecap="round" stroke-linejoin="round"/>
<path d="M1775.95 552.23L1761.21 536.93" stroke="#070707" stroke-width="6" stroke-linecap="round" stroke-linejoin="round"/>
<path d="M1668.36 595.65C1668.36 595.65 1652.41 631.4 1675.6 631.4H1783.48C1783.48 631.4 1787.82 613.89 1759.8 609.4C1755.91 608.78 1744.8 606.64 1744.8 606.64C1744.8 606.64 1748.26 620.64 1723.61 619.54C1698.96 618.44 1687.79 597.41 1668.36 595.65Z" fill="#F4F1ED" stroke="#070707" stroke-width="6" stroke-linecap="round" stroke-linejoin="round"/>
<path d="M1241.44 560.54H897.389C887.664 560.54 879.779 568.424 879.779 578.15V922.2C879.779 931.926 887.664 939.81 897.389 939.81H1241.44C1251.16 939.81 1259.05 931.926 1259.05 922.2V578.15C1259.05 568.424 1251.16 560.54 1241.44 560.54Z" fill="#1C0E0C"/>
<path d="M1225.67 544.58H881.62C871.894 544.58 864.01 552.464 864.01 562.19V906.24C864.01 915.966 871.894 923.85 881.62 923.85H1225.67C1235.4 923.85 1243.28 915.966 1243.28 906.24V562.19C1243.28 552.464 1235.4 544.58 1225.67 544.58Z" fill="#EFAF00" stroke="black" stroke-width="6" stroke-linecap="round" stroke-linejoin="round"/>
<path d="M1194.74 697.86L1144.38 740.51V854.74H976.74V740.51L926.4 697.86L965 649.77C976.71 639.58 994.55 637.98 1007.49 637.98H1118.31C1144.31 637.98 1150.9 642.88 1157.65 648.19L1194.74 697.86Z" fill="#1C0E0C"/>
<path d="M1190.5 690.06L1139.24 733.48V849.78H968.561V733.48L917.311 690.06L956.631 641.06C968.561 630.69 986.721 629.06 999.901 629.06H1112.73C1139.2 629.06 1145.9 634.06 1152.73 639.46L1190.5 690.06Z" fill="#F4F1ED" stroke="#070707" stroke-width="6" stroke-linecap="round" stroke-linejoin="round"/>
<path d="M968.561 733.48V692.33" stroke="#070707" stroke-width="6" stroke-linecap="round" stroke-linejoin="round"/>
<path d="M1139.2 733.87V692.72" stroke="#070707" stroke-width="6" stroke-linecap="round" stroke-linejoin="round"/>
<path d="M1053.9 666.98V849.78" stroke="#070707" stroke-width="6" stroke-linecap="round" stroke-linejoin="round"/>
<path d="M1106.91 629.1H1068.48C1068.12 629.1 1067.77 629.212 1067.47 629.419C1067.18 629.627 1066.96 629.921 1066.84 630.26L1053.9 667L1040.29 630.59C1040.13 630.159 1039.84 629.787 1039.46 629.525C1039.08 629.262 1038.63 629.121 1038.17 629.12H1000.29L1018.7 613.45C1022.82 609.943 1028.05 608.018 1033.46 608.02H1073.74C1079.15 608.016 1084.39 609.941 1088.51 613.45L1106.91 629.1Z" fill="#F4F1ED" stroke="#070707" stroke-width="6" stroke-linecap="round" stroke-linejoin="round"/>
<path d="M1026.62 613.54L1039.73 629.1L1024.73 650.52L1000.27 629.1L1019.43 612.93C1019.94 612.496 1020.53 612.168 1021.17 611.964C1021.81 611.76 1022.48 611.684 1023.15 611.741C1023.82 611.798 1024.47 611.986 1025.06 612.294C1025.66 612.603 1026.19 613.027 1026.62 613.54Z" fill="#F4F1ED" stroke="#070707" stroke-width="6" stroke-linecap="round" stroke-linejoin="round"/>
<path d="M1080.59 613.54L1067.47 629.1L1082.47 650.52L1106.93 629.1L1087.77 612.93C1087.26 612.498 1086.67 612.171 1086.03 611.968C1085.39 611.765 1084.72 611.689 1084.05 611.746C1083.39 611.802 1082.74 611.99 1082.14 612.298C1081.55 612.606 1081.02 613.028 1080.59 613.54Z" fill="#F4F1ED" stroke="#070707" stroke-width="6" stroke-linecap="round" stroke-linejoin="round"/>
<path d="M1079.55 695.64H1113.55V727.89C1113.55 729.569 1112.88 731.179 1111.7 732.366C1110.51 733.553 1108.9 734.22 1107.22 734.22H1085.88C1084.2 734.22 1082.59 733.553 1081.4 732.366C1080.22 731.179 1079.55 729.569 1079.55 727.89V695.64Z" fill="#F4F1ED" stroke="#070707" stroke-width="6" stroke-linecap="round" stroke-linejoin="round"/>
<path d="M1043.46 684.52C1045.74 684.52 1047.59 682.671 1047.59 680.39C1047.59 678.109 1045.74 676.26 1043.46 676.26C1041.18 676.26 1039.33 678.109 1039.33 680.39C1039.33 682.671 1041.18 684.52 1043.46 684.52Z" fill="#1C0E0C"/>
<path d="M1043.46 716.13C1045.74 716.13 1047.59 714.281 1047.59 712C1047.59 709.719 1045.74 707.87 1043.46 707.87C1041.18 707.87 1039.33 709.719 1039.33 712C1039.33 714.281 1041.18 716.13 1043.46 716.13Z" fill="#1C0E0C"/>
<path d="M1043.46 747.74C1045.74 747.74 1047.59 745.891 1047.59 743.61C1047.59 741.329 1045.74 739.48 1043.46 739.48C1041.18 739.48 1039.33 741.329 1039.33 743.61C1039.33 745.891 1041.18 747.74 1043.46 747.74Z" fill="#1C0E0C"/>
<path d="M1043.46 779.35C1045.74 779.35 1047.59 777.501 1047.59 775.22C1047.59 772.939 1045.74 771.09 1043.46 771.09C1041.18 771.09 1039.33 772.939 1039.33 775.22C1039.33 777.501 1041.18 779.35 1043.46 779.35Z" fill="#1C0E0C"/>
<path d="M1043.46 810.96C1045.74 810.96 1047.59 809.111 1047.59 806.83C1047.59 804.549 1045.74 802.7 1043.46 802.7C1041.18 802.7 1039.33 804.549 1039.33 806.83C1039.33 809.111 1041.18 810.96 1043.46 810.96Z" fill="#1C0E0C"/>
<path d="M1174.56 593.49C1197.26 593.49 1215.66 575.089 1215.66 552.39C1215.66 529.691 1197.26 511.29 1174.56 511.29C1151.86 511.29 1133.46 529.691 1133.46 552.39C1133.46 575.089 1151.86 593.49 1174.56 593.49Z" fill="#F4F1ED" stroke="#070707" stroke-width="6" stroke-linecap="round" stroke-linejoin="round"/>
<path d="M1164 534C1158.73 534 1155.18 538.08 1155.18 544.13C1155.18 550.58 1158.42 554.44 1163.84 554.44C1169.26 554.44 1172.58 550.44 1172.58 543.92C1172.55 537.82 1169.27 534 1164 534ZM1163.93 550.61C1160.31 550.61 1159.77 546.51 1159.77 544.08C1159.77 540.08 1161.25 537.83 1163.93 537.83C1167.34 537.83 1168.05 541.17 1168.05 543.99C1168 548.4 1166.63 550.63 1163.9 550.63L1163.93 550.61Z" fill="#1C0E0C"/>
<path d="M1186.41 548.59C1181.23 548.59 1177.6 552.76 1177.6 558.72C1177.6 565.08 1180.92 569.02 1186.26 569.02C1191.6 569.02 1195 565.02 1195 558.5C1195 552.39 1191.71 548.59 1186.41 548.59ZM1186.35 565.19C1182.73 565.19 1182.19 561.1 1182.19 558.67C1182.19 554.67 1183.71 552.41 1186.35 552.41C1189.76 552.41 1190.46 555.76 1190.46 558.57C1190.46 562.78 1189 565.19 1186.35 565.19Z" fill="#1C0E0C"/>
<path d="M1188.87 534.48L1165.91 568.65H1161.33L1184.27 534.48H1188.87Z" fill="#1C0E0C"/>
<path d="M1802.81 702.7H1600.91C1591.18 702.7 1583.3 710.584 1583.3 720.31V922.21C1583.3 931.935 1591.18 939.82 1600.91 939.82H1802.81C1812.53 939.82 1820.42 931.935 1820.42 922.21V720.31C1820.42 710.584 1812.53 702.7 1802.81 702.7Z" fill="#1C0E0C"/>
<path d="M1792.95 692.72H1591.05C1581.32 692.72 1573.44 700.604 1573.44 710.33V912.23C1573.44 921.955 1581.32 929.84 1591.05 929.84H1792.95C1802.68 929.84 1810.56 921.955 1810.56 912.23V710.33C1810.56 700.604 1802.68 692.72 1792.95 692.72Z" fill="#C5DCDD" stroke="black" stroke-width="6" stroke-linecap="round" stroke-linejoin="round"/>
<path d="M1757.07 783.9H1648.95C1645.28 783.9 1642.31 786.873 1642.31 790.54V884.61C1642.31 888.277 1645.28 891.25 1648.95 891.25H1757.07C1760.74 891.25 1763.71 888.277 1763.71 884.61V790.54C1763.71 786.873 1760.74 783.9 1757.07 783.9Z" fill="white"/>
<path d="M1763.84 786.36V880.1C1763.84 881.563 1763.56 883.013 1763 884.365C1762.44 885.717 1761.62 886.946 1760.58 887.98C1759.55 889.015 1758.32 889.836 1756.97 890.395C1755.61 890.954 1754.16 891.241 1752.7 891.24H1725.7C1728.66 891.24 1731.49 890.067 1733.58 887.977C1735.67 885.888 1736.84 883.055 1736.84 880.1V786.36C1736.84 784.896 1736.56 783.446 1736 782.093C1735.44 780.739 1734.62 779.509 1733.58 778.473C1732.55 777.437 1731.32 776.614 1729.97 776.053C1728.62 775.491 1727.17 775.202 1725.7 775.2H1752.7C1754.17 775.202 1755.62 775.491 1756.97 776.053C1758.32 776.614 1759.55 777.437 1760.58 778.473C1761.62 779.509 1762.44 780.739 1763 782.093C1763.56 783.446 1763.84 784.896 1763.84 786.36Z" stroke="#070707" stroke-width="6" stroke-linecap="round" stroke-linejoin="round"/>
<path d="M1736.87 786.36V880.1C1736.87 883.055 1735.7 885.888 1733.61 887.977C1731.52 890.067 1728.68 891.24 1725.73 891.24H1640.73C1639.27 891.241 1637.82 890.954 1636.46 890.395C1635.11 889.836 1633.88 889.015 1632.85 887.981C1631.81 886.946 1630.99 885.718 1630.43 884.366C1629.87 883.013 1629.58 881.564 1629.58 880.1V786.36C1629.58 783.402 1630.75 780.565 1632.85 778.472C1634.94 776.38 1637.77 775.203 1640.73 775.2H1725.73C1727.19 775.202 1728.64 775.491 1730 776.053C1731.35 776.614 1732.58 777.437 1733.61 778.473C1734.65 779.509 1735.47 780.739 1736.03 782.093C1736.58 783.446 1736.87 784.896 1736.87 786.36Z" stroke="#070707" stroke-width="6" stroke-linecap="round" stroke-linejoin="round"/>
<path d="M1684.94 896.46V766.81" stroke="#070707" stroke-width="6" stroke-linecap="round" stroke-linejoin="round"/>
<path d="M1624.9 832.94H1767.89" stroke="#070707" stroke-width="6" stroke-linecap="round" stroke-linejoin="round"/>
<path d="M1702.33 738H1710.86C1715.47 738 1719.89 739.832 1723.16 743.093C1726.42 746.355 1728.25 750.778 1728.25 755.39V757.86C1728.25 762.472 1726.42 766.895 1723.16 770.157C1719.89 773.418 1715.47 775.25 1710.86 775.25H1684.94V755.35C1684.95 750.745 1686.79 746.332 1690.05 743.079C1693.31 739.827 1697.72 738 1702.33 738Z" stroke="#070707" stroke-width="6" stroke-linecap="round" stroke-linejoin="round"/>
<path d="M1684.74 775.21H1661.08C1657.44 775.21 1653.95 773.763 1651.37 771.189C1648.8 768.614 1647.35 765.121 1647.35 761.48V759.53C1647.35 755.889 1648.8 752.396 1651.37 749.821C1653.95 747.246 1657.44 745.8 1661.08 745.8H1671.02C1674.66 745.8 1678.15 747.246 1680.73 749.821C1683.3 752.396 1684.75 755.889 1684.75 759.53V775.21H1684.74Z" stroke="#070707" stroke-width="6" stroke-linecap="round" stroke-linejoin="round"/>
<path d="M1706.59 798.97L1684.74 775.2L1671.37 788.58" stroke="#070707" stroke-width="6" stroke-linecap="round" stroke-linejoin="round"/>
<path d="M1914.53 1070.94H1750.11V1107.19H1914.53V1070.94Z" fill="#1C0E0C"/>
</svg>
