<svg width="466" height="464" viewBox="0 0 466 464" fill="none" xmlns="http://www.w3.org/2000/svg">
<path d="M319.56 146.27H167.25C157.524 146.27 149.64 154.154 149.64 163.88V316.19C149.64 325.916 157.524 333.8 167.25 333.8H319.56C329.286 333.8 337.17 325.916 337.17 316.19V163.88C337.17 154.154 329.286 146.27 319.56 146.27Z" fill="#EFAF00" stroke="black" stroke-width="6" stroke-linecap="round" stroke-linejoin="round"/>
<path d="M298.58 129.59H146.27C136.544 129.59 128.66 137.474 128.66 147.2V299.51C128.66 309.236 136.544 317.12 146.27 317.12H298.58C308.306 317.12 316.19 309.236 316.19 299.51V147.2C316.19 137.474 308.306 129.59 298.58 129.59Z" fill="#F4F1ED" stroke="#070707" stroke-width="6" stroke-linecap="round" stroke-linejoin="round"/>
<path d="M269.99 280.5H242.16L253.76 185.75H258.4L269.99 280.5Z" fill="#C5DCDD" stroke="black" stroke-width="6" stroke-linecap="round" stroke-linejoin="round"/>
<path d="M253.76 185.75L242.16 280.5H176.06L187.65 185.75H253.76Z" fill="#F4F1ED" stroke="#070707" stroke-width="6" stroke-linecap="round" stroke-linejoin="round"/>
<path d="M229 157.33H231.94C234.969 157.33 237.874 158.533 240.015 160.675C242.157 162.817 243.36 165.721 243.36 168.75V185.8H217.58V168.75C217.58 165.721 218.783 162.817 220.925 160.675C223.067 158.533 225.971 157.33 229 157.33Z" fill="#F4F1ED" stroke="#070707" stroke-width="6" stroke-linecap="round" stroke-linejoin="round"/>
<path d="M219.93 157.33H222.87C225.899 157.33 228.804 158.533 230.945 160.675C233.087 162.817 234.29 165.721 234.29 168.75V185.8H208.52V168.75C208.52 165.723 209.722 162.82 211.861 160.678C214.001 158.537 216.903 157.333 219.93 157.33Z" fill="#F4F1ED" stroke="#070707" stroke-width="6" stroke-linecap="round" stroke-linejoin="round"/>
</svg>
