<svg width="2631" height="1696" viewBox="0 0 2631 1696" fill="none" xmlns="http://www.w3.org/2000/svg">
<path d="M459.53 1101.79C551.9 1139.15 612 1189.41 651 1240L644.51 1296.72L668.84 1265.32C729.52 1359.93 709.16 1449.68 709.16 1449.68L685.97 1449.54C571.32 1448.86 473.82 1364.7 457.58 1251.21C457.4 1250.01 457.24 1248.81 457.08 1247.61L499.59 1242.04L454.09 1217.48C449.85 1153.19 459.53 1101.79 459.53 1101.79Z" fill="#1C0E0C"/>
<path d="M445.81 1104.25C538.19 1141.61 598.28 1191.87 637.32 1242.51L630.84 1299.22L655.16 1267.82C715.85 1362.43 709.05 1451.05 709.05 1451.05L673.41 1451.16C558.47 1451.54 460.19 1367.5 443.9 1253.72C443.73 1252.51 443.56 1251.31 443.4 1250.11L485.92 1244.54L440.41 1220C436.14 1155.65 445.81 1104.25 445.81 1104.25Z" fill="#EFAF00" stroke="black" stroke-width="6" stroke-linecap="round" stroke-linejoin="round"/>
<path d="M444.93 1260.5L591.15 1333.42" stroke="#070707" stroke-width="6" stroke-linecap="round" stroke-linejoin="round"/>
<path d="M540.86 1267.7L537.34 1151.48" stroke="#070707" stroke-width="6" stroke-linecap="round" stroke-linejoin="round"/>
<path d="M445.81 1104.25C445.81 1104.25 534.06 1310.03 709.05 1451.05" stroke="#070707" stroke-width="6" stroke-linecap="round" stroke-linejoin="round"/>
<path d="M2215.07 590C2215.07 590 2154.86 588.14 2181.42 688.2C2207.98 788.26 2096.8 778.4 2076.93 826.14C2066.31 851.67 2122.14 976.95 2026.5 1021.26C1947.88 1057.69 1863.17 1095.34 1841.65 1177.18L1817.5 972C1817.5 972 1799.05 879 1882.12 857.87C2006.67 826.14 1940.12 749.96 1974.21 705.56C2011.66 656.86 2070.04 688.7 2093.94 657.94C2111.47 635.42 2135.16 550.63 2215.07 590Z" fill="#EFAF00" stroke="black" stroke-width="6" stroke-linecap="round" stroke-linejoin="round"/>
<path d="M2214.88 590C2213.66 590.01 2212.43 590.097 2211.22 590.26C2202.06 589.49 2177.27 588.83 2161.63 601.93C2152.78 609.35 2148.12 620.15 2147.79 634.03C2147.1 662.97 2144.92 682.39 2135.79 696.03C2126.38 710.14 2109.97 717.6 2080.9 720.98C2052.9 724.23 2031.9 734.68 2019.9 751.19C2008.9 766.38 2005.71 786.77 2010.56 810.19C2014.91 831.19 2017.41 862.19 2004.63 891.04C1990.69 922.46 1961.92 944.34 1919.11 956.04C1895.93 962.39 1876.74 971.98 1862.11 984.54C1850.72 994.174 1841.72 1006.31 1835.8 1020C1825.95 1042.93 1828.41 1062.64 1828.44 1062.84H1828.19L1825.55 1040.43C1826.88 1032.85 1829.09 1025.45 1832.13 1018.38C1838.3 1004.14 1847.68 991.529 1859.53 981.52C1874.65 968.58 1894.36 958.71 1918.12 952.21C2015.17 925.63 2015.28 852.34 2006.71 811.01C2001.63 786.5 2005.09 765.01 2016.71 748.89C2029.3 731.44 2051.35 720.43 2080.45 717.04C2108.24 713.81 2123.79 706.87 2132.45 693.84C2140.99 681.02 2143.05 662.18 2143.73 633.97C2144.09 618.89 2149.23 607.08 2159.01 598.9C2165.01 593.9 2176.2 587.55 2195.14 586.19C2198.72 585.936 2202.3 585.862 2205.89 585.97C2208.85 587.12 2211.82 588.44 2214.88 590Z" fill="#070707"/>
<path d="M688.65 1136.79C688.65 1136.79 562.91 1142.79 545.17 1024.42C528.82 915.36 606.3 879.76 551.84 838.58C497.38 797.4 464.35 765.41 489.41 712.4C512.41 663.69 498.71 632.7 464.17 642C464.17 642 504.17 588.51 560.25 631.57C612.5 671.66 552.39 746.02 621.35 746.93C688.65 747.82 739.13 772.45 729.11 852.93C725.27 883.69 702.91 927.02 739.35 973.19C790.36 1037.83 688.65 1136.79 688.65 1136.79Z" stroke="#070707" stroke-width="6" stroke-linecap="round" stroke-linejoin="round"/>
<path d="M462.84 640.66C462.84 640.66 563.79 594.85 542.54 707.13C523.73 806.51 624.34 763.54 651.46 847.82C676.7 926.25 624.07 1059.28 729.71 1085.14" stroke="#070707" stroke-width="6" stroke-linecap="round" stroke-linejoin="round"/>
<path d="M2177.69 1053.83C2151.07 1149.83 2107.97 1215.26 2062.09 1259.83H2005L2039 1280.43C1951.9 1351.43 1860.42 1341.43 1860.42 1341.43L1847.69 1223.93C1875.76 1129.56 1957.46 1086.93 2032.53 1068.02L2042.9 1109.63L2062.12 1061.63C2125.53 1050.06 2177.69 1053.83 2177.69 1053.83Z" fill="#1C0E0C"/>
<path d="M2173.69 1040.48C2147.07 1136.48 2103.96 1201.92 2058.09 1246.48H2001L2035 1267.09C1947.9 1338.09 1859.08 1341.44 1859.08 1341.44L1843.68 1210.6C1871.76 1116.23 1953.45 1073.65 2028.53 1054.68L2038.89 1096.29L2058.12 1048.29C2121.52 1036.71 2173.69 1040.48 2173.69 1040.48Z" fill="#F4F1ED" stroke="#070707" stroke-width="6" stroke-linecap="round" stroke-linejoin="round"/>
<path d="M1853.65 1295.51L2173.69 1040.48" stroke="#070707" stroke-width="6" stroke-linecap="round" stroke-linejoin="round"/>
<path d="M2018.35 1057.36L1962.29 1208.93" stroke="#070707" stroke-width="6" stroke-linecap="round" stroke-linejoin="round"/>
<path d="M2041.38 1145.91L2137.17 1136.79" stroke="#070707" stroke-width="6" stroke-linecap="round" stroke-linejoin="round"/>
<path d="M1870.13 1281.6L2034.97 1267.07" stroke="#070707" stroke-width="6" stroke-linecap="round" stroke-linejoin="round"/>
<path d="M617.98 323.75H978.53V148.42H617.98L664.69 236.09L617.98 323.75Z" fill="#1C0E0C"/>
<path d="M629.32 311.74H989.88V136.41H629.32L676.03 224.08L629.32 311.74Z" fill="#F4F1ED" stroke="#070707" stroke-width="6" stroke-linecap="round" stroke-linejoin="round"/>
<path d="M989.87 136.41V851.34" stroke="#070707" stroke-width="8" stroke-linecap="round" stroke-linejoin="round"/>
<path d="M1724.94 391L1613.08 1341.42H991.33L1103.18 391H1724.94Z" fill="#C5DCDD"/>
<path d="M1859.05 1341.42H1591.5L1704.92 377.65H1745.63L1859.05 1341.42Z" stroke="#070707" stroke-width="6" stroke-linecap="round" stroke-linejoin="round"/>
<path d="M1704.92 377.65L1591.5 1341.42H969.74L1083.17 377.65H1704.92Z" stroke="#070707" stroke-width="6" stroke-linecap="round" stroke-linejoin="round"/>
<path d="M1459 194.36C1485.49 194.36 1510.89 204.883 1529.63 223.615C1548.36 242.346 1558.88 267.751 1558.88 294.24V377.65H1359.09V294.24C1359.09 281.121 1361.67 268.131 1366.7 256.011C1371.72 243.891 1379.08 232.879 1388.35 223.604C1397.63 214.329 1408.65 206.972 1420.77 201.955C1432.89 196.937 1445.88 194.356 1459 194.36Z" fill="#F4F1ED" stroke="#070707" stroke-width="6" stroke-linecap="round" stroke-linejoin="round"/>
<path d="M1391.58 194.36C1418.07 194.36 1443.47 204.883 1462.21 223.615C1480.94 242.346 1491.46 267.751 1491.46 294.24V377.65H1291.7V294.24C1291.7 267.751 1302.22 242.346 1320.95 223.615C1339.69 204.883 1365.09 194.36 1391.58 194.36Z" stroke="#070707" stroke-width="6" stroke-linecap="round" stroke-linejoin="round"/>
<path d="M1625.56 671.89H1534.49L1546.09 539.24C1548.29 514.09 1570.46 493.7 1595.62 493.7C1620.77 493.7 1639.37 514.09 1637.17 539.24L1625.56 671.89Z" fill="white"/>
<path d="M1617.56 663.88H1526.48L1538.09 531.23C1540.29 506.08 1562.46 485.69 1587.61 485.69C1612.76 485.69 1631.36 506.08 1629.16 531.23L1617.56 663.88Z" stroke="#070707" stroke-width="6" stroke-linecap="round" stroke-linejoin="round"/>
<path d="M1590.85 529.481C1594.94 525.559 1595.35 519.336 1591.76 515.582C1588.16 511.828 1581.93 511.964 1577.83 515.886C1573.74 519.809 1573.33 526.032 1576.92 529.786C1580.51 533.54 1586.75 533.404 1590.85 529.481Z" stroke="#070707" stroke-width="6" stroke-linecap="round" stroke-linejoin="round"/>
<path d="M1584.69 519.05L1597.69 370.8C1598.13 365.772 1600.43 361.09 1604.16 357.68C1607.88 354.27 1612.74 352.379 1617.79 352.38C1620.44 352.379 1623.06 352.9 1625.51 353.913C1627.96 354.926 1630.18 356.411 1632.06 358.284C1633.93 360.158 1635.42 362.382 1636.43 364.829C1637.45 367.277 1637.97 369.901 1637.97 372.55V377.66" stroke="#070707" stroke-width="6" stroke-linecap="round" stroke-linejoin="round"/>
<path d="M1578.67 616C1580.99 615.635 1583.14 614.567 1584.84 612.94C1586.31 611.514 1587.21 609.608 1587.39 607.57C1587.54 606.658 1587.47 605.723 1587.2 604.84C1586.92 603.957 1586.45 603.15 1585.81 602.48C1584.16 601.074 1582.21 600.05 1580.12 599.48L1575.44 598.08C1572.61 597.323 1569.86 596.275 1567.24 594.95C1565.11 593.842 1563.34 592.144 1562.14 590.06C1560.84 587.547 1560.35 584.693 1560.74 581.89C1560.99 577.814 1562.81 573.992 1565.81 571.22C1568.82 568.44 1572.95 566.827 1578.21 566.38H1583.01C1585.35 566.57 1587.65 567.13 1589.81 568.04C1591.68 568.879 1593.3 570.18 1594.53 571.82C1595.5 573.022 1596.27 574.373 1596.81 575.82C1597.28 577.008 1597.49 578.285 1597.41 579.56C1597.3 580.825 1596.7 581.997 1595.74 582.83C1594.8 583.721 1593.56 584.216 1592.27 584.21C1589.8 584.21 1588.27 582.88 1587.82 580.21C1587.61 578.747 1586.99 577.374 1586.02 576.26C1585.04 575.145 1583.77 574.336 1582.35 573.93L1577.56 573.78C1575.69 574.267 1573.93 575.116 1572.39 576.28C1571.72 576.867 1571.18 577.587 1570.8 578.395C1570.42 579.202 1570.22 580.079 1570.2 580.97C1570.06 581.771 1570.1 582.592 1570.32 583.374C1570.54 584.157 1570.93 584.88 1571.47 585.49C1572.87 586.739 1574.52 587.685 1576.3 588.27L1580.98 589.67C1584.03 590.53 1586.45 591.314 1588.24 592.02C1590.02 592.672 1591.64 593.687 1593 595C1594.44 596.392 1595.53 598.105 1596.18 600C1596.86 602.039 1597.11 604.201 1596.89 606.34C1596.64 609.214 1595.7 611.985 1594.16 614.42C1592.54 616.975 1590.3 619.086 1587.66 620.56C1584.71 622.208 1581.44 623.178 1578.07 623.4L1573.26 623.48C1570.64 623.232 1568.09 622.528 1565.71 621.4C1563.73 620.435 1561.96 619.074 1560.53 617.4C1559.27 615.963 1558.3 614.291 1557.69 612.48C1557.15 610.873 1556.93 609.172 1557.07 607.48C1557.2 606.214 1557.81 605.044 1558.77 604.21C1559.75 603.259 1561.07 602.734 1562.44 602.75C1563.43 602.711 1564.42 602.991 1565.24 603.55C1565.98 604.083 1566.5 604.881 1566.67 605.78C1567.04 607.388 1567.49 608.974 1568.04 610.53C1568.47 611.668 1569.16 612.694 1570.04 613.53C1571.15 614.526 1572.48 615.24 1573.93 615.61L1578.67 616Z" fill="#1C0E0C"/>
<path d="M1575.17 629H1575C1574.74 628.978 1574.48 628.904 1574.25 628.782C1574.02 628.661 1573.81 628.495 1573.64 628.293C1573.47 628.092 1573.34 627.859 1573.26 627.608C1573.18 627.357 1573.16 627.093 1573.18 626.83L1578.91 561.3C1578.93 561.038 1579.01 560.782 1579.13 560.548C1579.25 560.315 1579.42 560.107 1579.62 559.938C1579.82 559.768 1580.05 559.64 1580.31 559.561C1580.56 559.481 1580.82 559.452 1581.08 559.475C1581.35 559.498 1581.6 559.573 1581.84 559.695C1582.07 559.816 1582.28 559.983 1582.45 560.185C1582.62 560.387 1582.75 560.62 1582.82 560.872C1582.9 561.123 1582.93 561.388 1582.91 561.65L1577.18 627.18C1577.13 627.681 1576.9 628.146 1576.53 628.483C1576.16 628.82 1575.67 629.005 1575.17 629Z" fill="#1C0E0C"/>
<path d="M958.54 853.87H885.94C885.94 853.87 816.19 792.1 785.71 755.67C781.549 750.661 777.746 745.364 774.33 739.82C760.19 716.89 776.53 687.32 803.47 687.17H804.25C877.94 687.17 958.58 820.66 958.54 853.87Z" fill="#1C0E0C"/>
<path d="M998.57 853.87H947.49C947.49 853.87 898.43 810.42 877 784.78C874.071 781.259 871.397 777.533 869 773.63C866.745 769.964 865.505 765.765 865.407 761.462C865.309 757.159 866.357 752.907 868.443 749.143C870.529 745.378 873.578 742.235 877.278 740.037C880.978 737.838 885.196 736.662 889.5 736.63H890C941.86 736.59 998.6 830.51 998.57 853.87Z" fill="#F4F1ED"/>
<path d="M846.72 617.43C968.92 616.15 1011.43 790.78 1008.72 853.87H958.54C958.54 820.66 877.94 687.17 804.25 687.17C778.11 687.17 762.71 710.46 770.59 731.55C770.59 731.55 719.94 618.76 846.72 617.43Z" fill="#EFAF00" stroke="black" stroke-width="6" stroke-linecap="round" stroke-linejoin="round"/>
<path d="M1316.19 824.361C1326.44 799.801 1312.64 771.501 1287.08 763.791C1168.56 728.041 1047.38 853.871 1047.38 853.871H969.74C969.74 853.871 1079.84 670.561 1263.14 697.811C1303.27 703.771 1356 742.421 1316.19 824.361Z" fill="#EFAF00" stroke="black" stroke-width="6" stroke-linecap="round" stroke-linejoin="round"/>
<path d="M1316 824.78C1310.49 837.66 1303.75 849.72 1299 853.87H1231.61C1231.61 853.87 1247.75 848.41 1263.33 824.78C1282.26 796.09 1273.5 760.58 1247.55 758.15C1260.87 758.56 1274.13 759.88 1287.11 763.79C1312.78 771.55 1326.6 800.12 1316 824.78Z" fill="#1C0E0C"/>
<path d="M1370.4 851.87H826C802.103 851.87 782.73 871.243 782.73 895.14V1439.54C782.73 1463.44 802.103 1482.81 826 1482.81H1370.4C1394.3 1482.81 1413.67 1463.44 1413.67 1439.54V895.14C1413.67 871.243 1394.3 851.87 1370.4 851.87Z" fill="#EFAF00" stroke="black" stroke-width="6" stroke-linecap="round" stroke-linejoin="round"/>
<path d="M1259.28 851.87H731.92C708.022 851.87 688.65 871.243 688.65 895.14V1439.54C688.65 1463.44 708.022 1482.81 731.92 1482.81H1259.28C1283.18 1482.81 1302.55 1463.44 1302.55 1439.54V895.14C1302.55 871.243 1283.18 851.87 1259.28 851.87Z" fill="#F4F1ED" stroke="#070707" stroke-width="6" stroke-linecap="round" stroke-linejoin="round"/>
<path d="M950.64 928.46C945.131 922.949 938.112 919.196 930.471 917.674C922.829 916.153 914.907 916.932 907.708 919.913C900.51 922.895 894.357 927.944 890.028 934.423C885.699 940.901 883.389 948.518 883.39 956.31V1071.07H962.18V956.31C962.187 951.136 961.171 946.012 959.191 941.233C957.21 936.453 954.304 932.112 950.64 928.46ZM922.79 957.46C921.106 957.462 919.46 956.965 918.059 956.031C916.658 955.097 915.566 953.769 914.92 952.214C914.275 950.659 914.105 948.947 914.432 947.296C914.759 945.645 915.569 944.127 916.759 942.936C917.948 941.745 919.465 940.934 921.116 940.604C922.767 940.275 924.478 940.443 926.034 941.087C927.59 941.731 928.919 942.822 929.855 944.221C930.79 945.621 931.29 947.267 931.29 948.95C931.292 950.069 931.074 951.176 930.649 952.211C930.223 953.245 929.597 954.185 928.808 954.977C928.018 955.769 927.08 956.398 926.048 956.828C925.015 957.257 923.908 957.479 922.79 957.48V957.46Z" fill="#F4F1ED"/>
<path d="M945.3 921.12C939.79 915.607 932.768 911.853 925.123 910.333C917.479 908.812 909.555 909.594 902.355 912.579C895.155 915.564 889.002 920.618 884.675 927.101C880.349 933.585 878.043 941.206 878.05 949V1063.76H956.84V949C956.851 943.822 955.837 938.692 953.857 933.907C951.876 929.122 948.968 924.776 945.3 921.12ZM917.45 950.12C915.769 950.12 914.125 949.622 912.727 948.688C911.33 947.754 910.24 946.426 909.597 944.873C908.954 943.32 908.785 941.611 909.113 939.962C909.441 938.313 910.251 936.799 911.439 935.61C912.628 934.421 914.143 933.612 915.792 933.284C917.44 932.956 919.149 933.124 920.703 933.767C922.256 934.411 923.583 935.5 924.517 936.898C925.451 938.296 925.95 939.939 925.95 941.62C925.951 942.738 925.732 943.845 925.306 944.878C924.879 945.911 924.254 946.85 923.464 947.641C922.675 948.432 921.738 949.06 920.706 949.489C919.674 949.918 918.567 950.139 917.45 950.14V950.12Z" stroke="#070707" stroke-width="6" stroke-linecap="round" stroke-linejoin="round"/>
<path d="M917.45 938.43V849.9C917.448 847.314 917.957 844.752 918.946 842.362C919.935 839.972 921.385 837.8 923.213 835.971C925.042 834.141 927.213 832.69 929.602 831.7C931.992 830.71 934.553 830.2 937.14 830.2C942.364 830.2 947.375 832.276 951.07 835.97C954.764 839.665 956.84 844.675 956.84 849.9V851.9" stroke="#070707" stroke-width="6" stroke-linecap="round" stroke-linejoin="round"/>
<path d="M933.46 1008.41C932.75 1006.76 931.684 1005.3 930.34 1004.11C929.086 1002.96 927.627 1002.06 926.04 1001.45C924.43 1000.84 922.27 1000.17 919.57 999.451H919.38V985.811H919.57C920.842 986.171 921.994 986.864 922.909 987.818C923.823 988.773 924.465 989.954 924.77 991.241C925.41 993.561 926.77 994.711 928.93 994.711C929.469 994.718 930.003 994.616 930.501 994.411C931 994.207 931.452 993.904 931.83 993.521C932.21 993.154 932.511 992.714 932.716 992.228C932.921 991.741 933.024 991.218 933.02 990.691C932.984 989.566 932.711 988.462 932.22 987.451C931.651 986.199 930.903 985.037 930 984.001C928.811 982.588 927.312 981.469 925.62 980.731C923.705 979.948 921.682 979.462 919.62 979.291H919.43V975.141C919.43 974.61 919.219 974.101 918.844 973.726C918.469 973.351 917.96 973.141 917.43 973.141C916.9 973.141 916.391 973.351 916.016 973.726C915.641 974.101 915.43 974.61 915.43 975.141V979.301C910.93 979.694 907.49 981.087 905.11 983.481C903.916 984.694 902.982 986.139 902.364 987.726C901.747 989.313 901.46 991.009 901.52 992.711C901.412 995.195 902.053 997.655 903.36 999.771C904.549 1001.58 906.199 1003.05 908.14 1004.01C910.476 1005.15 912.918 1006.05 915.43 1006.71V1021.92C914.149 1021.6 912.958 1020.98 911.95 1020.13C911.109 1019.41 910.427 1018.53 909.95 1017.53C909.363 1016.19 908.849 1014.82 908.41 1013.42C908.179 1012.63 907.681 1011.95 907 1011.49C906.259 1011.01 905.391 1010.77 904.51 1010.8C903.942 1010.79 903.377 1010.89 902.852 1011.11C902.326 1011.32 901.852 1011.65 901.46 1012.06C901.078 1012.43 900.772 1012.87 900.561 1013.35C900.35 1013.84 900.237 1014.36 900.23 1014.89C900.243 1016.38 900.552 1017.86 901.14 1019.23C901.827 1020.81 902.785 1022.25 903.97 1023.49C905.337 1024.92 906.958 1026.07 908.75 1026.9C910.854 1027.87 913.105 1028.48 915.41 1028.7V1031.83C915.41 1032.36 915.621 1032.87 915.996 1033.24C916.371 1033.62 916.88 1033.83 917.41 1033.83C917.94 1033.83 918.449 1033.62 918.824 1033.24C919.199 1032.87 919.41 1032.36 919.41 1031.83V1028.64H919.6C922.449 1028.46 925.216 1027.62 927.68 1026.18C929.854 1024.91 931.638 1023.07 932.84 1020.86C934.007 1018.71 934.609 1016.3 934.59 1013.86C934.595 1011.99 934.21 1010.13 933.46 1008.41ZM911 995.811C910.046 994.691 909.53 993.263 909.549 991.792C909.567 990.321 910.118 988.906 911.1 987.811C912.346 986.797 913.795 986.064 915.35 985.661V998.201C913.76 997.691 912.283 996.879 911 995.811ZM924.64 1019.61C923.277 1021.03 921.485 1021.97 919.54 1022.27H919.35V1007.89H919.54C921.423 1008.41 923.179 1009.31 924.7 1010.53C925.295 1011.09 925.761 1011.78 926.063 1012.54C926.365 1013.3 926.497 1014.11 926.45 1014.93C926.485 1016.66 925.847 1018.34 924.67 1019.61H924.64Z" fill="#1C0E0C"/>
<path d="M650.4 693.91C667.841 693.91 681.98 679.771 681.98 662.33C681.98 644.889 667.841 630.75 650.4 630.75C632.959 630.75 618.82 644.889 618.82 662.33C618.82 679.771 632.959 693.91 650.4 693.91Z" fill="#F4F1ED" stroke="#070707" stroke-width="6" stroke-linecap="round" stroke-linejoin="round"/>
<path d="M1818.42 1468.69C1835.86 1468.69 1850 1454.55 1850 1437.11C1850 1419.67 1835.86 1405.53 1818.42 1405.53C1800.98 1405.53 1786.84 1419.67 1786.84 1437.11C1786.84 1454.55 1800.98 1468.69 1818.42 1468.69Z" fill="#F4F1ED" stroke="#070707" stroke-width="6" stroke-linecap="round" stroke-linejoin="round"/>
<path d="M1915.64 791.11C1923.01 791.11 1928.98 785.138 1928.98 777.77C1928.98 770.403 1923.01 764.43 1915.64 764.43C1908.27 764.43 1902.3 770.403 1902.3 777.77C1902.3 785.138 1908.27 791.11 1915.64 791.11Z" fill="#F4F1ED" stroke="#070707" stroke-width="6" stroke-linecap="round" stroke-linejoin="round"/>
<path d="M1863.46 1494.82C1868.99 1494.82 1873.47 1490.34 1873.47 1484.81C1873.47 1479.28 1868.99 1474.8 1863.46 1474.8C1857.93 1474.8 1853.45 1479.28 1853.45 1484.81C1853.45 1490.34 1857.93 1494.82 1863.46 1494.82Z" fill="#F4F1ED" stroke="#070707" stroke-width="6" stroke-linecap="round" stroke-linejoin="round"/>
<path d="M643.9 1180.65C649.428 1180.65 653.91 1176.17 653.91 1170.64C653.91 1165.11 649.428 1160.63 643.9 1160.63C638.371 1160.63 633.89 1165.11 633.89 1170.64C633.89 1176.17 638.371 1180.65 643.9 1180.65Z" fill="#C5DCDD"/>
<path d="M1729.45 1323.88H1049V1550.33H1729.45V1323.88Z" fill="#F4F1ED" stroke="#070707" stroke-width="6" stroke-linecap="round" stroke-linejoin="round"/>
<path d="M1602.1 1323.88H965.7V1550.33H1602.1V1323.88Z" fill="#F4F1ED" stroke="#070707" stroke-width="6" stroke-linecap="round" stroke-linejoin="round"/>
<path d="M1731.7 1259.06H963.96V1339.23H1731.7V1259.06Z" fill="#1C0E0C"/>
<path d="M1757.7 1243.71H1020.75V1323.88H1757.7V1243.71Z" fill="#F4F1ED" stroke="#070707" stroke-width="6" stroke-linecap="round" stroke-linejoin="round"/>
<path d="M1628.51 1243.71H939.27V1323.88H1628.51V1243.71Z" fill="#F4F1ED" stroke="#070707" stroke-width="6" stroke-linecap="round" stroke-linejoin="round"/>
<path d="M1649.35 1183.43C1648.88 1188.93 1638.97 1215.15 1638.97 1215.15L1132.54 1198V1169.73C1132.54 1122.35 1148.64 1081.43 1157.17 1063.66C1170.32 1036.22 1188.53 1043.06 1188.53 1043.06C1188.53 1043.06 1238.06 1091.47 1293.61 1091.47C1304.32 1091.47 1312 1085.8 1317.47 1077.55C1320.75 1072.43 1323.31 1066.89 1325.06 1061.07C1327.37 1053.49 1329 1045.73 1329.92 1037.86C1330.33 1034.53 1331.55 1031.35 1333.45 1028.59C1335.36 1025.83 1337.9 1023.56 1340.86 1021.99C1343.83 1020.42 1347.13 1019.59 1350.49 1019.57C1353.84 1019.54 1357.15 1020.33 1360.14 1021.86C1381.95 1033.07 1408.43 1058.16 1479.3 1096.46C1482.86 1098.39 1486.53 1100.35 1490.3 1102.33C1576.56 1147.67 1648.43 1130.79 1649.35 1183.43Z" fill="#F4F1ED" stroke="#070707" stroke-width="6" stroke-linecap="round" stroke-linejoin="round"/>
<path d="M1592.4 1240.2C1607.07 1240.2 1624.95 1233.56 1634.56 1222.82C1644.17 1212.08 1652.24 1192.48 1647.73 1171.42H1647.33C1642.49 1197.42 1619.17 1210.17 1601.63 1210.17L1162.57 1197.29C1148.95 1197.29 1137.3 1187.89 1132.57 1174.58V1204.07C1132.57 1224.07 1147.04 1240.2 1164.9 1240.2H1592.4Z" fill="#F4F1ED" stroke="#070707" stroke-width="6" stroke-linecap="round" stroke-linejoin="round"/>
<path d="M1317.48 1077.55C1313.63 1092.92 1288.67 1109.29 1216.25 1087.81C1155.94 1069.92 1132.54 1145.08 1132.54 1174.58V1169.72C1132.54 1122.34 1148.64 1081.42 1157.17 1063.65C1170.32 1036.21 1188.53 1043.05 1188.53 1043.05C1188.53 1043.05 1238.06 1091.46 1293.61 1091.46C1304.32 1091.46 1312 1085.79 1317.47 1077.54L1317.48 1077.55Z" fill="#F46F40" stroke="black" stroke-width="6" stroke-linecap="round" stroke-linejoin="round"/>
<path d="M1498.59 1106.55C1388.91 1069.04 1334.02 1052.06 1325.06 1061.06C1327.37 1053.49 1329 1045.72 1329.92 1037.85C1330.33 1034.52 1331.55 1031.34 1333.45 1028.58C1335.36 1025.82 1337.9 1023.55 1340.86 1021.98C1343.83 1020.41 1347.13 1019.58 1350.49 1019.56C1353.84 1019.53 1357.15 1020.32 1360.14 1021.85C1382 1033.1 1418.41 1066.44 1498.59 1106.55Z" fill="#F4F1ED" stroke="#070707" stroke-width="6" stroke-linecap="round" stroke-linejoin="round"/>
<path d="M1386.6 1069.06L1400.82 1047.44C1401.65 1046.18 1402.73 1045.1 1403.99 1044.26C1405.25 1043.43 1406.67 1042.86 1408.15 1042.59C1409.64 1042.32 1411.17 1042.36 1412.64 1042.7C1414.11 1043.04 1415.5 1043.68 1416.72 1044.57C1418.91 1046.17 1420.43 1048.5 1421.02 1051.14C1421.61 1053.78 1421.21 1056.55 1419.91 1058.92L1418.02 1062.38" stroke="#070707" stroke-width="6" stroke-linecap="round" stroke-linejoin="round"/>
<path d="M1419.21 1078.5L1429.28 1062.72C1430 1061.62 1430.95 1060.67 1432.05 1059.94C1433.15 1059.21 1434.39 1058.72 1435.69 1058.48C1436.99 1058.25 1438.32 1058.28 1439.61 1058.58C1440.89 1058.87 1442.11 1059.43 1443.17 1060.21C1445.08 1061.61 1446.41 1063.65 1446.92 1065.96C1447.43 1068.26 1447.09 1070.68 1445.95 1072.75L1444.29 1075.75" stroke="#070707" stroke-width="6" stroke-linecap="round" stroke-linejoin="round"/>
<path d="M1469.23 1090.77C1470.43 1088.58 1470.8 1086.02 1470.26 1083.58C1469.72 1081.14 1468.31 1078.98 1466.29 1077.5C1465.16 1076.68 1463.88 1076.09 1462.52 1075.78C1461.16 1075.46 1459.74 1075.43 1458.37 1075.68C1456.99 1075.93 1455.68 1076.45 1454.52 1077.22C1453.35 1077.99 1452.36 1078.99 1451.59 1080.16L1445.22 1088.51" stroke="#070707" stroke-width="6" stroke-linecap="round" stroke-linejoin="round"/>
<path d="M1498.39 1106.45C1472.51 1111.13 1448.48 1123.02 1429.05 1140.75C1409.62 1158.47 1395.59 1181.32 1388.56 1206.66L1368.35 1205.98C1374.77 1179.87 1387.67 1155.8 1405.87 1136.01C1424.07 1116.22 1446.97 1101.34 1472.45 1092.76C1474.69 1093.99 1476.97 1095.24 1479.3 1096.49C1482.86 1098.42 1486.53 1100.38 1490.3 1102.36C1493 1103.79 1495.71 1105.14 1498.39 1106.45Z" fill="#F46F40" stroke="black" stroke-width="6" stroke-linecap="round" stroke-linejoin="round"/>
<path d="M1548.48 1125.86V1128.51C1522.73 1128.54 1497.54 1136.07 1476 1150.19C1454.46 1164.31 1437.5 1184.4 1427.2 1208L1406.2 1207.28C1414.98 1184.09 1429.27 1163.38 1447.84 1146.96C1466.42 1130.53 1488.71 1118.88 1512.8 1113C1524.46 1117.91 1536.37 1122.21 1548.48 1125.86Z" fill="#F46F40" stroke="black" stroke-width="6" stroke-linecap="round" stroke-linejoin="round"/>
</svg>
