<svg width="1296" height="1176" viewBox="0 0 1296 1176" fill="none" xmlns="http://www.w3.org/2000/svg">
<path d="M665.975 86.9468H677.504C699.052 86.9468 719.717 95.5066 734.954 110.743C750.19 125.98 758.75 146.645 758.75 168.193V246.63H584.729V168.193C584.729 146.645 593.288 125.98 608.525 110.743C623.762 95.5066 644.427 86.9468 665.975 86.9468Z" stroke="#070707" stroke-width="6" stroke-linecap="round" stroke-linejoin="round"/>
<path d="M724.689 86.9468H736.231C757.779 86.9468 778.444 95.5066 793.68 110.743C808.917 125.98 817.477 146.645 817.477 168.193V246.63H643.443V168.193C643.443 157.524 645.544 146.959 649.627 137.101C653.71 127.244 659.695 118.288 667.239 110.743C674.784 103.199 683.74 97.2143 693.597 93.1313C703.455 89.0483 714.02 86.9468 724.689 86.9468Z" stroke="#070707" stroke-width="6" stroke-linecap="round" stroke-linejoin="round"/>
<path d="M1079 1086.23H845.908L944.718 246.618H980.178L1079 1086.23Z" fill="#1C0E0C"/>
<path d="M944.718 246.618L845.908 1086.23H304.243L403.065 246.618H944.718Z" stroke="#070707" stroke-width="6" stroke-linecap="round" stroke-linejoin="round"/>
<path d="M875.59 502.953H796.245L806.352 387.388C808.265 365.482 827.583 347.722 849.489 347.722C871.408 347.722 887.61 365.482 885.697 387.388L875.59 502.953Z" fill="white"/>
<path d="M868.611 495.974H789.266L799.373 380.409C801.298 358.503 820.604 340.743 842.523 340.743C864.429 340.743 880.643 358.503 878.718 380.409L868.611 495.974Z" stroke="#070707" stroke-width="6" stroke-linecap="round" stroke-linejoin="round"/>
<path d="M845.342 378.908C848.909 375.493 849.265 370.075 846.136 366.806C843.006 363.537 837.578 363.656 834.011 367.071C830.444 370.486 830.088 375.904 833.218 379.172C836.347 382.441 841.775 382.323 845.342 378.908Z" stroke="#070707" stroke-width="6" stroke-linecap="round" stroke-linejoin="round"/>
<path d="M839.972 371.799L851.28 240.645C851.661 236.265 853.67 232.188 856.91 229.218C860.151 226.248 864.387 224.6 868.783 224.602C873.446 224.602 877.918 226.453 881.216 229.749C884.514 233.045 886.368 237.515 886.372 242.178" stroke="#070707" stroke-width="6" stroke-linecap="round" stroke-linejoin="round"/>
<path d="M834.734 454.222C836.754 453.902 838.628 452.973 840.106 451.561C841.382 450.314 842.169 448.652 842.326 446.875C842.457 446.081 842.401 445.268 842.163 444.499C841.924 443.73 841.51 443.028 840.952 442.447C839.529 441.216 837.855 440.307 836.046 439.786L831.901 438.523C829.432 437.868 827.039 436.955 824.762 435.8C822.901 434.835 821.359 433.352 820.322 431.531C819.186 429.344 818.758 426.858 819.095 424.417C819.316 420.863 820.903 417.532 823.523 415.12C826.544 412.542 830.348 411.059 834.317 410.913H838.499C840.538 411.077 842.538 411.566 844.424 412.36C846.051 413.087 847.466 414.219 848.532 415.648C849.379 416.689 850.05 417.861 850.519 419.119C850.936 420.153 851.116 421.268 851.047 422.381C850.916 423.483 850.391 424.501 849.568 425.245C848.745 425.989 847.68 426.41 846.57 426.429C844.411 426.429 843.119 425.264 842.694 422.933C842.514 421.659 841.969 420.464 841.124 419.494C840.28 418.523 839.172 417.817 837.935 417.463L833.753 417.328C832.122 417.748 830.591 418.491 829.251 419.511C828.666 420.021 828.193 420.648 827.864 421.351C827.534 422.055 827.355 422.819 827.338 423.596C827.218 424.293 827.255 425.01 827.448 425.691C827.642 426.372 827.985 427.002 828.454 427.533C829.666 428.634 831.094 429.47 832.649 429.986L836.733 431.212C839.382 431.961 841.504 432.635 843.062 433.248C844.593 433.856 845.987 434.765 847.159 435.922C848.415 437.124 849.365 438.608 849.931 440.252C850.532 442.026 850.741 443.909 850.544 445.771C850.335 448.275 849.522 450.69 848.177 452.812C846.761 455.04 844.814 456.882 842.51 458.172C839.941 459.596 837.089 460.434 834.157 460.625H829.963C827.682 460.415 825.457 459.805 823.388 458.822C821.666 457.99 820.13 456.818 818.875 455.375C817.788 454.12 816.955 452.666 816.422 451.095C815.951 449.69 815.767 448.205 815.882 446.728C816.035 445.594 816.592 444.553 817.45 443.796C818.309 443.04 819.411 442.617 820.555 442.607C821.424 442.574 822.282 442.815 823.008 443.294C823.647 443.768 824.084 444.463 824.235 445.244C824.569 446.643 824.978 448.023 825.461 449.377C825.845 450.374 826.449 451.271 827.227 452.002C828.195 452.867 829.356 453.485 830.613 453.805L834.734 454.222Z" fill="#070707"/>
<path d="M831.68 465.617H831.533C831.304 465.599 831.081 465.535 830.876 465.43C830.672 465.325 830.491 465.18 830.342 465.005C830.194 464.829 830.082 464.626 830.013 464.407C829.944 464.188 829.918 463.957 829.938 463.728L834.943 406.633C834.982 406.172 835.202 405.746 835.555 405.449C835.908 405.151 836.365 405.005 836.825 405.044C837.286 405.083 837.712 405.304 838.009 405.657C838.307 406.01 838.453 406.467 838.414 406.927L833.422 464.023C833.382 464.457 833.182 464.862 832.859 465.157C832.537 465.452 832.117 465.616 831.68 465.617Z" fill="#070707"/>
<path d="M469.347 362.551H477.713C493.346 362.551 508.34 368.761 519.395 379.816C530.45 390.871 536.66 405.864 536.66 421.498V478.41H410.4V421.498C410.4 405.864 416.61 390.871 427.665 379.816C438.72 368.761 453.714 362.551 469.347 362.551Z" stroke="#070707" stroke-width="6" stroke-linecap="round" stroke-linejoin="round"/>
<path d="M511.946 362.551H520.36C535.983 362.57 550.959 368.791 561.999 379.846C573.038 390.902 579.237 405.887 579.234 421.511V478.422H452.998V421.511C452.996 413.769 454.52 406.102 457.482 398.949C460.443 391.795 464.785 385.296 470.259 379.82C475.733 374.345 482.232 370.002 489.385 367.039C496.537 364.076 504.204 362.551 511.946 362.551Z" stroke="#070707" stroke-width="6" stroke-linecap="round" stroke-linejoin="round"/>
<path d="M769.029 1087.63H599.901L671.605 478.41H697.325L769.029 1087.63Z" fill="#F4F1ED" stroke="#070707" stroke-width="6" stroke-linecap="round" stroke-linejoin="round"/>
<path d="M671.604 478.41L599.901 1087.63H206.88L278.583 478.41H671.604Z" fill="#EFAF00" stroke="black" stroke-width="6" stroke-linecap="round" stroke-linejoin="round"/>
</svg>
